<?xml version="1.0" encoding="UTF-8" standalone="no"?>
<!DOCTYPE svg PUBLIC "-//W3C//DTD SVG 1.1//EN" "http://www.w3.org/Graphics/SVG/1.1/DTD/svg11.dtd">
<svg xmlns:xl="http://www.w3.org/1999/xlink" xmlns:dc="http://purl.org/dc/elements/1.1/" version="1.1" xmlns="http://www.w3.org/2000/svg" viewBox="-121.54455 306.61443 1108.33 546.7571" width="1108.33" height="546.7571">
  <defs>
    <marker orient="auto" overflow="visible" markerUnits="strokeWidth" id="FilledArrow_Marker" stroke-linejoin="miter" stroke-miterlimit="10" viewBox="-1 -4 9 8" markerWidth="9" markerHeight="8" color="black">
      <g>
        <path d="M 6.523077 0 L 0 -2.446154 L 0 2.446154 Z" fill="currentColor" stroke="currentColor" stroke-width="1"/>
      </g>
    </marker>
  </defs>
  <g id="Canvas_1" fill="none" stroke-dasharray="none" fill-opacity="1" stroke="none" stroke-opacity="1">
    <title>Canvas 1</title>
    <g id="Canvas_1_Layer_1">
      <title>Layer 1</title>
      <g id="Graphic_616"/>
      <g id="Graphic_587">
        <text transform="translate(240.75887 504.441)" fill="black">
          <tspan font-family="Helvetica Neue" font-size="16" fill="black" x="4.8381295" y="15" xml:space="preserve">Analysis Set</tspan>
          <tspan font-family="Helvetica Neue" font-size="16" fill="black" x="32.83813" y="33.448" xml:space="preserve">(2/3)</tspan>
        </text>
      </g>
      <g id="Graphic_586">
        <text transform="translate(224.57171 656.441)" fill="black">
          <tspan font-family="Helvetica Neue" font-size="16" fill="black" x="3.8243673" y="15" xml:space="preserve">Assessment Set</tspan>
          <tspan font-family="Helvetica Neue" font-size="16" fill="black" x="45.91237" y="33.448" xml:space="preserve">(1/3)</tspan>
        </text>
      </g>
      <g id="Graphic_585">
        <text transform="translate(403.43645 401.545)" fill="black">
          <tspan font-family="Helvetica Neue" font-size="16" fill="black" x="6.808" y="15" xml:space="preserve">Fold 1</tspan>
          <tspan font-family="Helvetica Neue" font-size="16" fill="black" x="0" y="33.448" xml:space="preserve">Iteration</tspan>
        </text>
      </g>
      <g id="Group_523">
        <g id="Graphic_553">
          <path d="M -20.557292 565.993 L -6.223958 565.993 C -2.357965 565.993 .7760417 569.127 .7760417 572.993 L .7760417 586.993 C .7760417 590.859 -2.357965 593.993 -6.223958 593.993 L -20.557292 593.993 C -24.423285 593.993 -27.557292 590.859 -27.557292 586.993 L -27.557292 572.993 C -27.557292 569.127 -24.423285 565.993 -20.557292 565.993 Z" fill="#3fbfa0"/>
          <path d="M -20.557292 565.993 L -6.223958 565.993 C -2.357965 565.993 .7760417 569.127 .7760417 572.993 L .7760417 586.993 C .7760417 590.859 -2.357965 593.993 -6.223958 593.993 L -20.557292 593.993 C -24.423285 593.993 -27.557292 590.859 -27.557292 586.993 L -27.557292 572.993 C -27.557292 569.127 -24.423285 565.993 -20.557292 565.993 Z" stroke="gray" stroke-linecap="round" stroke-linejoin="round" stroke-width="1"/>
          <text transform="translate(-21.0304 571.6624) rotate(1)" fill="white">
            <tspan font-family="Helvetica Neue" font-size="14" fill="white" x="0" y="13" xml:space="preserve">14</tspan>
          </text>
        </g>
        <g id="Graphic_552">
          <path d="M 92.77604 565.993 L 107.10938 565.993 C 110.97537 565.993 114.10938 569.127 114.10938 572.993 L 114.10938 586.993 C 114.10938 590.859 110.97537 593.993 107.10938 593.993 L 92.77604 593.993 C 88.91005 593.993 85.77604 590.859 85.77604 586.993 L 85.77604 572.993 C 85.77604 569.127 88.91005 565.993 92.77604 565.993 Z" fill="#f8bc51"/>
          <path d="M 92.77604 565.993 L 107.10938 565.993 C 110.97537 565.993 114.10938 569.127 114.10938 572.993 L 114.10938 586.993 C 114.10938 590.859 110.97537 593.993 107.10938 593.993 L 92.77604 593.993 C 88.91005 593.993 85.77604 590.859 85.77604 586.993 L 85.77604 572.993 C 85.77604 569.127 88.91005 565.993 92.77604 565.993 Z" stroke="gray" stroke-linecap="round" stroke-linejoin="round" stroke-width="1"/>
          <text transform="translate(92.30293 571.6624) rotate(1)" fill="black">
            <tspan font-family="Helvetica Neue" font-size="14" fill="black" x="0" y="13" xml:space="preserve">18</tspan>
          </text>
        </g>
        <g id="Graphic_551">
          <path d="M 36.109375 621.993 L 50.44271 621.993 C 54.3087 621.993 57.44271 625.127 57.44271 628.993 L 57.44271 642.993 C 57.44271 646.859 54.3087 649.993 50.44271 649.993 L 36.109375 649.993 C 32.24338 649.993 29.109375 646.859 29.109375 642.993 L 29.109375 628.993 C 29.109375 625.127 32.24338 621.993 36.109375 621.993 Z" fill="#7bcdf4"/>
          <path d="M 36.109375 621.993 L 50.44271 621.993 C 54.3087 621.993 57.44271 625.127 57.44271 628.993 L 57.44271 642.993 C 57.44271 646.859 54.3087 649.993 50.44271 649.993 L 36.109375 649.993 C 32.24338 649.993 29.109375 646.859 29.109375 642.993 L 29.109375 628.993 C 29.109375 625.127 32.24338 621.993 36.109375 621.993 Z" stroke="gray" stroke-linecap="round" stroke-linejoin="round" stroke-width="1"/>
          <text transform="translate(35.636267 627.6624) rotate(1)" fill="black">
            <tspan font-family="Helvetica Neue" font-size="14" fill="black" x="0" y="13" xml:space="preserve">28</tspan>
          </text>
        </g>
        <g id="Graphic_550">
          <path d="M 64.44271 565.993 L 78.77604 565.993 C 82.64203 565.993 85.77604 569.127 85.77604 572.993 L 85.77604 586.993 C 85.77604 590.859 82.64203 593.993 78.77604 593.993 L 64.44271 593.993 C 60.576715 593.993 57.44271 590.859 57.44271 586.993 L 57.44271 572.993 C 57.44271 569.127 60.576715 565.993 64.44271 565.993 Z" fill="#3fbfa0"/>
          <path d="M 64.44271 565.993 L 78.77604 565.993 C 82.64203 565.993 85.77604 569.127 85.77604 572.993 L 85.77604 586.993 C 85.77604 590.859 82.64203 593.993 78.77604 593.993 L 64.44271 593.993 C 60.576715 593.993 57.44271 590.859 57.44271 586.993 L 57.44271 572.993 C 57.44271 569.127 60.576715 565.993 64.44271 565.993 Z" stroke="gray" stroke-linecap="round" stroke-linejoin="round" stroke-width="1"/>
          <text transform="translate(63.9696 571.6624) rotate(1)" fill="white">
            <tspan font-family="Helvetica Neue" font-size="14" fill="white" x="0" y="13" xml:space="preserve">17</tspan>
          </text>
        </g>
        <g id="Graphic_549">
          <path d="M 7.776042 593.993 L 22.109375 593.993 C 25.975368 593.993 29.109375 597.127 29.109375 600.993 L 29.109375 614.993 C 29.109375 618.859 25.975368 621.993 22.109375 621.993 L 7.776042 621.993 C 3.9100484 621.993 .7760417 618.859 .7760417 614.993 L .7760417 600.993 C .7760417 597.127 3.9100484 593.993 7.776042 593.993 Z" fill="#3fbfa0"/>
          <path d="M 7.776042 593.993 L 22.109375 593.993 C 25.975368 593.993 29.109375 597.127 29.109375 600.993 L 29.109375 614.993 C 29.109375 618.859 25.975368 621.993 22.109375 621.993 L 7.776042 621.993 C 3.9100484 621.993 .7760417 618.859 .7760417 614.993 L .7760417 600.993 C .7760417 597.127 3.9100484 593.993 7.776042 593.993 Z" stroke="gray" stroke-linecap="round" stroke-linejoin="round" stroke-width="1"/>
          <text transform="translate(7.302934 599.6624) rotate(1)" fill="white">
            <tspan font-family="Helvetica Neue" font-size="14" fill="white" x="0" y="13" xml:space="preserve">21</tspan>
          </text>
        </g>
        <g id="Graphic_548">
          <path d="M -48.890625 621.993 L -34.55729 621.993 C -30.6913 621.993 -27.557292 625.127 -27.557292 628.993 L -27.557292 642.993 C -27.557292 646.859 -30.6913 649.993 -34.55729 649.993 L -48.890625 649.993 C -52.75662 649.993 -55.890625 646.859 -55.890625 642.993 L -55.890625 628.993 C -55.890625 625.127 -52.75662 621.993 -48.890625 621.993 Z" fill="#f8bc51"/>
          <path d="M -48.890625 621.993 L -34.55729 621.993 C -30.6913 621.993 -27.557292 625.127 -27.557292 628.993 L -27.557292 642.993 C -27.557292 646.859 -30.6913 649.993 -34.55729 649.993 L -48.890625 649.993 C -52.75662 649.993 -55.890625 646.859 -55.890625 642.993 L -55.890625 628.993 C -55.890625 625.127 -52.75662 621.993 -48.890625 621.993 Z" stroke="gray" stroke-linecap="round" stroke-linejoin="round" stroke-width="1"/>
          <text transform="translate(-49.36373 627.6624) rotate(1)" fill="black">
            <tspan font-family="Helvetica Neue" font-size="14" fill="black" x="0" y="13" xml:space="preserve">25</tspan>
          </text>
        </g>
        <g id="Graphic_547">
          <path d="M 36.109375 593.993 L 50.44271 593.993 C 54.3087 593.993 57.44271 597.127 57.44271 600.993 L 57.44271 614.993 C 57.44271 618.859 54.3087 621.993 50.44271 621.993 L 36.109375 621.993 C 32.24338 621.993 29.109375 618.859 29.109375 614.993 L 29.109375 600.993 C 29.109375 597.127 32.24338 593.993 36.109375 593.993 Z" fill="#f8bc51"/>
          <path d="M 36.109375 593.993 L 50.44271 593.993 C 54.3087 593.993 57.44271 597.127 57.44271 600.993 L 57.44271 614.993 C 57.44271 618.859 54.3087 621.993 50.44271 621.993 L 36.109375 621.993 C 32.24338 621.993 29.109375 618.859 29.109375 614.993 L 29.109375 600.993 C 29.109375 597.127 32.24338 593.993 36.109375 593.993 Z" stroke="gray" stroke-linecap="round" stroke-linejoin="round" stroke-width="1"/>
          <text transform="translate(35.636267 599.6624) rotate(1)" fill="black">
            <tspan font-family="Helvetica Neue" font-size="14" fill="black" x="0" y="13" xml:space="preserve">22</tspan>
          </text>
        </g>
        <g id="Graphic_546">
          <path d="M -20.557292 537.993 L -6.223958 537.993 C -2.357965 537.993 .7760417 541.127 .7760417 544.993 L .7760417 558.993 C .7760417 562.859 -2.357965 565.993 -6.223958 565.993 L -20.557292 565.993 C -24.423285 565.993 -27.557292 562.859 -27.557292 558.993 L -27.557292 544.993 C -27.557292 541.127 -24.423285 537.993 -20.557292 537.993 Z" fill="#7bcdf4"/>
          <path d="M -20.557292 537.993 L -6.223958 537.993 C -2.357965 537.993 .7760417 541.127 .7760417 544.993 L .7760417 558.993 C .7760417 562.859 -2.357965 565.993 -6.223958 565.993 L -20.557292 565.993 C -24.423285 565.993 -27.557292 562.859 -27.557292 558.993 L -27.557292 544.993 C -27.557292 541.127 -24.423285 537.993 -20.557292 537.993 Z" stroke="gray" stroke-linecap="round" stroke-linejoin="round" stroke-width="1"/>
          <text transform="translate(-17.138992 543.7303) rotate(1)" fill="black">
            <tspan font-family="Helvetica Neue" font-size="14" fill="black" x="0" y="13" xml:space="preserve">8</tspan>
          </text>
        </g>
        <g id="Graphic_545">
          <path d="M 92.77604 509.993 L 107.10938 509.993 C 110.97537 509.993 114.10938 513.127 114.10938 516.993 L 114.10938 530.993 C 114.10938 534.859 110.97537 537.993 107.10938 537.993 L 92.77604 537.993 C 88.91005 537.993 85.77604 534.859 85.77604 530.993 L 85.77604 516.993 C 85.77604 513.127 88.91005 509.993 92.77604 509.993 Z" fill="#7bcdf4"/>
          <path d="M 92.77604 509.993 L 107.10938 509.993 C 110.97537 509.993 114.10938 513.127 114.10938 516.993 L 114.10938 530.993 C 114.10938 534.859 110.97537 537.993 107.10938 537.993 L 92.77604 537.993 C 88.91005 537.993 85.77604 534.859 85.77604 530.993 L 85.77604 516.993 C 85.77604 513.127 88.91005 509.993 92.77604 509.993 Z" stroke="gray" stroke-linecap="round" stroke-linejoin="round" stroke-width="1"/>
          <text transform="translate(96.19434 515.7303) rotate(1)" fill="black">
            <tspan font-family="Helvetica Neue" font-size="14" fill="black" x="0" y="13" xml:space="preserve">6</tspan>
          </text>
        </g>
        <g id="Graphic_544">
          <path d="M 92.77604 621.993 L 107.10938 621.993 C 110.97537 621.993 114.10938 625.127 114.10938 628.993 L 114.10938 642.993 C 114.10938 646.859 110.97537 649.993 107.10938 649.993 L 92.77604 649.993 C 88.91005 649.993 85.77604 646.859 85.77604 642.993 L 85.77604 628.993 C 85.77604 625.127 88.91005 621.993 92.77604 621.993 Z" fill="#3fbfa0"/>
          <path d="M 92.77604 621.993 L 107.10938 621.993 C 110.97537 621.993 114.10938 625.127 114.10938 628.993 L 114.10938 642.993 C 114.10938 646.859 110.97537 649.993 107.10938 649.993 L 92.77604 649.993 C 88.91005 649.993 85.77604 646.859 85.77604 642.993 L 85.77604 628.993 C 85.77604 625.127 88.91005 621.993 92.77604 621.993 Z" stroke="gray" stroke-linecap="round" stroke-linejoin="round" stroke-width="1"/>
          <text transform="translate(92.30293 627.6624) rotate(1)" fill="white">
            <tspan font-family="Helvetica Neue" font-size="14" fill="white" x="0" y="13" xml:space="preserve">30</tspan>
          </text>
        </g>
        <g id="Graphic_543">
          <path d="M -48.890625 509.993 L -34.55729 509.993 C -30.6913 509.993 -27.557292 513.127 -27.557292 516.993 L -27.557292 530.993 C -27.557292 534.859 -30.6913 537.993 -34.55729 537.993 L -48.890625 537.993 C -52.75662 537.993 -55.890625 534.859 -55.890625 530.993 L -55.890625 516.993 C -55.890625 513.127 -52.75662 509.993 -48.890625 509.993 Z" fill="#3fbfa0"/>
          <path d="M -48.890625 509.993 L -34.55729 509.993 C -30.6913 509.993 -27.557292 513.127 -27.557292 516.993 L -27.557292 530.993 C -27.557292 534.859 -30.6913 537.993 -34.55729 537.993 L -48.890625 537.993 C -52.75662 537.993 -55.890625 534.859 -55.890625 530.993 L -55.890625 516.993 C -55.890625 513.127 -52.75662 509.993 -48.890625 509.993 Z" stroke="gray" stroke-linecap="round" stroke-linejoin="round" stroke-width="1"/>
          <text transform="translate(-45.472325 515.7303) rotate(1)" fill="white">
            <tspan font-family="Helvetica Neue" font-size="14" fill="white" x="0" y="13" xml:space="preserve">1</tspan>
          </text>
        </g>
        <g id="Graphic_542">
          <path d="M 64.44271 593.993 L 78.77604 593.993 C 82.64203 593.993 85.77604 597.127 85.77604 600.993 L 85.77604 614.993 C 85.77604 618.859 82.64203 621.993 78.77604 621.993 L 64.44271 621.993 C 60.576715 621.993 57.44271 618.859 57.44271 614.993 L 57.44271 600.993 C 57.44271 597.127 60.576715 593.993 64.44271 593.993 Z" fill="#f8bc51"/>
          <path d="M 64.44271 593.993 L 78.77604 593.993 C 82.64203 593.993 85.77604 597.127 85.77604 600.993 L 85.77604 614.993 C 85.77604 618.859 82.64203 621.993 78.77604 621.993 L 64.44271 621.993 C 60.576715 621.993 57.44271 618.859 57.44271 614.993 L 57.44271 600.993 C 57.44271 597.127 60.576715 593.993 64.44271 593.993 Z" stroke="gray" stroke-linecap="round" stroke-linejoin="round" stroke-width="1"/>
          <text transform="translate(63.9696 599.6624) rotate(1)" fill="black">
            <tspan font-family="Helvetica Neue" font-size="14" fill="black" x="0" y="13" xml:space="preserve">23</tspan>
          </text>
        </g>
        <g id="Graphic_541">
          <path d="M 7.776042 621.993 L 22.109375 621.993 C 25.975368 621.993 29.109375 625.127 29.109375 628.993 L 29.109375 642.993 C 29.109375 646.859 25.975368 649.993 22.109375 649.993 L 7.776042 649.993 C 3.9100484 649.993 .7760417 646.859 .7760417 642.993 L .7760417 628.993 C .7760417 625.127 3.9100484 621.993 7.776042 621.993 Z" fill="#f8bc51"/>
          <path d="M 7.776042 621.993 L 22.109375 621.993 C 25.975368 621.993 29.109375 625.127 29.109375 628.993 L 29.109375 642.993 C 29.109375 646.859 25.975368 649.993 22.109375 649.993 L 7.776042 649.993 C 3.9100484 649.993 .7760417 646.859 .7760417 642.993 L .7760417 628.993 C .7760417 625.127 3.9100484 621.993 7.776042 621.993 Z" stroke="gray" stroke-linecap="round" stroke-linejoin="round" stroke-width="1"/>
          <text transform="translate(7.302934 627.6624) rotate(1)" fill="black">
            <tspan font-family="Helvetica Neue" font-size="14" fill="black" x="0" y="13" xml:space="preserve">27</tspan>
          </text>
        </g>
        <g id="Graphic_540">
          <path d="M 7.776042 509.993 L 22.109375 509.993 C 25.975368 509.993 29.109375 513.127 29.109375 516.993 L 29.109375 530.993 C 29.109375 534.859 25.975368 537.993 22.109375 537.993 L 7.776042 537.993 C 3.9100484 537.993 .7760417 534.859 .7760417 530.993 L .7760417 516.993 C .7760417 513.127 3.9100484 509.993 7.776042 509.993 Z" fill="#3fbfa0"/>
          <path d="M 7.776042 509.993 L 22.109375 509.993 C 25.975368 509.993 29.109375 513.127 29.109375 516.993 L 29.109375 530.993 C 29.109375 534.859 25.975368 537.993 22.109375 537.993 L 7.776042 537.993 C 3.9100484 537.993 .7760417 534.859 .7760417 530.993 L .7760417 516.993 C .7760417 513.127 3.9100484 509.993 7.776042 509.993 Z" stroke="gray" stroke-linecap="round" stroke-linejoin="round" stroke-width="1"/>
          <text transform="translate(11.194341 515.7303) rotate(1)" fill="white">
            <tspan font-family="Helvetica Neue" font-size="14" fill="white" x="0" y="13" xml:space="preserve">3</tspan>
          </text>
        </g>
        <g id="Graphic_539">
          <path d="M -20.557292 509.993 L -6.223958 509.993 C -2.357965 509.993 .7760417 513.127 .7760417 516.993 L .7760417 530.993 C .7760417 534.859 -2.357965 537.993 -6.223958 537.993 L -20.557292 537.993 C -24.423285 537.993 -27.557292 534.859 -27.557292 530.993 L -27.557292 516.993 C -27.557292 513.127 -24.423285 509.993 -20.557292 509.993 Z" fill="#f8bc51"/>
          <path d="M -20.557292 509.993 L -6.223958 509.993 C -2.357965 509.993 .7760417 513.127 .7760417 516.993 L .7760417 530.993 C .7760417 534.859 -2.357965 537.993 -6.223958 537.993 L -20.557292 537.993 C -24.423285 537.993 -27.557292 534.859 -27.557292 530.993 L -27.557292 516.993 C -27.557292 513.127 -24.423285 509.993 -20.557292 509.993 Z" stroke="gray" stroke-linecap="round" stroke-linejoin="round" stroke-width="1"/>
          <text transform="translate(-17.138992 515.7303) rotate(1)" fill="black">
            <tspan font-family="Helvetica Neue" font-size="14" fill="black" x="0" y="13" xml:space="preserve">2</tspan>
          </text>
        </g>
        <g id="Graphic_538">
          <path d="M -48.890625 593.993 L -34.55729 593.993 C -30.6913 593.993 -27.557292 597.127 -27.557292 600.993 L -27.557292 614.993 C -27.557292 618.859 -30.6913 621.993 -34.55729 621.993 L -48.890625 621.993 C -52.75662 621.993 -55.890625 618.859 -55.890625 614.993 L -55.890625 600.993 C -55.890625 597.127 -52.75662 593.993 -48.890625 593.993 Z" fill="#3fbfa0"/>
          <path d="M -48.890625 593.993 L -34.55729 593.993 C -30.6913 593.993 -27.557292 597.127 -27.557292 600.993 L -27.557292 614.993 C -27.557292 618.859 -30.6913 621.993 -34.55729 621.993 L -48.890625 621.993 C -52.75662 621.993 -55.890625 618.859 -55.890625 614.993 L -55.890625 600.993 C -55.890625 597.127 -52.75662 593.993 -48.890625 593.993 Z" stroke="gray" stroke-linecap="round" stroke-linejoin="round" stroke-width="1"/>
          <text transform="translate(-49.36373 599.6624) rotate(1)" fill="white">
            <tspan font-family="Helvetica Neue" font-size="14" fill="white" x="0" y="13" xml:space="preserve">19</tspan>
          </text>
        </g>
        <g id="Graphic_537">
          <path d="M 64.44271 537.993 L 78.77604 537.993 C 82.64203 537.993 85.77604 541.127 85.77604 544.993 L 85.77604 558.993 C 85.77604 562.859 82.64203 565.993 78.77604 565.993 L 64.44271 565.993 C 60.576715 565.993 57.44271 562.859 57.44271 558.993 L 57.44271 544.993 C 57.44271 541.127 60.576715 537.993 64.44271 537.993 Z" fill="#f8bc51"/>
          <path d="M 64.44271 537.993 L 78.77604 537.993 C 82.64203 537.993 85.77604 541.127 85.77604 544.993 L 85.77604 558.993 C 85.77604 562.859 82.64203 565.993 78.77604 565.993 L 64.44271 565.993 C 60.576715 565.993 57.44271 562.859 57.44271 558.993 L 57.44271 544.993 C 57.44271 541.127 60.576715 537.993 64.44271 537.993 Z" stroke="gray" stroke-linecap="round" stroke-linejoin="round" stroke-width="1"/>
          <text transform="translate(63.9696 543.6624) rotate(1)" fill="black">
            <tspan font-family="Helvetica Neue" font-size="14" fill="black" x="0" y="13" xml:space="preserve">11</tspan>
          </text>
        </g>
        <g id="Graphic_536">
          <path d="M -48.890625 537.993 L -34.55729 537.993 C -30.6913 537.993 -27.557292 541.127 -27.557292 544.993 L -27.557292 558.993 C -27.557292 562.859 -30.6913 565.993 -34.55729 565.993 L -48.890625 565.993 C -52.75662 565.993 -55.890625 562.859 -55.890625 558.993 L -55.890625 544.993 C -55.890625 541.127 -52.75662 537.993 -48.890625 537.993 Z" fill="#f8bc51"/>
          <path d="M -48.890625 537.993 L -34.55729 537.993 C -30.6913 537.993 -27.557292 541.127 -27.557292 544.993 L -27.557292 558.993 C -27.557292 562.859 -30.6913 565.993 -34.55729 565.993 L -48.890625 565.993 C -52.75662 565.993 -55.890625 562.859 -55.890625 558.993 L -55.890625 544.993 C -55.890625 541.127 -52.75662 537.993 -48.890625 537.993 Z" stroke="gray" stroke-linecap="round" stroke-linejoin="round" stroke-width="1"/>
          <text transform="translate(-45.472325 543.7303) rotate(1)" fill="black">
            <tspan font-family="Helvetica Neue" font-size="14" fill="black" x="0" y="13" xml:space="preserve">7</tspan>
          </text>
        </g>
        <g id="Graphic_535">
          <path d="M -20.557292 621.993 L -6.223958 621.993 C -2.357965 621.993 .7760417 625.127 .7760417 628.993 L .7760417 642.993 C .7760417 646.859 -2.357965 649.993 -6.223958 649.993 L -20.557292 649.993 C -24.423285 649.993 -27.557292 646.859 -27.557292 642.993 L -27.557292 628.993 C -27.557292 625.127 -24.423285 621.993 -20.557292 621.993 Z" fill="#7bcdf4"/>
          <path d="M -20.557292 621.993 L -6.223958 621.993 C -2.357965 621.993 .7760417 625.127 .7760417 628.993 L .7760417 642.993 C .7760417 646.859 -2.357965 649.993 -6.223958 649.993 L -20.557292 649.993 C -24.423285 649.993 -27.557292 646.859 -27.557292 642.993 L -27.557292 628.993 C -27.557292 625.127 -24.423285 621.993 -20.557292 621.993 Z" stroke="gray" stroke-linecap="round" stroke-linejoin="round" stroke-width="1"/>
          <text transform="translate(-21.0304 627.6624) rotate(1)" fill="black">
            <tspan font-family="Helvetica Neue" font-size="14" fill="black" x="0" y="13" xml:space="preserve">26</tspan>
          </text>
        </g>
        <g id="Graphic_534">
          <path d="M 92.77604 593.993 L 107.10938 593.993 C 110.97537 593.993 114.10938 597.127 114.10938 600.993 L 114.10938 614.993 C 114.10938 618.859 110.97537 621.993 107.10938 621.993 L 92.77604 621.993 C 88.91005 621.993 85.77604 618.859 85.77604 614.993 L 85.77604 600.993 C 85.77604 597.127 88.91005 593.993 92.77604 593.993 Z" fill="#3fbfa0"/>
          <path d="M 92.77604 593.993 L 107.10938 593.993 C 110.97537 593.993 114.10938 597.127 114.10938 600.993 L 114.10938 614.993 C 114.10938 618.859 110.97537 621.993 107.10938 621.993 L 92.77604 621.993 C 88.91005 621.993 85.77604 618.859 85.77604 614.993 L 85.77604 600.993 C 85.77604 597.127 88.91005 593.993 92.77604 593.993 Z" stroke="gray" stroke-linecap="round" stroke-linejoin="round" stroke-width="1"/>
          <text transform="translate(92.30293 599.6624) rotate(1)" fill="white">
            <tspan font-family="Helvetica Neue" font-size="14" fill="white" x="0" y="13" xml:space="preserve">24</tspan>
          </text>
        </g>
        <g id="Graphic_533">
          <path d="M 36.109375 565.993 L 50.44271 565.993 C 54.3087 565.993 57.44271 569.127 57.44271 572.993 L 57.44271 586.993 C 57.44271 590.859 54.3087 593.993 50.44271 593.993 L 36.109375 593.993 C 32.24338 593.993 29.109375 590.859 29.109375 586.993 L 29.109375 572.993 C 29.109375 569.127 32.24338 565.993 36.109375 565.993 Z" fill="#7bcdf4"/>
          <path d="M 36.109375 565.993 L 50.44271 565.993 C 54.3087 565.993 57.44271 569.127 57.44271 572.993 L 57.44271 586.993 C 57.44271 590.859 54.3087 593.993 50.44271 593.993 L 36.109375 593.993 C 32.24338 593.993 29.109375 590.859 29.109375 586.993 L 29.109375 572.993 C 29.109375 569.127 32.24338 565.993 36.109375 565.993 Z" stroke="gray" stroke-linecap="round" stroke-linejoin="round" stroke-width="1"/>
          <text transform="translate(35.636267 571.6624) rotate(1)" fill="black">
            <tspan font-family="Helvetica Neue" font-size="14" fill="black" x="0" y="13" xml:space="preserve">16</tspan>
          </text>
        </g>
        <g id="Graphic_532">
          <path d="M 7.776042 537.993 L 22.109375 537.993 C 25.975368 537.993 29.109375 541.127 29.109375 544.993 L 29.109375 558.993 C 29.109375 562.859 25.975368 565.993 22.109375 565.993 L 7.776042 565.993 C 3.9100484 565.993 .7760417 562.859 .7760417 558.993 L .7760417 544.993 C .7760417 541.127 3.9100484 537.993 7.776042 537.993 Z" fill="#7bcdf4"/>
          <path d="M 7.776042 537.993 L 22.109375 537.993 C 25.975368 537.993 29.109375 541.127 29.109375 544.993 L 29.109375 558.993 C 29.109375 562.859 25.975368 565.993 22.109375 565.993 L 7.776042 565.993 C 3.9100484 565.993 .7760417 562.859 .7760417 558.993 L .7760417 544.993 C .7760417 541.127 3.9100484 537.993 7.776042 537.993 Z" stroke="gray" stroke-linecap="round" stroke-linejoin="round" stroke-width="1"/>
          <text transform="translate(11.194341 543.7303) rotate(1)" fill="black">
            <tspan font-family="Helvetica Neue" font-size="14" fill="black" x="0" y="13" xml:space="preserve">9</tspan>
          </text>
        </g>
        <g id="Graphic_531">
          <path d="M 36.109375 509.993 L 50.44271 509.993 C 54.3087 509.993 57.44271 513.127 57.44271 516.993 L 57.44271 530.993 C 57.44271 534.859 54.3087 537.993 50.44271 537.993 L 36.109375 537.993 C 32.24338 537.993 29.109375 534.859 29.109375 530.993 L 29.109375 516.993 C 29.109375 513.127 32.24338 509.993 36.109375 509.993 Z" fill="#f8bc51"/>
          <path d="M 36.109375 509.993 L 50.44271 509.993 C 54.3087 509.993 57.44271 513.127 57.44271 516.993 L 57.44271 530.993 C 57.44271 534.859 54.3087 537.993 50.44271 537.993 L 36.109375 537.993 C 32.24338 537.993 29.109375 534.859 29.109375 530.993 L 29.109375 516.993 C 29.109375 513.127 32.24338 509.993 36.109375 509.993 Z" stroke="gray" stroke-linecap="round" stroke-linejoin="round" stroke-width="1"/>
          <text transform="translate(39.527675 515.7303) rotate(1)" fill="black">
            <tspan font-family="Helvetica Neue" font-size="14" fill="black" x="0" y="13" xml:space="preserve">4</tspan>
          </text>
        </g>
        <g id="Graphic_530">
          <path d="M 64.44271 621.993 L 78.77604 621.993 C 82.64203 621.993 85.77604 625.127 85.77604 628.993 L 85.77604 642.993 C 85.77604 646.859 82.64203 649.993 78.77604 649.993 L 64.44271 649.993 C 60.576715 649.993 57.44271 646.859 57.44271 642.993 L 57.44271 628.993 C 57.44271 625.127 60.576715 621.993 64.44271 621.993 Z" fill="#7bcdf4"/>
          <path d="M 64.44271 621.993 L 78.77604 621.993 C 82.64203 621.993 85.77604 625.127 85.77604 628.993 L 85.77604 642.993 C 85.77604 646.859 82.64203 649.993 78.77604 649.993 L 64.44271 649.993 C 60.576715 649.993 57.44271 646.859 57.44271 642.993 L 57.44271 628.993 C 57.44271 625.127 60.576715 621.993 64.44271 621.993 Z" stroke="gray" stroke-linecap="round" stroke-linejoin="round" stroke-width="1"/>
          <text transform="translate(63.9696 627.6624) rotate(1)" fill="black">
            <tspan font-family="Helvetica Neue" font-size="14" fill="black" x="0" y="13" xml:space="preserve">29</tspan>
          </text>
        </g>
        <g id="Graphic_529">
          <path d="M -20.557292 593.993 L -6.223958 593.993 C -2.357965 593.993 .7760417 597.127 .7760417 600.993 L .7760417 614.993 C .7760417 618.859 -2.357965 621.993 -6.223958 621.993 L -20.557292 621.993 C -24.423285 621.993 -27.557292 618.859 -27.557292 614.993 L -27.557292 600.993 C -27.557292 597.127 -24.423285 593.993 -20.557292 593.993 Z" fill="#7bcdf4"/>
          <path d="M -20.557292 593.993 L -6.223958 593.993 C -2.357965 593.993 .7760417 597.127 .7760417 600.993 L .7760417 614.993 C .7760417 618.859 -2.357965 621.993 -6.223958 621.993 L -20.557292 621.993 C -24.423285 621.993 -27.557292 618.859 -27.557292 614.993 L -27.557292 600.993 C -27.557292 597.127 -24.423285 593.993 -20.557292 593.993 Z" stroke="gray" stroke-linecap="round" stroke-linejoin="round" stroke-width="1"/>
          <text transform="translate(-21.0304 599.6624) rotate(1)" fill="black">
            <tspan font-family="Helvetica Neue" font-size="14" fill="black" x="0" y="13" xml:space="preserve">20</tspan>
          </text>
        </g>
        <g id="Graphic_528">
          <path d="M 92.77604 537.993 L 107.10938 537.993 C 110.97537 537.993 114.10938 541.127 114.10938 544.993 L 114.10938 558.993 C 114.10938 562.859 110.97537 565.993 107.10938 565.993 L 92.77604 565.993 C 88.91005 565.993 85.77604 562.859 85.77604 558.993 L 85.77604 544.993 C 85.77604 541.127 88.91005 537.993 92.77604 537.993 Z" fill="#3fbfa0"/>
          <path d="M 92.77604 537.993 L 107.10938 537.993 C 110.97537 537.993 114.10938 541.127 114.10938 544.993 L 114.10938 558.993 C 114.10938 562.859 110.97537 565.993 107.10938 565.993 L 92.77604 565.993 C 88.91005 565.993 85.77604 562.859 85.77604 558.993 L 85.77604 544.993 C 85.77604 541.127 88.91005 537.993 92.77604 537.993 Z" stroke="gray" stroke-linecap="round" stroke-linejoin="round" stroke-width="1"/>
          <text transform="translate(92.30293 543.6624) rotate(1)" fill="white">
            <tspan font-family="Helvetica Neue" font-size="14" fill="white" x="0" y="13" xml:space="preserve">12</tspan>
          </text>
        </g>
        <g id="Graphic_527">
          <path d="M -48.890625 565.993 L -34.55729 565.993 C -30.6913 565.993 -27.557292 569.127 -27.557292 572.993 L -27.557292 586.993 C -27.557292 590.859 -30.6913 593.993 -34.55729 593.993 L -48.890625 593.993 C -52.75662 593.993 -55.890625 590.859 -55.890625 586.993 L -55.890625 572.993 C -55.890625 569.127 -52.75662 565.993 -48.890625 565.993 Z" fill="#7bcdf4"/>
          <path d="M -48.890625 565.993 L -34.55729 565.993 C -30.6913 565.993 -27.557292 569.127 -27.557292 572.993 L -27.557292 586.993 C -27.557292 590.859 -30.6913 593.993 -34.55729 593.993 L -48.890625 593.993 C -52.75662 593.993 -55.890625 590.859 -55.890625 586.993 L -55.890625 572.993 C -55.890625 569.127 -52.75662 565.993 -48.890625 565.993 Z" stroke="gray" stroke-linecap="round" stroke-linejoin="round" stroke-width="1"/>
          <text transform="translate(-49.36373 571.6624) rotate(1)" fill="black">
            <tspan font-family="Helvetica Neue" font-size="14" fill="black" x="0" y="13" xml:space="preserve">13</tspan>
          </text>
        </g>
        <g id="Graphic_526">
          <path d="M 7.776042 565.993 L 22.109375 565.993 C 25.975368 565.993 29.109375 569.127 29.109375 572.993 L 29.109375 586.993 C 29.109375 590.859 25.975368 593.993 22.109375 593.993 L 7.776042 593.993 C 3.9100484 593.993 .7760417 590.859 .7760417 586.993 L .7760417 572.993 C .7760417 569.127 3.9100484 565.993 7.776042 565.993 Z" fill="#3fbfa0"/>
          <path d="M 7.776042 565.993 L 22.109375 565.993 C 25.975368 565.993 29.109375 569.127 29.109375 572.993 L 29.109375 586.993 C 29.109375 590.859 25.975368 593.993 22.109375 593.993 L 7.776042 593.993 C 3.9100484 593.993 .7760417 590.859 .7760417 586.993 L .7760417 572.993 C .7760417 569.127 3.9100484 565.993 7.776042 565.993 Z" stroke="gray" stroke-linecap="round" stroke-linejoin="round" stroke-width="1"/>
          <text transform="translate(7.302934 571.6624) rotate(1)" fill="white">
            <tspan font-family="Helvetica Neue" font-size="14" fill="white" x="0" y="13" xml:space="preserve">15</tspan>
          </text>
        </g>
        <g id="Graphic_525">
          <path d="M 64.44271 509.993 L 78.77604 509.993 C 82.64203 509.993 85.77604 513.127 85.77604 516.993 L 85.77604 530.993 C 85.77604 534.859 82.64203 537.993 78.77604 537.993 L 64.44271 537.993 C 60.576715 537.993 57.44271 534.859 57.44271 530.993 L 57.44271 516.993 C 57.44271 513.127 60.576715 509.993 64.44271 509.993 Z" fill="#7bcdf4"/>
          <path d="M 64.44271 509.993 L 78.77604 509.993 C 82.64203 509.993 85.77604 513.127 85.77604 516.993 L 85.77604 530.993 C 85.77604 534.859 82.64203 537.993 78.77604 537.993 L 64.44271 537.993 C 60.576715 537.993 57.44271 534.859 57.44271 530.993 L 57.44271 516.993 C 57.44271 513.127 60.576715 509.993 64.44271 509.993 Z" stroke="gray" stroke-linecap="round" stroke-linejoin="round" stroke-width="1"/>
          <text transform="translate(67.86101 515.7303) rotate(1)" fill="black">
            <tspan font-family="Helvetica Neue" font-size="14" fill="black" x="0" y="13" xml:space="preserve">5</tspan>
          </text>
        </g>
        <g id="Graphic_524">
          <path d="M 36.109375 537.993 L 50.44271 537.993 C 54.3087 537.993 57.44271 541.127 57.44271 544.993 L 57.44271 558.993 C 57.44271 562.859 54.3087 565.993 50.44271 565.993 L 36.109375 565.993 C 32.24338 565.993 29.109375 562.859 29.109375 558.993 L 29.109375 544.993 C 29.109375 541.127 32.24338 537.993 36.109375 537.993 Z" fill="#f8bc51"/>
          <path d="M 36.109375 537.993 L 50.44271 537.993 C 54.3087 537.993 57.44271 541.127 57.44271 544.993 L 57.44271 558.993 C 57.44271 562.859 54.3087 565.993 50.44271 565.993 L 36.109375 565.993 C 32.24338 565.993 29.109375 562.859 29.109375 558.993 L 29.109375 544.993 C 29.109375 541.127 32.24338 537.993 36.109375 537.993 Z" stroke="gray" stroke-linecap="round" stroke-linejoin="round" stroke-width="1"/>
          <text transform="translate(35.636267 543.6624) rotate(1)" fill="black">
            <tspan font-family="Helvetica Neue" font-size="14" fill="black" x="0" y="13" xml:space="preserve">10</tspan>
          </text>
        </g>
      </g>
      <g id="Group_492">
        <g id="Graphic_522">
          <path d="M 382.1378 513.441 L 396.4711 513.441 C 400.3371 513.441 403.4711 516.575 403.4711 520.441 L 403.4711 534.441 C 403.4711 538.307 400.3371 541.441 396.4711 541.441 L 382.1378 541.441 C 378.2718 541.441 375.1378 538.307 375.1378 534.441 L 375.1378 520.441 C 375.1378 516.575 378.2718 513.441 382.1378 513.441 Z" fill="#f8bc51"/>
          <path d="M 382.1378 513.441 L 396.4711 513.441 C 400.3371 513.441 403.4711 516.575 403.4711 520.441 L 403.4711 534.441 C 403.4711 538.307 400.3371 541.441 396.4711 541.441 L 382.1378 541.441 C 378.2718 541.441 375.1378 538.307 375.1378 534.441 L 375.1378 520.441 C 375.1378 516.575 378.2718 513.441 382.1378 513.441 Z" stroke="gray" stroke-linecap="round" stroke-linejoin="round" stroke-width="1"/>
          <text transform="translate(381.66468 519.1104) rotate(1)" fill="black">
            <tspan font-family="Helvetica Neue" font-size="14" fill="black" x="0" y="13" xml:space="preserve">11</tspan>
          </text>
        </g>
        <g id="Graphic_521"/>
        <g id="Graphic_520">
          <path d="M 438.80445 569.441 L 453.1378 569.441 C 457.0038 569.441 460.1378 572.575 460.1378 576.441 L 460.1378 590.441 C 460.1378 594.307 457.0038 597.441 453.1378 597.441 L 438.80445 597.441 C 434.93846 597.441 431.80445 594.307 431.80445 590.441 L 431.80445 576.441 C 431.80445 572.575 434.93846 569.441 438.80445 569.441 Z" fill="#7bcdf4"/>
          <path d="M 438.80445 569.441 L 453.1378 569.441 C 457.0038 569.441 460.1378 572.575 460.1378 576.441 L 460.1378 590.441 C 460.1378 594.307 457.0038 597.441 453.1378 597.441 L 438.80445 597.441 C 434.93846 597.441 431.80445 594.307 431.80445 590.441 L 431.80445 576.441 C 431.80445 572.575 434.93846 569.441 438.80445 569.441 Z" stroke="gray" stroke-linecap="round" stroke-linejoin="round" stroke-width="1"/>
          <text transform="translate(438.33134 575.1104) rotate(1)" fill="black">
            <tspan font-family="Helvetica Neue" font-size="14" fill="black" x="0" y="13" xml:space="preserve">28</tspan>
          </text>
        </g>
        <g id="Graphic_519">
          <path d="M 467.1378 513.441 L 481.4711 513.441 C 485.3371 513.441 488.4711 516.575 488.4711 520.441 L 488.4711 534.441 C 488.4711 538.307 485.3371 541.441 481.4711 541.441 L 467.1378 541.441 C 463.2718 541.441 460.1378 538.307 460.1378 534.441 L 460.1378 520.441 C 460.1378 516.575 463.2718 513.441 467.1378 513.441 Z" fill="#f8bc51"/>
          <path d="M 467.1378 513.441 L 481.4711 513.441 C 485.3371 513.441 488.4711 516.575 488.4711 520.441 L 488.4711 534.441 C 488.4711 538.307 485.3371 541.441 481.4711 541.441 L 467.1378 541.441 C 463.2718 541.441 460.1378 538.307 460.1378 534.441 L 460.1378 520.441 C 460.1378 516.575 463.2718 513.441 467.1378 513.441 Z" stroke="gray" stroke-linecap="round" stroke-linejoin="round" stroke-width="1"/>
          <text transform="translate(466.6647 519.1104) rotate(1)" fill="black">
            <tspan font-family="Helvetica Neue" font-size="14" fill="black" x="0" y="13" xml:space="preserve">18</tspan>
          </text>
        </g>
        <g id="Graphic_518">
          <path d="M 410.4711 541.441 L 424.80445 541.441 C 428.67044 541.441 431.80445 544.575 431.80445 548.441 L 431.80445 562.441 C 431.80445 566.307 428.67044 569.441 424.80445 569.441 L 410.4711 569.441 C 406.6051 569.441 403.4711 566.307 403.4711 562.441 L 403.4711 548.441 C 403.4711 544.575 406.6051 541.441 410.4711 541.441 Z" fill="#f8bc51"/>
          <path d="M 410.4711 541.441 L 424.80445 541.441 C 428.67044 541.441 431.80445 544.575 431.80445 548.441 L 431.80445 562.441 C 431.80445 566.307 428.67044 569.441 424.80445 569.441 L 410.4711 569.441 C 406.6051 569.441 403.4711 566.307 403.4711 562.441 L 403.4711 548.441 C 403.4711 544.575 406.6051 541.441 410.4711 541.441 Z" stroke="gray" stroke-linecap="round" stroke-linejoin="round" stroke-width="1"/>
          <text transform="translate(409.998 547.1104) rotate(1)" fill="black">
            <tspan font-family="Helvetica Neue" font-size="14" fill="black" x="0" y="13" xml:space="preserve">22</tspan>
          </text>
        </g>
        <g id="Graphic_517"/>
        <g id="Graphic_516">
          <path d="M 438.80445 541.441 L 453.1378 541.441 C 457.0038 541.441 460.1378 544.575 460.1378 548.441 L 460.1378 562.441 C 460.1378 566.307 457.0038 569.441 453.1378 569.441 L 438.80445 569.441 C 434.93846 569.441 431.80445 566.307 431.80445 562.441 L 431.80445 548.441 C 431.80445 544.575 434.93846 541.441 438.80445 541.441 Z" fill="#f8bc51"/>
          <path d="M 438.80445 541.441 L 453.1378 541.441 C 457.0038 541.441 460.1378 544.575 460.1378 548.441 L 460.1378 562.441 C 460.1378 566.307 457.0038 569.441 453.1378 569.441 L 438.80445 569.441 C 434.93846 569.441 431.80445 566.307 431.80445 562.441 L 431.80445 548.441 C 431.80445 544.575 434.93846 541.441 438.80445 541.441 Z" stroke="gray" stroke-linecap="round" stroke-linejoin="round" stroke-width="1"/>
          <text transform="translate(438.33134 547.1104) rotate(1)" fill="black">
            <tspan font-family="Helvetica Neue" font-size="14" fill="black" x="0" y="13" xml:space="preserve">23</tspan>
          </text>
        </g>
        <g id="Graphic_515">
          <path d="M 382.1378 485.441 L 396.4711 485.441 C 400.3371 485.441 403.4711 488.575 403.4711 492.441 L 403.4711 506.441 C 403.4711 510.307 400.3371 513.441 396.4711 513.441 L 382.1378 513.441 C 378.2718 513.441 375.1378 510.307 375.1378 506.441 L 375.1378 492.441 C 375.1378 488.575 378.2718 485.441 382.1378 485.441 Z" fill="#f8bc51"/>
          <path d="M 382.1378 485.441 L 396.4711 485.441 C 400.3371 485.441 403.4711 488.575 403.4711 492.441 L 403.4711 506.441 C 403.4711 510.307 400.3371 513.441 396.4711 513.441 L 382.1378 513.441 C 378.2718 513.441 375.1378 510.307 375.1378 506.441 L 375.1378 492.441 C 375.1378 488.575 378.2718 485.441 382.1378 485.441 Z" stroke="gray" stroke-linecap="round" stroke-linejoin="round" stroke-width="1"/>
          <text transform="translate(385.5561 491.1783) rotate(1)" fill="black">
            <tspan font-family="Helvetica Neue" font-size="14" fill="black" x="0" y="13" xml:space="preserve">7</tspan>
          </text>
        </g>
        <g id="Graphic_514"/>
        <g id="Graphic_513"/>
        <g id="Graphic_512"/>
        <g id="Graphic_511">
          <path d="M 467.1378 541.441 L 481.4711 541.441 C 485.3371 541.441 488.4711 544.575 488.4711 548.441 L 488.4711 562.441 C 488.4711 566.307 485.3371 569.441 481.4711 569.441 L 467.1378 569.441 C 463.2718 569.441 460.1378 566.307 460.1378 562.441 L 460.1378 548.441 C 460.1378 544.575 463.2718 541.441 467.1378 541.441 Z" fill="#f8bc51"/>
          <path d="M 467.1378 541.441 L 481.4711 541.441 C 485.3371 541.441 488.4711 544.575 488.4711 548.441 L 488.4711 562.441 C 488.4711 566.307 485.3371 569.441 481.4711 569.441 L 467.1378 569.441 C 463.2718 569.441 460.1378 566.307 460.1378 562.441 L 460.1378 548.441 C 460.1378 544.575 463.2718 541.441 467.1378 541.441 Z" stroke="gray" stroke-linecap="round" stroke-linejoin="round" stroke-width="1"/>
          <text transform="translate(466.6647 547.1104) rotate(1)" fill="black">
            <tspan font-family="Helvetica Neue" font-size="14" fill="black" x="0" y="13" xml:space="preserve">25</tspan>
          </text>
        </g>
        <g id="Graphic_510">
          <path d="M 410.4711 569.441 L 424.80445 569.441 C 428.67044 569.441 431.80445 572.575 431.80445 576.441 L 431.80445 590.441 C 431.80445 594.307 428.67044 597.441 424.80445 597.441 L 410.4711 597.441 C 406.6051 597.441 403.4711 594.307 403.4711 590.441 L 403.4711 576.441 C 403.4711 572.575 406.6051 569.441 410.4711 569.441 Z" fill="#f8bc51"/>
          <path d="M 410.4711 569.441 L 424.80445 569.441 C 428.67044 569.441 431.80445 572.575 431.80445 576.441 L 431.80445 590.441 C 431.80445 594.307 428.67044 597.441 424.80445 597.441 L 410.4711 597.441 C 406.6051 597.441 403.4711 594.307 403.4711 590.441 L 403.4711 576.441 C 403.4711 572.575 406.6051 569.441 410.4711 569.441 Z" stroke="gray" stroke-linecap="round" stroke-linejoin="round" stroke-width="1"/>
          <text transform="translate(409.998 575.1104) rotate(1)" fill="black">
            <tspan font-family="Helvetica Neue" font-size="14" fill="black" x="0" y="13" xml:space="preserve">27</tspan>
          </text>
        </g>
        <g id="Graphic_509">
          <path d="M 410.4711 457.441 L 424.80445 457.441 C 428.67044 457.441 431.80445 460.575 431.80445 464.441 L 431.80445 478.441 C 431.80445 482.30697 428.67044 485.441 424.80445 485.441 L 410.4711 485.441 C 406.6051 485.441 403.4711 482.30697 403.4711 478.441 L 403.4711 464.441 C 403.4711 460.575 406.6051 457.441 410.4711 457.441 Z" fill="#f8bc51"/>
          <path d="M 410.4711 457.441 L 424.80445 457.441 C 428.67044 457.441 431.80445 460.575 431.80445 464.441 L 431.80445 478.441 C 431.80445 482.30697 428.67044 485.441 424.80445 485.441 L 410.4711 485.441 C 406.6051 485.441 403.4711 482.30697 403.4711 478.441 L 403.4711 464.441 C 403.4711 460.575 406.6051 457.441 410.4711 457.441 Z" stroke="gray" stroke-linecap="round" stroke-linejoin="round" stroke-width="1"/>
          <text transform="translate(413.8894 463.1783) rotate(1)" fill="black">
            <tspan font-family="Helvetica Neue" font-size="14" fill="black" x="0" y="13" xml:space="preserve">4</tspan>
          </text>
        </g>
        <g id="Graphic_508">
          <path d="M 382.1378 457.441 L 396.4711 457.441 C 400.3371 457.441 403.4711 460.575 403.4711 464.441 L 403.4711 478.441 C 403.4711 482.30697 400.3371 485.441 396.4711 485.441 L 382.1378 485.441 C 378.2718 485.441 375.1378 482.30697 375.1378 478.441 L 375.1378 464.441 C 375.1378 460.575 378.2718 457.441 382.1378 457.441 Z" fill="#f8bc51"/>
          <path d="M 382.1378 457.441 L 396.4711 457.441 C 400.3371 457.441 403.4711 460.575 403.4711 464.441 L 403.4711 478.441 C 403.4711 482.30697 400.3371 485.441 396.4711 485.441 L 382.1378 485.441 C 378.2718 485.441 375.1378 482.30697 375.1378 478.441 L 375.1378 464.441 C 375.1378 460.575 378.2718 457.441 382.1378 457.441 Z" stroke="gray" stroke-linecap="round" stroke-linejoin="round" stroke-width="1"/>
          <text transform="translate(385.5561 463.1783) rotate(1)" fill="black">
            <tspan font-family="Helvetica Neue" font-size="14" fill="black" x="0" y="13" xml:space="preserve">2</tspan>
          </text>
        </g>
        <g id="Graphic_507"/>
        <g id="Graphic_506">
          <path d="M 467.1378 485.441 L 481.4711 485.441 C 485.3371 485.441 488.4711 488.575 488.4711 492.441 L 488.4711 506.441 C 488.4711 510.307 485.3371 513.441 481.4711 513.441 L 467.1378 513.441 C 463.2718 513.441 460.1378 510.307 460.1378 506.441 L 460.1378 492.441 C 460.1378 488.575 463.2718 485.441 467.1378 485.441 Z" fill="#f8bc51"/>
          <path d="M 467.1378 485.441 L 481.4711 485.441 C 485.3371 485.441 488.4711 488.575 488.4711 492.441 L 488.4711 506.441 C 488.4711 510.307 485.3371 513.441 481.4711 513.441 L 467.1378 513.441 C 463.2718 513.441 460.1378 510.307 460.1378 506.441 L 460.1378 492.441 C 460.1378 488.575 463.2718 485.441 467.1378 485.441 Z" stroke="gray" stroke-linecap="round" stroke-linejoin="round" stroke-width="1"/>
          <text transform="translate(466.6647 491.1104) rotate(1)" fill="black">
            <tspan font-family="Helvetica Neue" font-size="14" fill="black" x="0" y="13" xml:space="preserve">10</tspan>
          </text>
        </g>
        <g id="Graphic_505"/>
        <g id="Graphic_504">
          <path d="M 382.1378 569.441 L 396.4711 569.441 C 400.3371 569.441 403.4711 572.575 403.4711 576.441 L 403.4711 590.441 C 403.4711 594.307 400.3371 597.441 396.4711 597.441 L 382.1378 597.441 C 378.2718 597.441 375.1378 594.307 375.1378 590.441 L 375.1378 576.441 C 375.1378 572.575 378.2718 569.441 382.1378 569.441 Z" fill="#7bcdf4"/>
          <path d="M 382.1378 569.441 L 396.4711 569.441 C 400.3371 569.441 403.4711 572.575 403.4711 576.441 L 403.4711 590.441 C 403.4711 594.307 400.3371 597.441 396.4711 597.441 L 382.1378 597.441 C 378.2718 597.441 375.1378 594.307 375.1378 590.441 L 375.1378 576.441 C 375.1378 572.575 378.2718 569.441 382.1378 569.441 Z" stroke="gray" stroke-linecap="round" stroke-linejoin="round" stroke-width="1"/>
          <text transform="translate(381.66468 575.1104) rotate(1)" fill="black">
            <tspan font-family="Helvetica Neue" font-size="14" fill="black" x="0" y="13" xml:space="preserve">26</tspan>
          </text>
        </g>
        <g id="Graphic_503"/>
        <g id="Graphic_502">
          <path d="M 438.80445 513.441 L 453.1378 513.441 C 457.0038 513.441 460.1378 516.575 460.1378 520.441 L 460.1378 534.441 C 460.1378 538.307 457.0038 541.441 453.1378 541.441 L 438.80445 541.441 C 434.93846 541.441 431.80445 538.307 431.80445 534.441 L 431.80445 520.441 C 431.80445 516.575 434.93846 513.441 438.80445 513.441 Z" fill="#7bcdf4"/>
          <path d="M 438.80445 513.441 L 453.1378 513.441 C 457.0038 513.441 460.1378 516.575 460.1378 520.441 L 460.1378 534.441 C 460.1378 538.307 457.0038 541.441 453.1378 541.441 L 438.80445 541.441 C 434.93846 541.441 431.80445 538.307 431.80445 534.441 L 431.80445 520.441 C 431.80445 516.575 434.93846 513.441 438.80445 513.441 Z" stroke="gray" stroke-linecap="round" stroke-linejoin="round" stroke-width="1"/>
          <text transform="translate(438.33134 519.1104) rotate(1)" fill="black">
            <tspan font-family="Helvetica Neue" font-size="14" fill="black" x="0" y="13" xml:space="preserve">16</tspan>
          </text>
        </g>
        <g id="Graphic_501">
          <path d="M 410.4711 485.441 L 424.80445 485.441 C 428.67044 485.441 431.80445 488.575 431.80445 492.441 L 431.80445 506.441 C 431.80445 510.307 428.67044 513.441 424.80445 513.441 L 410.4711 513.441 C 406.6051 513.441 403.4711 510.307 403.4711 506.441 L 403.4711 492.441 C 403.4711 488.575 406.6051 485.441 410.4711 485.441 Z" fill="#7bcdf4"/>
          <path d="M 410.4711 485.441 L 424.80445 485.441 C 428.67044 485.441 431.80445 488.575 431.80445 492.441 L 431.80445 506.441 C 431.80445 510.307 428.67044 513.441 424.80445 513.441 L 410.4711 513.441 C 406.6051 513.441 403.4711 510.307 403.4711 506.441 L 403.4711 492.441 C 403.4711 488.575 406.6051 485.441 410.4711 485.441 Z" stroke="gray" stroke-linecap="round" stroke-linejoin="round" stroke-width="1"/>
          <text transform="translate(413.8894 491.1783) rotate(1)" fill="black">
            <tspan font-family="Helvetica Neue" font-size="14" fill="black" x="0" y="13" xml:space="preserve">8</tspan>
          </text>
        </g>
        <g id="Graphic_500">
          <path d="M 438.80445 457.441 L 453.1378 457.441 C 457.0038 457.441 460.1378 460.575 460.1378 464.441 L 460.1378 478.441 C 460.1378 482.30697 457.0038 485.441 453.1378 485.441 L 438.80445 485.441 C 434.93846 485.441 431.80445 482.30697 431.80445 478.441 L 431.80445 464.441 C 431.80445 460.575 434.93846 457.441 438.80445 457.441 Z" fill="#7bcdf4"/>
          <path d="M 438.80445 457.441 L 453.1378 457.441 C 457.0038 457.441 460.1378 460.575 460.1378 464.441 L 460.1378 478.441 C 460.1378 482.30697 457.0038 485.441 453.1378 485.441 L 438.80445 485.441 C 434.93846 485.441 431.80445 482.30697 431.80445 478.441 L 431.80445 464.441 C 431.80445 460.575 434.93846 457.441 438.80445 457.441 Z" stroke="gray" stroke-linecap="round" stroke-linejoin="round" stroke-width="1"/>
          <text transform="translate(442.22275 463.1783) rotate(1)" fill="black">
            <tspan font-family="Helvetica Neue" font-size="14" fill="black" x="0" y="13" xml:space="preserve">5</tspan>
          </text>
        </g>
        <g id="Graphic_499">
          <path d="M 467.1378 569.441 L 481.4711 569.441 C 485.3371 569.441 488.4711 572.575 488.4711 576.441 L 488.4711 590.441 C 488.4711 594.307 485.3371 597.441 481.4711 597.441 L 467.1378 597.441 C 463.2718 597.441 460.1378 594.307 460.1378 590.441 L 460.1378 576.441 C 460.1378 572.575 463.2718 569.441 467.1378 569.441 Z" fill="#7bcdf4"/>
          <path d="M 467.1378 569.441 L 481.4711 569.441 C 485.3371 569.441 488.4711 572.575 488.4711 576.441 L 488.4711 590.441 C 488.4711 594.307 485.3371 597.441 481.4711 597.441 L 467.1378 597.441 C 463.2718 597.441 460.1378 594.307 460.1378 590.441 L 460.1378 576.441 C 460.1378 572.575 463.2718 569.441 467.1378 569.441 Z" stroke="gray" stroke-linecap="round" stroke-linejoin="round" stroke-width="1"/>
          <text transform="translate(466.6647 575.1104) rotate(1)" fill="black">
            <tspan font-family="Helvetica Neue" font-size="14" fill="black" x="0" y="13" xml:space="preserve">29</tspan>
          </text>
        </g>
        <g id="Graphic_498">
          <path d="M 382.1378 541.441 L 396.4711 541.441 C 400.3371 541.441 403.4711 544.575 403.4711 548.441 L 403.4711 562.441 C 403.4711 566.307 400.3371 569.441 396.4711 569.441 L 382.1378 569.441 C 378.2718 569.441 375.1378 566.307 375.1378 562.441 L 375.1378 548.441 C 375.1378 544.575 378.2718 541.441 382.1378 541.441 Z" fill="#7bcdf4"/>
          <path d="M 382.1378 541.441 L 396.4711 541.441 C 400.3371 541.441 403.4711 544.575 403.4711 548.441 L 403.4711 562.441 C 403.4711 566.307 400.3371 569.441 396.4711 569.441 L 382.1378 569.441 C 378.2718 569.441 375.1378 566.307 375.1378 562.441 L 375.1378 548.441 C 375.1378 544.575 378.2718 541.441 382.1378 541.441 Z" stroke="gray" stroke-linecap="round" stroke-linejoin="round" stroke-width="1"/>
          <text transform="translate(381.66468 547.1104) rotate(1)" fill="black">
            <tspan font-family="Helvetica Neue" font-size="14" fill="black" x="0" y="13" xml:space="preserve">20</tspan>
          </text>
        </g>
        <g id="Graphic_497"/>
        <g id="Graphic_496"/>
        <g id="Graphic_495">
          <path d="M 410.4711 513.441 L 424.80445 513.441 C 428.67044 513.441 431.80445 516.575 431.80445 520.441 L 431.80445 534.441 C 431.80445 538.307 428.67044 541.441 424.80445 541.441 L 410.4711 541.441 C 406.6051 541.441 403.4711 538.307 403.4711 534.441 L 403.4711 520.441 C 403.4711 516.575 406.6051 513.441 410.4711 513.441 Z" fill="#7bcdf4"/>
          <path d="M 410.4711 513.441 L 424.80445 513.441 C 428.67044 513.441 431.80445 516.575 431.80445 520.441 L 431.80445 534.441 C 431.80445 538.307 428.67044 541.441 424.80445 541.441 L 410.4711 541.441 C 406.6051 541.441 403.4711 538.307 403.4711 534.441 L 403.4711 520.441 C 403.4711 516.575 406.6051 513.441 410.4711 513.441 Z" stroke="gray" stroke-linecap="round" stroke-linejoin="round" stroke-width="1"/>
          <text transform="translate(409.998 519.1104) rotate(1)" fill="black">
            <tspan font-family="Helvetica Neue" font-size="14" fill="black" x="0" y="13" xml:space="preserve">13</tspan>
          </text>
        </g>
        <g id="Graphic_494">
          <path d="M 467.1378 457.441 L 481.4711 457.441 C 485.3371 457.441 488.4711 460.575 488.4711 464.441 L 488.4711 478.441 C 488.4711 482.30697 485.3371 485.441 481.4711 485.441 L 467.1378 485.441 C 463.2718 485.441 460.1378 482.30697 460.1378 478.441 L 460.1378 464.441 C 460.1378 460.575 463.2718 457.441 467.1378 457.441 Z" fill="#7bcdf4"/>
          <path d="M 467.1378 457.441 L 481.4711 457.441 C 485.3371 457.441 488.4711 460.575 488.4711 464.441 L 488.4711 478.441 C 488.4711 482.30697 485.3371 485.441 481.4711 485.441 L 467.1378 485.441 C 463.2718 485.441 460.1378 482.30697 460.1378 478.441 L 460.1378 464.441 C 460.1378 460.575 463.2718 457.441 467.1378 457.441 Z" stroke="gray" stroke-linecap="round" stroke-linejoin="round" stroke-width="1"/>
          <text transform="translate(470.5561 463.1783) rotate(1)" fill="black">
            <tspan font-family="Helvetica Neue" font-size="14" fill="black" x="0" y="13" xml:space="preserve">6</tspan>
          </text>
        </g>
        <g id="Graphic_493">
          <path d="M 438.80445 485.441 L 453.1378 485.441 C 457.0038 485.441 460.1378 488.575 460.1378 492.441 L 460.1378 506.441 C 460.1378 510.307 457.0038 513.441 453.1378 513.441 L 438.80445 513.441 C 434.93846 513.441 431.80445 510.307 431.80445 506.441 L 431.80445 492.441 C 431.80445 488.575 434.93846 485.441 438.80445 485.441 Z" fill="#7bcdf4"/>
          <path d="M 438.80445 485.441 L 453.1378 485.441 C 457.0038 485.441 460.1378 488.575 460.1378 492.441 L 460.1378 506.441 C 460.1378 510.307 457.0038 513.441 453.1378 513.441 L 438.80445 513.441 C 434.93846 513.441 431.80445 510.307 431.80445 506.441 L 431.80445 492.441 C 431.80445 488.575 434.93846 485.441 438.80445 485.441 Z" stroke="gray" stroke-linecap="round" stroke-linejoin="round" stroke-width="1"/>
          <text transform="translate(442.22275 491.1783) rotate(1)" fill="black">
            <tspan font-family="Helvetica Neue" font-size="14" fill="black" x="0" y="13" xml:space="preserve">9</tspan>
          </text>
        </g>
      </g>
      <g id="Group_461">
        <g id="Graphic_491"/>
        <g id="Graphic_490"/>
        <g id="Graphic_489">
          <path d="M 438.80445 734.441 L 453.1378 734.441 C 457.0038 734.441 460.1378 737.575 460.1378 741.441 L 460.1378 755.441 C 460.1378 759.307 457.0038 762.441 453.1378 762.441 L 438.80445 762.441 C 434.93846 762.441 431.80445 759.307 431.80445 755.441 L 431.80445 741.441 C 431.80445 737.575 434.93846 734.441 438.80445 734.441 Z" fill="#3fbfa0"/>
          <path d="M 438.80445 734.441 L 453.1378 734.441 C 457.0038 734.441 460.1378 737.575 460.1378 741.441 L 460.1378 755.441 C 460.1378 759.307 457.0038 762.441 453.1378 762.441 L 438.80445 762.441 C 434.93846 762.441 431.80445 759.307 431.80445 755.441 L 431.80445 741.441 C 431.80445 737.575 434.93846 734.441 438.80445 734.441 Z" stroke="gray" stroke-linecap="round" stroke-linejoin="round" stroke-width="1"/>
          <text transform="translate(438.33134 740.1104) rotate(1)" fill="white">
            <tspan font-family="Helvetica Neue" font-size="14" fill="white" x="0" y="13" xml:space="preserve">30</tspan>
          </text>
        </g>
        <g id="Graphic_488"/>
        <g id="Graphic_487">
          <path d="M 410.4711 706.441 L 424.80445 706.441 C 428.67044 706.441 431.80445 709.575 431.80445 713.441 L 431.80445 727.441 C 431.80445 731.307 428.67044 734.441 424.80445 734.441 L 410.4711 734.441 C 406.6051 734.441 403.4711 731.307 403.4711 727.441 L 403.4711 713.441 C 403.4711 709.575 406.6051 706.441 410.4711 706.441 Z" fill="#3fbfa0"/>
          <path d="M 410.4711 706.441 L 424.80445 706.441 C 428.67044 706.441 431.80445 709.575 431.80445 713.441 L 431.80445 727.441 C 431.80445 731.307 428.67044 734.441 424.80445 734.441 L 410.4711 734.441 C 406.6051 734.441 403.4711 731.307 403.4711 727.441 L 403.4711 713.441 C 403.4711 709.575 406.6051 706.441 410.4711 706.441 Z" stroke="gray" stroke-linecap="round" stroke-linejoin="round" stroke-width="1"/>
          <text transform="translate(409.998 712.1104) rotate(1)" fill="white">
            <tspan font-family="Helvetica Neue" font-size="14" fill="white" x="0" y="13" xml:space="preserve">19</tspan>
          </text>
        </g>
        <g id="Graphic_486"/>
        <g id="Graphic_485">
          <path d="M 438.80445 706.441 L 453.1378 706.441 C 457.0038 706.441 460.1378 709.575 460.1378 713.441 L 460.1378 727.441 C 460.1378 731.307 457.0038 734.441 453.1378 734.441 L 438.80445 734.441 C 434.93846 734.441 431.80445 731.307 431.80445 727.441 L 431.80445 713.441 C 431.80445 709.575 434.93846 706.441 438.80445 706.441 Z" fill="#3fbfa0"/>
          <path d="M 438.80445 706.441 L 453.1378 706.441 C 457.0038 706.441 460.1378 709.575 460.1378 713.441 L 460.1378 727.441 C 460.1378 731.307 457.0038 734.441 453.1378 734.441 L 438.80445 734.441 C 434.93846 734.441 431.80445 731.307 431.80445 727.441 L 431.80445 713.441 C 431.80445 709.575 434.93846 706.441 438.80445 706.441 Z" stroke="gray" stroke-linecap="round" stroke-linejoin="round" stroke-width="1"/>
          <text transform="translate(438.33134 712.1104) rotate(1)" fill="white">
            <tspan font-family="Helvetica Neue" font-size="14" fill="white" x="0" y="13" xml:space="preserve">21</tspan>
          </text>
        </g>
        <g id="Graphic_484"/>
        <g id="Graphic_483"/>
        <g id="Graphic_482"/>
        <g id="Graphic_481"/>
        <g id="Graphic_480"/>
        <g id="Graphic_479">
          <path d="M 410.4711 734.441 L 424.80445 734.441 C 428.67044 734.441 431.80445 737.575 431.80445 741.441 L 431.80445 755.441 C 431.80445 759.307 428.67044 762.441 424.80445 762.441 L 410.4711 762.441 C 406.6051 762.441 403.4711 759.307 403.4711 755.441 L 403.4711 741.441 C 403.4711 737.575 406.6051 734.441 410.4711 734.441 Z" fill="#3fbfa0"/>
          <path d="M 410.4711 734.441 L 424.80445 734.441 C 428.67044 734.441 431.80445 737.575 431.80445 741.441 L 431.80445 755.441 C 431.80445 759.307 428.67044 762.441 424.80445 762.441 L 410.4711 762.441 C 406.6051 762.441 403.4711 759.307 403.4711 755.441 L 403.4711 741.441 C 403.4711 737.575 406.6051 734.441 410.4711 734.441 Z" stroke="gray" stroke-linecap="round" stroke-linejoin="round" stroke-width="1"/>
          <text transform="translate(409.998 740.1104) rotate(1)" fill="white">
            <tspan font-family="Helvetica Neue" font-size="14" fill="white" x="0" y="13" xml:space="preserve">24</tspan>
          </text>
        </g>
        <g id="Graphic_478">
          <path d="M 410.4711 622.441 L 424.80445 622.441 C 428.67044 622.441 431.80445 625.575 431.80445 629.441 L 431.80445 643.441 C 431.80445 647.307 428.67044 650.441 424.80445 650.441 L 410.4711 650.441 C 406.6051 650.441 403.4711 647.307 403.4711 643.441 L 403.4711 629.441 C 403.4711 625.575 406.6051 622.441 410.4711 622.441 Z" fill="#3fbfa0"/>
          <path d="M 410.4711 622.441 L 424.80445 622.441 C 428.67044 622.441 431.80445 625.575 431.80445 629.441 L 431.80445 643.441 C 431.80445 647.307 428.67044 650.441 424.80445 650.441 L 410.4711 650.441 C 406.6051 650.441 403.4711 647.307 403.4711 643.441 L 403.4711 629.441 C 403.4711 625.575 406.6051 622.441 410.4711 622.441 Z" stroke="gray" stroke-linecap="round" stroke-linejoin="round" stroke-width="1"/>
          <text transform="translate(413.8894 628.1783) rotate(1)" fill="white">
            <tspan font-family="Helvetica Neue" font-size="14" fill="white" x="0" y="13" xml:space="preserve">1</tspan>
          </text>
        </g>
        <g id="Graphic_477"/>
        <g id="Graphic_476"/>
        <g id="Graphic_475"/>
        <g id="Graphic_474"/>
        <g id="Graphic_473"/>
        <g id="Graphic_472"/>
        <g id="Graphic_471">
          <path d="M 438.80445 678.441 L 453.1378 678.441 C 457.0038 678.441 460.1378 681.575 460.1378 685.441 L 460.1378 699.441 C 460.1378 703.307 457.0038 706.441 453.1378 706.441 L 438.80445 706.441 C 434.93846 706.441 431.80445 703.307 431.80445 699.441 L 431.80445 685.441 C 431.80445 681.575 434.93846 678.441 438.80445 678.441 Z" fill="#3fbfa0"/>
          <path d="M 438.80445 678.441 L 453.1378 678.441 C 457.0038 678.441 460.1378 681.575 460.1378 685.441 L 460.1378 699.441 C 460.1378 703.307 457.0038 706.441 453.1378 706.441 L 438.80445 706.441 C 434.93846 706.441 431.80445 703.307 431.80445 699.441 L 431.80445 685.441 C 431.80445 681.575 434.93846 678.441 438.80445 678.441 Z" stroke="gray" stroke-linecap="round" stroke-linejoin="round" stroke-width="1"/>
          <text transform="translate(438.33134 684.1104) rotate(1)" fill="white">
            <tspan font-family="Helvetica Neue" font-size="14" fill="white" x="0" y="13" xml:space="preserve">17</tspan>
          </text>
        </g>
        <g id="Graphic_470">
          <path d="M 410.4711 650.441 L 424.80445 650.441 C 428.67044 650.441 431.80445 653.575 431.80445 657.441 L 431.80445 671.441 C 431.80445 675.307 428.67044 678.441 424.80445 678.441 L 410.4711 678.441 C 406.6051 678.441 403.4711 675.307 403.4711 671.441 L 403.4711 657.441 C 403.4711 653.575 406.6051 650.441 410.4711 650.441 Z" fill="#3fbfa0"/>
          <path d="M 410.4711 650.441 L 424.80445 650.441 C 428.67044 650.441 431.80445 653.575 431.80445 657.441 L 431.80445 671.441 C 431.80445 675.307 428.67044 678.441 424.80445 678.441 L 410.4711 678.441 C 406.6051 678.441 403.4711 675.307 403.4711 671.441 L 403.4711 657.441 C 403.4711 653.575 406.6051 650.441 410.4711 650.441 Z" stroke="gray" stroke-linecap="round" stroke-linejoin="round" stroke-width="1"/>
          <text transform="translate(409.998 656.1104) rotate(1)" fill="white">
            <tspan font-family="Helvetica Neue" font-size="14" fill="white" x="0" y="13" xml:space="preserve">12</tspan>
          </text>
        </g>
        <g id="Graphic_469">
          <path d="M 438.80445 622.441 L 453.1378 622.441 C 457.0038 622.441 460.1378 625.575 460.1378 629.441 L 460.1378 643.441 C 460.1378 647.307 457.0038 650.441 453.1378 650.441 L 438.80445 650.441 C 434.93846 650.441 431.80445 647.307 431.80445 643.441 L 431.80445 629.441 C 431.80445 625.575 434.93846 622.441 438.80445 622.441 Z" fill="#3fbfa0"/>
          <path d="M 438.80445 622.441 L 453.1378 622.441 C 457.0038 622.441 460.1378 625.575 460.1378 629.441 L 460.1378 643.441 C 460.1378 647.307 457.0038 650.441 453.1378 650.441 L 438.80445 650.441 C 434.93846 650.441 431.80445 647.307 431.80445 643.441 L 431.80445 629.441 C 431.80445 625.575 434.93846 622.441 438.80445 622.441 Z" stroke="gray" stroke-linecap="round" stroke-linejoin="round" stroke-width="1"/>
          <text transform="translate(442.22275 628.1783) rotate(1)" fill="white">
            <tspan font-family="Helvetica Neue" font-size="14" fill="white" x="0" y="13" xml:space="preserve">3</tspan>
          </text>
        </g>
        <g id="Graphic_468"/>
        <g id="Graphic_467"/>
        <g id="Graphic_466"/>
        <g id="Graphic_465"/>
        <g id="Graphic_464">
          <path d="M 410.4711 678.441 L 424.80445 678.441 C 428.67044 678.441 431.80445 681.575 431.80445 685.441 L 431.80445 699.441 C 431.80445 703.307 428.67044 706.441 424.80445 706.441 L 410.4711 706.441 C 406.6051 706.441 403.4711 703.307 403.4711 699.441 L 403.4711 685.441 C 403.4711 681.575 406.6051 678.441 410.4711 678.441 Z" fill="#3fbfa0"/>
          <path d="M 410.4711 678.441 L 424.80445 678.441 C 428.67044 678.441 431.80445 681.575 431.80445 685.441 L 431.80445 699.441 C 431.80445 703.307 428.67044 706.441 424.80445 706.441 L 410.4711 706.441 C 406.6051 706.441 403.4711 703.307 403.4711 699.441 L 403.4711 685.441 C 403.4711 681.575 406.6051 678.441 410.4711 678.441 Z" stroke="gray" stroke-linecap="round" stroke-linejoin="round" stroke-width="1"/>
          <text transform="translate(409.998 684.1104) rotate(1)" fill="white">
            <tspan font-family="Helvetica Neue" font-size="14" fill="white" x="0" y="13" xml:space="preserve">15</tspan>
          </text>
        </g>
        <g id="Graphic_463"/>
        <g id="Graphic_462">
          <path d="M 438.80445 650.441 L 453.1378 650.441 C 457.0038 650.441 460.1378 653.575 460.1378 657.441 L 460.1378 671.441 C 460.1378 675.307 457.0038 678.441 453.1378 678.441 L 438.80445 678.441 C 434.93846 678.441 431.80445 675.307 431.80445 671.441 L 431.80445 657.441 C 431.80445 653.575 434.93846 650.441 438.80445 650.441 Z" fill="#3fbfa0"/>
          <path d="M 438.80445 650.441 L 453.1378 650.441 C 457.0038 650.441 460.1378 653.575 460.1378 657.441 L 460.1378 671.441 C 460.1378 675.307 457.0038 678.441 453.1378 678.441 L 438.80445 678.441 C 434.93846 678.441 431.80445 675.307 431.80445 671.441 L 431.80445 657.441 C 431.80445 653.575 434.93846 650.441 438.80445 650.441 Z" stroke="gray" stroke-linecap="round" stroke-linejoin="round" stroke-width="1"/>
          <text transform="translate(438.33134 656.1104) rotate(1)" fill="white">
            <tspan font-family="Helvetica Neue" font-size="14" fill="white" x="0" y="13" xml:space="preserve">14</tspan>
          </text>
        </g>
      </g>
      <g id="Line_460">
        <line x1="376.80445" y1="442.441" x2="486.80445" y2="442.441" stroke="black" stroke-linecap="round" stroke-linejoin="round" stroke-width="1.3"/>
      </g>
      <g id="Line_459">
        <line x1="355.80445" y1="599.441" x2="355.80445" y2="459.441" stroke="black" stroke-linecap="round" stroke-linejoin="round" stroke-width="1.3"/>
      </g>
      <g id="Line_458">
        <line x1="355.80445" y1="758.441" x2="355.80445" y2="618.441" stroke="black" stroke-linecap="round" stroke-linejoin="round" stroke-width="1.3"/>
      </g>
      <g id="Line_457">
        <line x1="171.68466" y1="579.493" x2="221.88466" y2="579.493" marker-end="url(#FilledArrow_Marker)" stroke="black" stroke-linecap="round" stroke-linejoin="round" stroke-width="1.3"/>
      </g>
      <g id="Group_599">
        <g id="Graphic_613">
          <path d="M 806.8271 434.68097 L 821.1605 434.68097 C 825.0265 434.68097 828.1605 437.815 828.1605 441.68097 L 828.1605 455.68097 C 828.1605 459.54696 825.0265 462.68097 821.1605 462.68097 L 806.8271 462.68097 C 802.9611 462.68097 799.8271 459.54696 799.8271 455.68097 L 799.8271 441.68097 C 799.8271 437.815 802.9611 434.68097 806.8271 434.68097 Z" fill="#f8bc51"/>
          <path d="M 806.8271 434.68097 L 821.1605 434.68097 C 825.0265 434.68097 828.1605 437.815 828.1605 441.68097 L 828.1605 455.68097 C 828.1605 459.54696 825.0265 462.68097 821.1605 462.68097 L 806.8271 462.68097 C 802.9611 462.68097 799.8271 459.54696 799.8271 455.68097 L 799.8271 441.68097 C 799.8271 437.815 802.9611 434.68097 806.8271 434.68097 Z" stroke="gray" stroke-linecap="round" stroke-linejoin="round" stroke-width="1"/>
          <text transform="translate(806.354 440.35037) rotate(1)" fill="black">
            <tspan font-family="Helvetica Neue" font-size="14" fill="black" x="0" y="13" xml:space="preserve">11</tspan>
          </text>
        </g>
        <g id="Graphic_612">
          <path d="M 777.4938 491.36896 L 791.8271 491.36896 C 795.6931 491.36896 798.8271 494.50296 798.8271 498.36896 L 798.8271 512.36896 C 798.8271 516.23495 795.6931 519.36896 791.8271 519.36896 L 777.4938 519.36896 C 773.6278 519.36896 770.4938 516.23495 770.4938 512.36896 L 770.4938 498.36896 C 770.4938 494.50296 773.6278 491.36896 777.4938 491.36896 Z" fill="#7bcdf4"/>
          <path d="M 777.4938 491.36896 L 791.8271 491.36896 C 795.6931 491.36896 798.8271 494.50296 798.8271 498.36896 L 798.8271 512.36896 C 798.8271 516.23495 795.6931 519.36896 791.8271 519.36896 L 777.4938 519.36896 C 773.6278 519.36896 770.4938 516.23495 770.4938 512.36896 L 770.4938 498.36896 C 770.4938 494.50296 773.6278 491.36896 777.4938 491.36896 Z" stroke="gray" stroke-linecap="round" stroke-linejoin="round" stroke-width="1"/>
          <text transform="translate(777.0207 497.03836) rotate(1)" fill="black">
            <tspan font-family="Helvetica Neue" font-size="14" fill="black" x="0" y="13" xml:space="preserve">28</tspan>
          </text>
        </g>
        <g id="Graphic_611">
          <path d="M 863.4938 434.68097 L 877.8271 434.68097 C 881.6931 434.68097 884.8271 437.815 884.8271 441.68097 L 884.8271 455.68097 C 884.8271 459.54696 881.6931 462.68097 877.8271 462.68097 L 863.4938 462.68097 C 859.6278 462.68097 856.4938 459.54696 856.4938 455.68097 L 856.4938 441.68097 C 856.4938 437.815 859.6278 434.68097 863.4938 434.68097 Z" fill="#f8bc51"/>
          <path d="M 863.4938 434.68097 L 877.8271 434.68097 C 881.6931 434.68097 884.8271 437.815 884.8271 441.68097 L 884.8271 455.68097 C 884.8271 459.54696 881.6931 462.68097 877.8271 462.68097 L 863.4938 462.68097 C 859.6278 462.68097 856.4938 459.54696 856.4938 455.68097 L 856.4938 441.68097 C 856.4938 437.815 859.6278 434.68097 863.4938 434.68097 Z" stroke="gray" stroke-linecap="round" stroke-linejoin="round" stroke-width="1"/>
          <text transform="translate(863.0207 440.35037) rotate(1)" fill="black">
            <tspan font-family="Helvetica Neue" font-size="14" fill="black" x="0" y="13" xml:space="preserve">18</tspan>
          </text>
        </g>
        <g id="Graphic_610">
          <path d="M 806.8271 463.02496 L 821.1605 463.02496 C 825.0265 463.02496 828.1605 466.15897 828.1605 470.02496 L 828.1605 484.02496 C 828.1605 487.89095 825.0265 491.02496 821.1605 491.02496 L 806.8271 491.02496 C 802.9611 491.02496 799.8271 487.89095 799.8271 484.02496 L 799.8271 470.02496 C 799.8271 466.15897 802.9611 463.02496 806.8271 463.02496 Z" fill="#f8bc51"/>
          <path d="M 806.8271 463.02496 L 821.1605 463.02496 C 825.0265 463.02496 828.1605 466.15897 828.1605 470.02496 L 828.1605 484.02496 C 828.1605 487.89095 825.0265 491.02496 821.1605 491.02496 L 806.8271 491.02496 C 802.9611 491.02496 799.8271 487.89095 799.8271 484.02496 L 799.8271 470.02496 C 799.8271 466.15897 802.9611 463.02496 806.8271 463.02496 Z" stroke="gray" stroke-linecap="round" stroke-linejoin="round" stroke-width="1"/>
          <text transform="translate(806.354 468.69436) rotate(1)" fill="black">
            <tspan font-family="Helvetica Neue" font-size="14" fill="black" x="0" y="13" xml:space="preserve">22</tspan>
          </text>
        </g>
        <g id="Graphic_609">
          <path d="M 834.1605 462.50897 L 848.4938 462.50897 C 852.3598 462.50897 855.4938 465.643 855.4938 469.50897 L 855.4938 483.50897 C 855.4938 487.37496 852.3598 490.50897 848.4938 490.50897 L 834.1605 490.50897 C 830.2945 490.50897 827.1605 487.37496 827.1605 483.50897 L 827.1605 469.50897 C 827.1605 465.643 830.2945 462.50897 834.1605 462.50897 Z" fill="#f8bc51"/>
          <path d="M 834.1605 462.50897 L 848.4938 462.50897 C 852.3598 462.50897 855.4938 465.643 855.4938 469.50897 L 855.4938 483.50897 C 855.4938 487.37496 852.3598 490.50897 848.4938 490.50897 L 834.1605 490.50897 C 830.2945 490.50897 827.1605 487.37496 827.1605 483.50897 L 827.1605 469.50897 C 827.1605 465.643 830.2945 462.50897 834.1605 462.50897 Z" stroke="gray" stroke-linecap="round" stroke-linejoin="round" stroke-width="1"/>
          <text transform="translate(833.6874 468.17837) rotate(1)" fill="black">
            <tspan font-family="Helvetica Neue" font-size="14" fill="black" x="0" y="13" xml:space="preserve">23</tspan>
          </text>
        </g>
        <g id="Graphic_608">
          <path d="M 862.4938 463.02496 L 876.8271 463.02496 C 880.6931 463.02496 883.8271 466.15897 883.8271 470.02496 L 883.8271 484.02496 C 883.8271 487.89095 880.6931 491.02496 876.8271 491.02496 L 862.4938 491.02496 C 858.6278 491.02496 855.4938 487.89095 855.4938 484.02496 L 855.4938 470.02496 C 855.4938 466.15897 858.6278 463.02496 862.4938 463.02496 Z" fill="#f8bc51"/>
          <path d="M 862.4938 463.02496 L 876.8271 463.02496 C 880.6931 463.02496 883.8271 466.15897 883.8271 470.02496 L 883.8271 484.02496 C 883.8271 487.89095 880.6931 491.02496 876.8271 491.02496 L 862.4938 491.02496 C 858.6278 491.02496 855.4938 487.89095 855.4938 484.02496 L 855.4938 470.02496 C 855.4938 466.15897 858.6278 463.02496 862.4938 463.02496 Z" stroke="gray" stroke-linecap="round" stroke-linejoin="round" stroke-width="1"/>
          <text transform="translate(862.0207 468.69436) rotate(1)" fill="black">
            <tspan font-family="Helvetica Neue" font-size="14" fill="black" x="0" y="13" xml:space="preserve">27</tspan>
          </text>
        </g>
        <g id="Graphic_607">
          <path d="M 777.4938 406.68097 L 791.8271 406.68097 C 795.6931 406.68097 798.8271 409.81497 798.8271 413.68097 L 798.8271 427.68097 C 798.8271 431.54696 795.6931 434.68097 791.8271 434.68097 L 777.4938 434.68097 C 773.6278 434.68097 770.4938 431.54696 770.4938 427.68097 L 770.4938 413.68097 C 770.4938 409.81497 773.6278 406.68097 777.4938 406.68097 Z" fill="#f8bc51"/>
          <path d="M 777.4938 406.68097 L 791.8271 406.68097 C 795.6931 406.68097 798.8271 409.81497 798.8271 413.68097 L 798.8271 427.68097 C 798.8271 431.54696 795.6931 434.68097 791.8271 434.68097 L 777.4938 434.68097 C 773.6278 434.68097 770.4938 431.54696 770.4938 427.68097 L 770.4938 413.68097 C 770.4938 409.81497 773.6278 406.68097 777.4938 406.68097 Z" stroke="gray" stroke-linecap="round" stroke-linejoin="round" stroke-width="1"/>
          <text transform="translate(780.9121 412.4183) rotate(1)" fill="black">
            <tspan font-family="Helvetica Neue" font-size="14" fill="black" x="0" y="13" xml:space="preserve">2</tspan>
          </text>
        </g>
        <g id="Graphic_606">
          <path d="M 777.4938 434.68097 L 791.8271 434.68097 C 795.6931 434.68097 798.8271 437.815 798.8271 441.68097 L 798.8271 455.68097 C 798.8271 459.54696 795.6931 462.68097 791.8271 462.68097 L 777.4938 462.68097 C 773.6278 462.68097 770.4938 459.54696 770.4938 455.68097 L 770.4938 441.68097 C 770.4938 437.815 773.6278 434.68097 777.4938 434.68097 Z" fill="#f8bc51"/>
          <path d="M 777.4938 434.68097 L 791.8271 434.68097 C 795.6931 434.68097 798.8271 437.815 798.8271 441.68097 L 798.8271 455.68097 C 798.8271 459.54696 795.6931 462.68097 791.8271 462.68097 L 777.4938 462.68097 C 773.6278 462.68097 770.4938 459.54696 770.4938 455.68097 L 770.4938 441.68097 C 770.4938 437.815 773.6278 434.68097 777.4938 434.68097 Z" stroke="gray" stroke-linecap="round" stroke-linejoin="round" stroke-width="1"/>
          <text transform="translate(777.0207 440.35037) rotate(1)" fill="black">
            <tspan font-family="Helvetica Neue" font-size="14" fill="black" x="0" y="13" xml:space="preserve">10</tspan>
          </text>
        </g>
        <g id="Graphic_605">
          <path d="M 834.1605 434.68097 L 848.4938 434.68097 C 852.3598 434.68097 855.4938 437.815 855.4938 441.68097 L 855.4938 455.68097 C 855.4938 459.54696 852.3598 462.68097 848.4938 462.68097 L 834.1605 462.68097 C 830.2945 462.68097 827.1605 459.54696 827.1605 455.68097 L 827.1605 441.68097 C 827.1605 437.815 830.2945 434.68097 834.1605 434.68097 Z" fill="#7bcdf4"/>
          <path d="M 834.1605 434.68097 L 848.4938 434.68097 C 852.3598 434.68097 855.4938 437.815 855.4938 441.68097 L 855.4938 455.68097 C 855.4938 459.54696 852.3598 462.68097 848.4938 462.68097 L 834.1605 462.68097 C 830.2945 462.68097 827.1605 459.54696 827.1605 455.68097 L 827.1605 441.68097 C 827.1605 437.815 830.2945 434.68097 834.1605 434.68097 Z" stroke="gray" stroke-linecap="round" stroke-linejoin="round" stroke-width="1"/>
          <text transform="translate(833.6874 440.35037) rotate(1)" fill="black">
            <tspan font-family="Helvetica Neue" font-size="14" fill="black" x="0" y="13" xml:space="preserve">16</tspan>
          </text>
        </g>
        <g id="Graphic_604">
          <path d="M 864.4938 406.33697 L 878.8271 406.33697 C 882.6931 406.33697 885.8271 409.471 885.8271 413.33697 L 885.8271 427.33697 C 885.8271 431.20297 882.6931 434.33697 878.8271 434.33697 L 864.4938 434.33697 C 860.6278 434.33697 857.4938 431.20297 857.4938 427.33697 L 857.4938 413.33697 C 857.4938 409.471 860.6278 406.33697 864.4938 406.33697 Z" fill="#7bcdf4"/>
          <path d="M 864.4938 406.33697 L 878.8271 406.33697 C 882.6931 406.33697 885.8271 409.471 885.8271 413.33697 L 885.8271 427.33697 C 885.8271 431.20297 882.6931 434.33697 878.8271 434.33697 L 864.4938 434.33697 C 860.6278 434.33697 857.4938 431.20297 857.4938 427.33697 L 857.4938 413.33697 C 857.4938 409.471 860.6278 406.33697 864.4938 406.33697 Z" stroke="gray" stroke-linecap="round" stroke-linejoin="round" stroke-width="1"/>
          <text transform="translate(867.9121 412.0743) rotate(1)" fill="black">
            <tspan font-family="Helvetica Neue" font-size="14" fill="black" x="0" y="13" xml:space="preserve">8</tspan>
          </text>
        </g>
        <g id="Graphic_603">
          <path d="M 805.8271 406.33697 L 820.1605 406.33697 C 824.0265 406.33697 827.1605 409.471 827.1605 413.33697 L 827.1605 427.33697 C 827.1605 431.20297 824.0265 434.33697 820.1605 434.33697 L 805.8271 434.33697 C 801.9611 434.33697 798.8271 431.20297 798.8271 427.33697 L 798.8271 413.33697 C 798.8271 409.471 801.9611 406.33697 805.8271 406.33697 Z" fill="#7bcdf4"/>
          <path d="M 805.8271 406.33697 L 820.1605 406.33697 C 824.0265 406.33697 827.1605 409.471 827.1605 413.33697 L 827.1605 427.33697 C 827.1605 431.20297 824.0265 434.33697 820.1605 434.33697 L 805.8271 434.33697 C 801.9611 434.33697 798.8271 431.20297 798.8271 427.33697 L 798.8271 413.33697 C 798.8271 409.471 801.9611 406.33697 805.8271 406.33697 Z" stroke="gray" stroke-linecap="round" stroke-linejoin="round" stroke-width="1"/>
          <text transform="translate(809.2454 412.0743) rotate(1)" fill="black">
            <tspan font-family="Helvetica Neue" font-size="14" fill="black" x="0" y="13" xml:space="preserve">5</tspan>
          </text>
        </g>
        <g id="Graphic_602">
          <path d="M 806.8271 491.36896 L 821.1605 491.36896 C 825.0265 491.36896 828.1605 494.50296 828.1605 498.36896 L 828.1605 512.36896 C 828.1605 516.23495 825.0265 519.36896 821.1605 519.36896 L 806.8271 519.36896 C 802.9611 519.36896 799.8271 516.23495 799.8271 512.36896 L 799.8271 498.36896 C 799.8271 494.50296 802.9611 491.36896 806.8271 491.36896 Z" fill="#7bcdf4"/>
          <path d="M 806.8271 491.36896 L 821.1605 491.36896 C 825.0265 491.36896 828.1605 494.50296 828.1605 498.36896 L 828.1605 512.36896 C 828.1605 516.23495 825.0265 519.36896 821.1605 519.36896 L 806.8271 519.36896 C 802.9611 519.36896 799.8271 516.23495 799.8271 512.36896 L 799.8271 498.36896 C 799.8271 494.50296 802.9611 491.36896 806.8271 491.36896 Z" stroke="gray" stroke-linecap="round" stroke-linejoin="round" stroke-width="1"/>
          <text transform="translate(806.354 497.03836) rotate(1)" fill="black">
            <tspan font-family="Helvetica Neue" font-size="14" fill="black" x="0" y="13" xml:space="preserve">29</tspan>
          </text>
        </g>
        <g id="Graphic_601">
          <path d="M 777.4938 463.02496 L 791.8271 463.02496 C 795.6931 463.02496 798.8271 466.15897 798.8271 470.02496 L 798.8271 484.02496 C 798.8271 487.89095 795.6931 491.02496 791.8271 491.02496 L 777.4938 491.02496 C 773.6278 491.02496 770.4938 487.89095 770.4938 484.02496 L 770.4938 470.02496 C 770.4938 466.15897 773.6278 463.02496 777.4938 463.02496 Z" fill="#7bcdf4"/>
          <path d="M 777.4938 463.02496 L 791.8271 463.02496 C 795.6931 463.02496 798.8271 466.15897 798.8271 470.02496 L 798.8271 484.02496 C 798.8271 487.89095 795.6931 491.02496 791.8271 491.02496 L 777.4938 491.02496 C 773.6278 491.02496 770.4938 487.89095 770.4938 484.02496 L 770.4938 470.02496 C 770.4938 466.15897 773.6278 463.02496 777.4938 463.02496 Z" stroke="gray" stroke-linecap="round" stroke-linejoin="round" stroke-width="1"/>
          <text transform="translate(777.0207 468.69436) rotate(1)" fill="black">
            <tspan font-family="Helvetica Neue" font-size="14" fill="black" x="0" y="13" xml:space="preserve">20</tspan>
          </text>
        </g>
        <g id="Graphic_600">
          <path d="M 835.1605 406.68097 L 849.4938 406.68097 C 853.3598 406.68097 856.4938 409.81497 856.4938 413.68097 L 856.4938 427.68097 C 856.4938 431.54696 853.3598 434.68097 849.4938 434.68097 L 835.1605 434.68097 C 831.2945 434.68097 828.1605 431.54696 828.1605 427.68097 L 828.1605 413.68097 C 828.1605 409.81497 831.2945 406.68097 835.1605 406.68097 Z" fill="#7bcdf4"/>
          <path d="M 835.1605 406.68097 L 849.4938 406.68097 C 853.3598 406.68097 856.4938 409.81497 856.4938 413.68097 L 856.4938 427.68097 C 856.4938 431.54696 853.3598 434.68097 849.4938 434.68097 L 835.1605 434.68097 C 831.2945 434.68097 828.1605 431.54696 828.1605 427.68097 L 828.1605 413.68097 C 828.1605 409.81497 831.2945 406.68097 835.1605 406.68097 Z" stroke="gray" stroke-linecap="round" stroke-linejoin="round" stroke-width="1"/>
          <text transform="translate(838.5788 412.4183) rotate(1)" fill="black">
            <tspan font-family="Helvetica Neue" font-size="14" fill="black" x="0" y="13" xml:space="preserve">6</tspan>
          </text>
        </g>
      </g>
      <g id="Group_592">
        <g id="Graphic_598">
          <path d="M 820.9938 583.441 L 835.3271 583.441 C 839.1931 583.441 842.3271 586.575 842.3271 590.441 L 842.3271 604.441 C 842.3271 608.307 839.1931 611.441 835.3271 611.441 L 820.9938 611.441 C 817.1278 611.441 813.9938 608.307 813.9938 604.441 L 813.9938 590.441 C 813.9938 586.575 817.1278 583.441 820.9938 583.441 Z" fill="#f8bc51"/>
          <path d="M 820.9938 583.441 L 835.3271 583.441 C 839.1931 583.441 842.3271 586.575 842.3271 590.441 L 842.3271 604.441 C 842.3271 608.307 839.1931 611.441 835.3271 611.441 L 820.9938 611.441 C 817.1278 611.441 813.9938 608.307 813.9938 604.441 L 813.9938 590.441 C 813.9938 586.575 817.1278 583.441 820.9938 583.441 Z" stroke="gray" stroke-linecap="round" stroke-linejoin="round" stroke-width="1"/>
          <text transform="translate(824.4121 589.1783) rotate(1)" fill="black">
            <tspan font-family="Helvetica Neue" font-size="14" fill="black" x="0" y="13" xml:space="preserve">7</tspan>
          </text>
        </g>
        <g id="Graphic_597">
          <path d="M 820.9938 611.785 L 835.3271 611.785 C 839.1931 611.785 842.3271 614.919 842.3271 618.785 L 842.3271 632.785 C 842.3271 636.651 839.1931 639.785 835.3271 639.785 L 820.9938 639.785 C 817.1278 639.785 813.9938 636.651 813.9938 632.785 L 813.9938 618.785 C 813.9938 614.919 817.1278 611.785 820.9938 611.785 Z" fill="#f8bc51"/>
          <path d="M 820.9938 611.785 L 835.3271 611.785 C 839.1931 611.785 842.3271 614.919 842.3271 618.785 L 842.3271 632.785 C 842.3271 636.651 839.1931 639.785 835.3271 639.785 L 820.9938 639.785 C 817.1278 639.785 813.9938 636.651 813.9938 632.785 L 813.9938 618.785 C 813.9938 614.919 817.1278 611.785 820.9938 611.785 Z" stroke="gray" stroke-linecap="round" stroke-linejoin="round" stroke-width="1"/>
          <text transform="translate(820.5207 617.4544) rotate(1)" fill="black">
            <tspan font-family="Helvetica Neue" font-size="14" fill="black" x="0" y="13" xml:space="preserve">25</tspan>
          </text>
        </g>
        <g id="Graphic_596">
          <path d="M 791.6605 583.785 L 805.9938 583.785 C 809.8598 583.785 812.9938 586.919 812.9938 590.785 L 812.9938 604.785 C 812.9938 608.651 809.8598 611.785 805.9938 611.785 L 791.6605 611.785 C 787.7945 611.785 784.6605 608.651 784.6605 604.785 L 784.6605 590.785 C 784.6605 586.919 787.7945 583.785 791.6605 583.785 Z" fill="#f8bc51"/>
          <path d="M 791.6605 583.785 L 805.9938 583.785 C 809.8598 583.785 812.9938 586.919 812.9938 590.785 L 812.9938 604.785 C 812.9938 608.651 809.8598 611.785 805.9938 611.785 L 791.6605 611.785 C 787.7945 611.785 784.6605 608.651 784.6605 604.785 L 784.6605 590.785 C 784.6605 586.919 787.7945 583.785 791.6605 583.785 Z" stroke="gray" stroke-linecap="round" stroke-linejoin="round" stroke-width="1"/>
          <text transform="translate(795.0788 589.5223) rotate(1)" fill="black">
            <tspan font-family="Helvetica Neue" font-size="14" fill="black" x="0" y="13" xml:space="preserve">4</tspan>
          </text>
        </g>
        <g id="Graphic_595">
          <path d="M 850.3271 611.785 L 864.6605 611.785 C 868.5265 611.785 871.6605 614.919 871.6605 618.785 L 871.6605 632.785 C 871.6605 636.651 868.5265 639.785 864.6605 639.785 L 850.3271 639.785 C 846.4611 639.785 843.3271 636.651 843.3271 632.785 L 843.3271 618.785 C 843.3271 614.919 846.4611 611.785 850.3271 611.785 Z" fill="#7bcdf4"/>
          <path d="M 850.3271 611.785 L 864.6605 611.785 C 868.5265 611.785 871.6605 614.919 871.6605 618.785 L 871.6605 632.785 C 871.6605 636.651 868.5265 639.785 864.6605 639.785 L 850.3271 639.785 C 846.4611 639.785 843.3271 636.651 843.3271 632.785 L 843.3271 618.785 C 843.3271 614.919 846.4611 611.785 850.3271 611.785 Z" stroke="gray" stroke-linecap="round" stroke-linejoin="round" stroke-width="1"/>
          <text transform="translate(849.854 617.4544) rotate(1)" fill="black">
            <tspan font-family="Helvetica Neue" font-size="14" fill="black" x="0" y="13" xml:space="preserve">26</tspan>
          </text>
        </g>
        <g id="Graphic_594">
          <path d="M 791.6605 611.785 L 805.9938 611.785 C 809.8598 611.785 812.9938 614.919 812.9938 618.785 L 812.9938 632.785 C 812.9938 636.651 809.8598 639.785 805.9938 639.785 L 791.6605 639.785 C 787.7945 639.785 784.6605 636.651 784.6605 632.785 L 784.6605 618.785 C 784.6605 614.919 787.7945 611.785 791.6605 611.785 Z" fill="#7bcdf4"/>
          <path d="M 791.6605 611.785 L 805.9938 611.785 C 809.8598 611.785 812.9938 614.919 812.9938 618.785 L 812.9938 632.785 C 812.9938 636.651 809.8598 639.785 805.9938 639.785 L 791.6605 639.785 C 787.7945 639.785 784.6605 636.651 784.6605 632.785 L 784.6605 618.785 C 784.6605 614.919 787.7945 611.785 791.6605 611.785 Z" stroke="gray" stroke-linecap="round" stroke-linejoin="round" stroke-width="1"/>
          <text transform="translate(791.1874 617.4544) rotate(1)" fill="black">
            <tspan font-family="Helvetica Neue" font-size="14" fill="black" x="0" y="13" xml:space="preserve">13</tspan>
          </text>
        </g>
        <g id="Graphic_593">
          <path d="M 850.3271 583.441 L 864.6605 583.441 C 868.5265 583.441 871.6605 586.575 871.6605 590.441 L 871.6605 604.441 C 871.6605 608.307 868.5265 611.441 864.6605 611.441 L 850.3271 611.441 C 846.4611 611.441 843.3271 608.307 843.3271 604.441 L 843.3271 590.441 C 843.3271 586.575 846.4611 583.441 850.3271 583.441 Z" fill="#7bcdf4"/>
          <path d="M 850.3271 583.441 L 864.6605 583.441 C 868.5265 583.441 871.6605 586.575 871.6605 590.441 L 871.6605 604.441 C 871.6605 608.307 868.5265 611.441 864.6605 611.441 L 850.3271 611.441 C 846.4611 611.441 843.3271 608.307 843.3271 604.441 L 843.3271 590.441 C 843.3271 586.575 846.4611 583.441 850.3271 583.441 Z" stroke="gray" stroke-linecap="round" stroke-linejoin="round" stroke-width="1"/>
          <text transform="translate(853.7454 589.1783) rotate(1)" fill="black">
            <tspan font-family="Helvetica Neue" font-size="14" fill="black" x="0" y="13" xml:space="preserve">9</tspan>
          </text>
        </g>
      </g>
      <g id="Graphic_591">
        <text transform="translate(641.8874 435.373)" fill="black">
          <tspan font-family="Helvetica Neue" font-size="16" fill="black" x="32.40613" y="15" xml:space="preserve">New</tspan>
          <tspan font-family="Helvetica Neue" font-size="16" fill="black" x="4.8381295" y="33.448" xml:space="preserve">Analysis Set</tspan>
          <tspan font-family="Helvetica Neue" font-size="16" fill="black" x="5.5741295" y="51.895996" xml:space="preserve">(approx 2/3)</tspan>
        </text>
      </g>
      <g id="Graphic_590">
        <text transform="translate(640.42954 583.941)" fill="black">
          <tspan font-family="Helvetica Neue" font-size="16" fill="black" x="11.336" y="15" xml:space="preserve">Calibration </tspan>
          <tspan font-family="Helvetica Neue" font-size="16" fill="black" x="38" y="33.448" xml:space="preserve">Set</tspan>
          <tspan font-family="Helvetica Neue" font-size="16" fill="black" x="7.032" y="51.895996" xml:space="preserve">(approx 1/3)</tspan>
        </text>
      </g>
      <g id="Line_589">
        <line x1="756.7327" y1="522.613" x2="756.7327" y2="382.61297" stroke="black" stroke-linecap="round" stroke-linejoin="round" stroke-width="1.3"/>
      </g>
      <g id="Line_588">
        <line x1="756.7327" y1="681.613" x2="756.7327" y2="541.613" stroke="black" stroke-linecap="round" stroke-linejoin="round" stroke-width="1.3"/>
      </g>
      <g id="Line_614">
        <line x1="172.35466" y1="580.163" x2="222.55466" y2="580.163" marker-end="url(#FilledArrow_Marker)" stroke="black" stroke-linecap="round" stroke-linejoin="round" stroke-width="1.3"/>
      </g>
      <g id="Line_615">
        <line x1="552.5171" y1="531.613" x2="602.7171" y2="531.613" marker-end="url(#FilledArrow_Marker)" stroke="black" stroke-linecap="round" stroke-linejoin="round" stroke-width="1.3"/>
      </g>
    </g>
  </g>
</svg>
