<?xml version="1.0" encoding="UTF-8" standalone="no"?>
<!DOCTYPE svg PUBLIC "-//W3C//DTD SVG 1.1//EN" "http://www.w3.org/Graphics/SVG/1.1/DTD/svg11.dtd">
<svg xmlns:xl="http://www.w3.org/1999/xlink" xmlns:dc="http://purl.org/dc/elements/1.1/" version="1.1" xmlns="http://www.w3.org/2000/svg" viewBox="-63.86055 -399.8101 991.33 495" width="991.33" height="495">
  <defs>
    <marker orient="auto" overflow="visible" markerUnits="strokeWidth" id="FilledArrow_Marker" stroke-linejoin="miter" stroke-miterlimit="10" viewBox="-1 -4 9 8" markerWidth="9" markerHeight="8" color="black">
      <g>
        <path d="M 6.523077 0 L 0 -2.446154 L 0 2.446154 Z" fill="currentColor" stroke="currentColor" stroke-width="1"/>
      </g>
    </marker>
  </defs>
  <g id="Canvas_1" fill="none" stroke-dasharray="none" fill-opacity="1" stroke="none" stroke-opacity="1">
    <title>Canvas 1</title>
    <g id="Canvas_1_Layer_1">
      <title>Layer 1</title>
      <g id="Graphic_260">
        <text transform="translate(594.6872 -228.03212)" fill="black">
          <tspan font-family="Helvetica Neue" font-size="16" fill="black" x="8.52" y="15" xml:space="preserve">Analysis </tspan>
          <tspan font-family="Helvetica Neue" font-size="16" fill="black" x="22" y="33.448" xml:space="preserve">Sets</tspan>
          <tspan font-family="Helvetica Neue" font-size="16" fill="black" x="22.296" y="51.895996" xml:space="preserve">(2/3)</tspan>
        </text>
      </g>
      <g id="Graphic_259">
        <text transform="translate(581.68723 -76.03212)" fill="black">
          <tspan font-family="Helvetica Neue" font-size="16" fill="black" x="4.932" y="15" xml:space="preserve">Assessment </tspan>
          <tspan font-family="Helvetica Neue" font-size="16" fill="black" x="32.5" y="33.448" xml:space="preserve">Sets</tspan>
          <tspan font-family="Helvetica Neue" font-size="16" fill="black" x="32.796" y="51.895996" xml:space="preserve">(1/3)</tspan>
        </text>
      </g>
      <g id="Graphic_258">
        <text transform="translate(734.3192 -330.9281)" fill="black">
          <tspan font-family="Helvetica Neue" font-size="16" fill="black" x="6.808" y="15" xml:space="preserve">Fold 1</tspan>
          <tspan font-family="Helvetica Neue" font-size="16" fill="black" x="0" y="33.448" xml:space="preserve">Iteration</tspan>
        </text>
      </g>
      <g id="Group_225">
        <g id="Graphic_255">
          <path d="M 49.32549 -166.48011 L 63.658826 -166.48011 C 67.52482 -166.48011 70.658826 -163.3461 70.658826 -159.48011 L 70.658826 -145.48011 C 70.658826 -141.61412 67.52482 -138.48011 63.658826 -138.48011 L 49.32549 -138.48011 C 45.4595 -138.48011 42.32549 -141.61412 42.32549 -145.48011 L 42.32549 -159.48011 C 42.32549 -163.3461 45.4595 -166.48011 49.32549 -166.48011 Z" stroke="gray" stroke-linecap="round" stroke-linejoin="round" stroke-width="1"/>
          <text transform="translate(48.852385 -160.81071) rotate(1)" fill="black">
            <tspan font-family="Helvetica Neue" font-size="14" fill="black" x="0" y="13" xml:space="preserve">14</tspan>
          </text>
        </g>
        <g id="Graphic_254">
          <path d="M 162.65883 -166.48011 L 176.99216 -166.48011 C 180.85815 -166.48011 183.99216 -163.3461 183.99216 -159.48011 L 183.99216 -145.48011 C 183.99216 -141.61412 180.85815 -138.48011 176.99216 -138.48011 L 162.65883 -138.48011 C 158.79283 -138.48011 155.65883 -141.61412 155.65883 -145.48011 L 155.65883 -159.48011 C 155.65883 -163.3461 158.79283 -166.48011 162.65883 -166.48011 Z" stroke="gray" stroke-linecap="round" stroke-linejoin="round" stroke-width="1"/>
          <text transform="translate(162.18572 -160.81071) rotate(1)" fill="black">
            <tspan font-family="Helvetica Neue" font-size="14" fill="black" x="0" y="13" xml:space="preserve">18</tspan>
          </text>
        </g>
        <g id="Graphic_253">
          <path d="M 105.99216 -110.48011 L 120.32549 -110.48011 C 124.19149 -110.48011 127.3255 -107.34611 127.3255 -103.48011 L 127.3255 -89.48011 C 127.3255 -85.61412 124.19149 -82.48011 120.32549 -82.48011 L 105.99216 -82.48011 C 102.12617 -82.48011 98.99216 -85.61412 98.99216 -89.48011 L 98.99216 -103.48011 C 98.99216 -107.34611 102.12617 -110.48011 105.99216 -110.48011 Z" stroke="gray" stroke-linecap="round" stroke-linejoin="round" stroke-width="1"/>
          <text transform="translate(105.51905 -104.81071) rotate(1)" fill="black">
            <tspan font-family="Helvetica Neue" font-size="14" fill="black" x="0" y="13" xml:space="preserve">28</tspan>
          </text>
        </g>
        <g id="Graphic_252">
          <path d="M 134.3255 -166.48011 L 148.65883 -166.48011 C 152.52482 -166.48011 155.65883 -163.3461 155.65883 -159.48011 L 155.65883 -145.48011 C 155.65883 -141.61412 152.52482 -138.48011 148.65883 -138.48011 L 134.3255 -138.48011 C 130.4595 -138.48011 127.3255 -141.61412 127.3255 -145.48011 L 127.3255 -159.48011 C 127.3255 -163.3461 130.4595 -166.48011 134.3255 -166.48011 Z" stroke="gray" stroke-linecap="round" stroke-linejoin="round" stroke-width="1"/>
          <text transform="translate(133.85238 -160.81071) rotate(1)" fill="black">
            <tspan font-family="Helvetica Neue" font-size="14" fill="black" x="0" y="13" xml:space="preserve">17</tspan>
          </text>
        </g>
        <g id="Graphic_251">
          <path d="M 77.65883 -138.48011 L 91.99216 -138.48011 C 95.85815 -138.48011 98.99216 -135.3461 98.99216 -131.48011 L 98.99216 -117.48011 C 98.99216 -113.61412 95.85815 -110.48011 91.99216 -110.48011 L 77.65883 -110.48011 C 73.79283 -110.48011 70.658826 -113.61412 70.658826 -117.48011 L 70.658826 -131.48011 C 70.658826 -135.3461 73.79283 -138.48011 77.65883 -138.48011 Z" stroke="gray" stroke-linecap="round" stroke-linejoin="round" stroke-width="1"/>
          <text transform="translate(77.18572 -132.81071) rotate(1)" fill="black">
            <tspan font-family="Helvetica Neue" font-size="14" fill="black" x="0" y="13" xml:space="preserve">21</tspan>
          </text>
        </g>
        <g id="Graphic_250">
          <path d="M 20.99216 -110.48011 L 35.325492 -110.48011 C 39.191486 -110.48011 42.32549 -107.34611 42.32549 -103.48011 L 42.32549 -89.48011 C 42.32549 -85.61412 39.191486 -82.48011 35.325492 -82.48011 L 20.99216 -82.48011 C 17.126166 -82.48011 13.992159 -85.61412 13.992159 -89.48011 L 13.992159 -103.48011 C 13.992159 -107.34611 17.126166 -110.48011 20.99216 -110.48011 Z" stroke="gray" stroke-linecap="round" stroke-linejoin="round" stroke-width="1"/>
          <text transform="translate(20.519051 -104.81071) rotate(1)" fill="black">
            <tspan font-family="Helvetica Neue" font-size="14" fill="black" x="0" y="13" xml:space="preserve">25</tspan>
          </text>
        </g>
        <g id="Graphic_249">
          <path d="M 105.99216 -138.48011 L 120.32549 -138.48011 C 124.19149 -138.48011 127.3255 -135.3461 127.3255 -131.48011 L 127.3255 -117.48011 C 127.3255 -113.61412 124.19149 -110.48011 120.32549 -110.48011 L 105.99216 -110.48011 C 102.12617 -110.48011 98.99216 -113.61412 98.99216 -117.48011 L 98.99216 -131.48011 C 98.99216 -135.3461 102.12617 -138.48011 105.99216 -138.48011 Z" stroke="gray" stroke-linecap="round" stroke-linejoin="round" stroke-width="1"/>
          <text transform="translate(105.51905 -132.81071) rotate(1)" fill="black">
            <tspan font-family="Helvetica Neue" font-size="14" fill="black" x="0" y="13" xml:space="preserve">22</tspan>
          </text>
        </g>
        <g id="Graphic_248">
          <path d="M 49.32549 -194.48011 L 63.658826 -194.48011 C 67.52482 -194.48011 70.658826 -191.3461 70.658826 -187.48011 L 70.658826 -173.48011 C 70.658826 -169.61412 67.52482 -166.48011 63.658826 -166.48011 L 49.32549 -166.48011 C 45.4595 -166.48011 42.32549 -169.61412 42.32549 -173.48011 L 42.32549 -187.48011 C 42.32549 -191.3461 45.4595 -194.48011 49.32549 -194.48011 Z" stroke="gray" stroke-linecap="round" stroke-linejoin="round" stroke-width="1"/>
          <text transform="translate(52.74379 -188.7428) rotate(1)" fill="black">
            <tspan font-family="Helvetica Neue" font-size="14" fill="black" x="0" y="13" xml:space="preserve">8</tspan>
          </text>
        </g>
        <g id="Graphic_247">
          <path d="M 162.65883 -222.48011 L 176.99216 -222.48011 C 180.85815 -222.48011 183.99216 -219.3461 183.99216 -215.48011 L 183.99216 -201.48011 C 183.99216 -197.61412 180.85815 -194.48011 176.99216 -194.48011 L 162.65883 -194.48011 C 158.79283 -194.48011 155.65883 -197.61412 155.65883 -201.48011 L 155.65883 -215.48011 C 155.65883 -219.3461 158.79283 -222.48011 162.65883 -222.48011 Z" stroke="gray" stroke-linecap="round" stroke-linejoin="round" stroke-width="1"/>
          <text transform="translate(166.07713 -216.7428) rotate(1)" fill="black">
            <tspan font-family="Helvetica Neue" font-size="14" fill="black" x="0" y="13" xml:space="preserve">6</tspan>
          </text>
        </g>
        <g id="Graphic_246">
          <path d="M 162.65883 -110.48011 L 176.99216 -110.48011 C 180.85815 -110.48011 183.99216 -107.34611 183.99216 -103.48011 L 183.99216 -89.48011 C 183.99216 -85.61412 180.85815 -82.48011 176.99216 -82.48011 L 162.65883 -82.48011 C 158.79283 -82.48011 155.65883 -85.61412 155.65883 -89.48011 L 155.65883 -103.48011 C 155.65883 -107.34611 158.79283 -110.48011 162.65883 -110.48011 Z" stroke="gray" stroke-linecap="round" stroke-linejoin="round" stroke-width="1"/>
          <text transform="translate(162.18572 -104.81071) rotate(1)" fill="black">
            <tspan font-family="Helvetica Neue" font-size="14" fill="black" x="0" y="13" xml:space="preserve">30</tspan>
          </text>
        </g>
        <g id="Graphic_245">
          <path d="M 20.99216 -222.48011 L 35.325492 -222.48011 C 39.191486 -222.48011 42.32549 -219.3461 42.32549 -215.48011 L 42.32549 -201.48011 C 42.32549 -197.61412 39.191486 -194.48011 35.325492 -194.48011 L 20.99216 -194.48011 C 17.126166 -194.48011 13.992159 -197.61412 13.992159 -201.48011 L 13.992159 -215.48011 C 13.992159 -219.3461 17.126166 -222.48011 20.99216 -222.48011 Z" stroke="gray" stroke-linecap="round" stroke-linejoin="round" stroke-width="1"/>
          <text transform="translate(24.41046 -216.7428) rotate(1)" fill="black">
            <tspan font-family="Helvetica Neue" font-size="14" fill="black" x="0" y="13" xml:space="preserve">1</tspan>
          </text>
        </g>
        <g id="Graphic_244">
          <path d="M 134.3255 -138.48011 L 148.65883 -138.48011 C 152.52482 -138.48011 155.65883 -135.3461 155.65883 -131.48011 L 155.65883 -117.48011 C 155.65883 -113.61412 152.52482 -110.48011 148.65883 -110.48011 L 134.3255 -110.48011 C 130.4595 -110.48011 127.3255 -113.61412 127.3255 -117.48011 L 127.3255 -131.48011 C 127.3255 -135.3461 130.4595 -138.48011 134.3255 -138.48011 Z" stroke="gray" stroke-linecap="round" stroke-linejoin="round" stroke-width="1"/>
          <text transform="translate(133.85238 -132.81071) rotate(1)" fill="black">
            <tspan font-family="Helvetica Neue" font-size="14" fill="black" x="0" y="13" xml:space="preserve">23</tspan>
          </text>
        </g>
        <g id="Graphic_243">
          <path d="M 77.65883 -110.48011 L 91.99216 -110.48011 C 95.85815 -110.48011 98.99216 -107.34611 98.99216 -103.48011 L 98.99216 -89.48011 C 98.99216 -85.61412 95.85815 -82.48011 91.99216 -82.48011 L 77.65883 -82.48011 C 73.79283 -82.48011 70.658826 -85.61412 70.658826 -89.48011 L 70.658826 -103.48011 C 70.658826 -107.34611 73.79283 -110.48011 77.65883 -110.48011 Z" stroke="gray" stroke-linecap="round" stroke-linejoin="round" stroke-width="1"/>
          <text transform="translate(77.18572 -104.81071) rotate(1)" fill="black">
            <tspan font-family="Helvetica Neue" font-size="14" fill="black" x="0" y="13" xml:space="preserve">27</tspan>
          </text>
        </g>
        <g id="Graphic_242">
          <path d="M 77.65883 -222.48011 L 91.99216 -222.48011 C 95.85815 -222.48011 98.99216 -219.3461 98.99216 -215.48011 L 98.99216 -201.48011 C 98.99216 -197.61412 95.85815 -194.48011 91.99216 -194.48011 L 77.65883 -194.48011 C 73.79283 -194.48011 70.658826 -197.61412 70.658826 -201.48011 L 70.658826 -215.48011 C 70.658826 -219.3461 73.79283 -222.48011 77.65883 -222.48011 Z" stroke="gray" stroke-linecap="round" stroke-linejoin="round" stroke-width="1"/>
          <text transform="translate(81.07713 -216.7428) rotate(1)" fill="black">
            <tspan font-family="Helvetica Neue" font-size="14" fill="black" x="0" y="13" xml:space="preserve">3</tspan>
          </text>
        </g>
        <g id="Graphic_241">
          <path d="M 49.32549 -222.48011 L 63.658826 -222.48011 C 67.52482 -222.48011 70.658826 -219.3461 70.658826 -215.48011 L 70.658826 -201.48011 C 70.658826 -197.61412 67.52482 -194.48011 63.658826 -194.48011 L 49.32549 -194.48011 C 45.4595 -194.48011 42.32549 -197.61412 42.32549 -201.48011 L 42.32549 -215.48011 C 42.32549 -219.3461 45.4595 -222.48011 49.32549 -222.48011 Z" stroke="gray" stroke-linecap="round" stroke-linejoin="round" stroke-width="1"/>
          <text transform="translate(52.74379 -216.7428) rotate(1)" fill="black">
            <tspan font-family="Helvetica Neue" font-size="14" fill="black" x="0" y="13" xml:space="preserve">2</tspan>
          </text>
        </g>
        <g id="Graphic_240">
          <path d="M 20.99216 -138.48011 L 35.325492 -138.48011 C 39.191486 -138.48011 42.32549 -135.3461 42.32549 -131.48011 L 42.32549 -117.48011 C 42.32549 -113.61412 39.191486 -110.48011 35.325492 -110.48011 L 20.99216 -110.48011 C 17.126166 -110.48011 13.992159 -113.61412 13.992159 -117.48011 L 13.992159 -131.48011 C 13.992159 -135.3461 17.126166 -138.48011 20.99216 -138.48011 Z" stroke="gray" stroke-linecap="round" stroke-linejoin="round" stroke-width="1"/>
          <text transform="translate(20.519051 -132.81071) rotate(1)" fill="black">
            <tspan font-family="Helvetica Neue" font-size="14" fill="black" x="0" y="13" xml:space="preserve">19</tspan>
          </text>
        </g>
        <g id="Graphic_239">
          <path d="M 134.3255 -194.48011 L 148.65883 -194.48011 C 152.52482 -194.48011 155.65883 -191.3461 155.65883 -187.48011 L 155.65883 -173.48011 C 155.65883 -169.61412 152.52482 -166.48011 148.65883 -166.48011 L 134.3255 -166.48011 C 130.4595 -166.48011 127.3255 -169.61412 127.3255 -173.48011 L 127.3255 -187.48011 C 127.3255 -191.3461 130.4595 -194.48011 134.3255 -194.48011 Z" stroke="gray" stroke-linecap="round" stroke-linejoin="round" stroke-width="1"/>
          <text transform="translate(133.85238 -188.81071) rotate(1)" fill="black">
            <tspan font-family="Helvetica Neue" font-size="14" fill="black" x="0" y="13" xml:space="preserve">11</tspan>
          </text>
        </g>
        <g id="Graphic_238">
          <path d="M 20.99216 -194.48011 L 35.325492 -194.48011 C 39.191486 -194.48011 42.32549 -191.3461 42.32549 -187.48011 L 42.32549 -173.48011 C 42.32549 -169.61412 39.191486 -166.48011 35.325492 -166.48011 L 20.99216 -166.48011 C 17.126166 -166.48011 13.992159 -169.61412 13.992159 -173.48011 L 13.992159 -187.48011 C 13.992159 -191.3461 17.126166 -194.48011 20.99216 -194.48011 Z" stroke="gray" stroke-linecap="round" stroke-linejoin="round" stroke-width="1"/>
          <text transform="translate(24.41046 -188.7428) rotate(1)" fill="black">
            <tspan font-family="Helvetica Neue" font-size="14" fill="black" x="0" y="13" xml:space="preserve">7</tspan>
          </text>
        </g>
        <g id="Graphic_237">
          <path d="M 49.32549 -110.48011 L 63.658826 -110.48011 C 67.52482 -110.48011 70.658826 -107.34611 70.658826 -103.48011 L 70.658826 -89.48011 C 70.658826 -85.61412 67.52482 -82.48011 63.658826 -82.48011 L 49.32549 -82.48011 C 45.4595 -82.48011 42.32549 -85.61412 42.32549 -89.48011 L 42.32549 -103.48011 C 42.32549 -107.34611 45.4595 -110.48011 49.32549 -110.48011 Z" stroke="gray" stroke-linecap="round" stroke-linejoin="round" stroke-width="1"/>
          <text transform="translate(48.852385 -104.81071) rotate(1)" fill="black">
            <tspan font-family="Helvetica Neue" font-size="14" fill="black" x="0" y="13" xml:space="preserve">26</tspan>
          </text>
        </g>
        <g id="Graphic_236">
          <path d="M 162.65883 -138.48011 L 176.99216 -138.48011 C 180.85815 -138.48011 183.99216 -135.3461 183.99216 -131.48011 L 183.99216 -117.48011 C 183.99216 -113.61412 180.85815 -110.48011 176.99216 -110.48011 L 162.65883 -110.48011 C 158.79283 -110.48011 155.65883 -113.61412 155.65883 -117.48011 L 155.65883 -131.48011 C 155.65883 -135.3461 158.79283 -138.48011 162.65883 -138.48011 Z" stroke="gray" stroke-linecap="round" stroke-linejoin="round" stroke-width="1"/>
          <text transform="translate(162.18572 -132.81071) rotate(1)" fill="black">
            <tspan font-family="Helvetica Neue" font-size="14" fill="black" x="0" y="13" xml:space="preserve">24</tspan>
          </text>
        </g>
        <g id="Graphic_235">
          <path d="M 105.99216 -166.48011 L 120.32549 -166.48011 C 124.19149 -166.48011 127.3255 -163.3461 127.3255 -159.48011 L 127.3255 -145.48011 C 127.3255 -141.61412 124.19149 -138.48011 120.32549 -138.48011 L 105.99216 -138.48011 C 102.12617 -138.48011 98.99216 -141.61412 98.99216 -145.48011 L 98.99216 -159.48011 C 98.99216 -163.3461 102.12617 -166.48011 105.99216 -166.48011 Z" stroke="gray" stroke-linecap="round" stroke-linejoin="round" stroke-width="1"/>
          <text transform="translate(105.51905 -160.81071) rotate(1)" fill="black">
            <tspan font-family="Helvetica Neue" font-size="14" fill="black" x="0" y="13" xml:space="preserve">16</tspan>
          </text>
        </g>
        <g id="Graphic_234">
          <path d="M 77.65883 -194.48011 L 91.99216 -194.48011 C 95.85815 -194.48011 98.99216 -191.3461 98.99216 -187.48011 L 98.99216 -173.48011 C 98.99216 -169.61412 95.85815 -166.48011 91.99216 -166.48011 L 77.65883 -166.48011 C 73.79283 -166.48011 70.658826 -169.61412 70.658826 -173.48011 L 70.658826 -187.48011 C 70.658826 -191.3461 73.79283 -194.48011 77.65883 -194.48011 Z" stroke="gray" stroke-linecap="round" stroke-linejoin="round" stroke-width="1"/>
          <text transform="translate(81.07713 -188.7428) rotate(1)" fill="black">
            <tspan font-family="Helvetica Neue" font-size="14" fill="black" x="0" y="13" xml:space="preserve">9</tspan>
          </text>
        </g>
        <g id="Graphic_233">
          <path d="M 105.99216 -222.48011 L 120.32549 -222.48011 C 124.19149 -222.48011 127.3255 -219.3461 127.3255 -215.48011 L 127.3255 -201.48011 C 127.3255 -197.61412 124.19149 -194.48011 120.32549 -194.48011 L 105.99216 -194.48011 C 102.12617 -194.48011 98.99216 -197.61412 98.99216 -201.48011 L 98.99216 -215.48011 C 98.99216 -219.3461 102.12617 -222.48011 105.99216 -222.48011 Z" stroke="gray" stroke-linecap="round" stroke-linejoin="round" stroke-width="1"/>
          <text transform="translate(109.41046 -216.7428) rotate(1)" fill="black">
            <tspan font-family="Helvetica Neue" font-size="14" fill="black" x="0" y="13" xml:space="preserve">4</tspan>
          </text>
        </g>
        <g id="Graphic_232">
          <path d="M 134.3255 -110.48011 L 148.65883 -110.48011 C 152.52482 -110.48011 155.65883 -107.34611 155.65883 -103.48011 L 155.65883 -89.48011 C 155.65883 -85.61412 152.52482 -82.48011 148.65883 -82.48011 L 134.3255 -82.48011 C 130.4595 -82.48011 127.3255 -85.61412 127.3255 -89.48011 L 127.3255 -103.48011 C 127.3255 -107.34611 130.4595 -110.48011 134.3255 -110.48011 Z" stroke="gray" stroke-linecap="round" stroke-linejoin="round" stroke-width="1"/>
          <text transform="translate(133.85238 -104.81071) rotate(1)" fill="black">
            <tspan font-family="Helvetica Neue" font-size="14" fill="black" x="0" y="13" xml:space="preserve">29</tspan>
          </text>
        </g>
        <g id="Graphic_231">
          <path d="M 49.32549 -138.48011 L 63.658826 -138.48011 C 67.52482 -138.48011 70.658826 -135.3461 70.658826 -131.48011 L 70.658826 -117.48011 C 70.658826 -113.61412 67.52482 -110.48011 63.658826 -110.48011 L 49.32549 -110.48011 C 45.4595 -110.48011 42.32549 -113.61412 42.32549 -117.48011 L 42.32549 -131.48011 C 42.32549 -135.3461 45.4595 -138.48011 49.32549 -138.48011 Z" stroke="gray" stroke-linecap="round" stroke-linejoin="round" stroke-width="1"/>
          <text transform="translate(48.852385 -132.81071) rotate(1)" fill="black">
            <tspan font-family="Helvetica Neue" font-size="14" fill="black" x="0" y="13" xml:space="preserve">20</tspan>
          </text>
        </g>
        <g id="Graphic_230">
          <path d="M 162.65883 -194.48011 L 176.99216 -194.48011 C 180.85815 -194.48011 183.99216 -191.3461 183.99216 -187.48011 L 183.99216 -173.48011 C 183.99216 -169.61412 180.85815 -166.48011 176.99216 -166.48011 L 162.65883 -166.48011 C 158.79283 -166.48011 155.65883 -169.61412 155.65883 -173.48011 L 155.65883 -187.48011 C 155.65883 -191.3461 158.79283 -194.48011 162.65883 -194.48011 Z" stroke="gray" stroke-linecap="round" stroke-linejoin="round" stroke-width="1"/>
          <text transform="translate(162.18572 -188.81071) rotate(1)" fill="black">
            <tspan font-family="Helvetica Neue" font-size="14" fill="black" x="0" y="13" xml:space="preserve">12</tspan>
          </text>
        </g>
        <g id="Graphic_229">
          <path d="M 20.99216 -166.48011 L 35.325492 -166.48011 C 39.191486 -166.48011 42.32549 -163.3461 42.32549 -159.48011 L 42.32549 -145.48011 C 42.32549 -141.61412 39.191486 -138.48011 35.325492 -138.48011 L 20.99216 -138.48011 C 17.126166 -138.48011 13.992159 -141.61412 13.992159 -145.48011 L 13.992159 -159.48011 C 13.992159 -163.3461 17.126166 -166.48011 20.99216 -166.48011 Z" stroke="gray" stroke-linecap="round" stroke-linejoin="round" stroke-width="1"/>
          <text transform="translate(20.519051 -160.81071) rotate(1)" fill="black">
            <tspan font-family="Helvetica Neue" font-size="14" fill="black" x="0" y="13" xml:space="preserve">13</tspan>
          </text>
        </g>
        <g id="Graphic_228">
          <path d="M 77.65883 -166.48011 L 91.99216 -166.48011 C 95.85815 -166.48011 98.99216 -163.3461 98.99216 -159.48011 L 98.99216 -145.48011 C 98.99216 -141.61412 95.85815 -138.48011 91.99216 -138.48011 L 77.65883 -138.48011 C 73.79283 -138.48011 70.658826 -141.61412 70.658826 -145.48011 L 70.658826 -159.48011 C 70.658826 -163.3461 73.79283 -166.48011 77.65883 -166.48011 Z" stroke="gray" stroke-linecap="round" stroke-linejoin="round" stroke-width="1"/>
          <text transform="translate(77.18572 -160.81071) rotate(1)" fill="black">
            <tspan font-family="Helvetica Neue" font-size="14" fill="black" x="0" y="13" xml:space="preserve">15</tspan>
          </text>
        </g>
        <g id="Graphic_227">
          <path d="M 134.3255 -222.48011 L 148.65883 -222.48011 C 152.52482 -222.48011 155.65883 -219.3461 155.65883 -215.48011 L 155.65883 -201.48011 C 155.65883 -197.61412 152.52482 -194.48011 148.65883 -194.48011 L 134.3255 -194.48011 C 130.4595 -194.48011 127.3255 -197.61412 127.3255 -201.48011 L 127.3255 -215.48011 C 127.3255 -219.3461 130.4595 -222.48011 134.3255 -222.48011 Z" stroke="gray" stroke-linecap="round" stroke-linejoin="round" stroke-width="1"/>
          <text transform="translate(137.7438 -216.7428) rotate(1)" fill="black">
            <tspan font-family="Helvetica Neue" font-size="14" fill="black" x="0" y="13" xml:space="preserve">5</tspan>
          </text>
        </g>
        <g id="Graphic_226">
          <path d="M 105.99216 -194.48011 L 120.32549 -194.48011 C 124.19149 -194.48011 127.3255 -191.3461 127.3255 -187.48011 L 127.3255 -173.48011 C 127.3255 -169.61412 124.19149 -166.48011 120.32549 -166.48011 L 105.99216 -166.48011 C 102.12617 -166.48011 98.99216 -169.61412 98.99216 -173.48011 L 98.99216 -187.48011 C 98.99216 -191.3461 102.12617 -194.48011 105.99216 -194.48011 Z" stroke="gray" stroke-linecap="round" stroke-linejoin="round" stroke-width="1"/>
          <text transform="translate(105.51905 -188.81071) rotate(1)" fill="black">
            <tspan font-family="Helvetica Neue" font-size="14" fill="black" x="0" y="13" xml:space="preserve">10</tspan>
          </text>
        </g>
      </g>
      <g id="Group_194">
        <g id="Graphic_224">
          <path d="M 310.3255 -166.48011 L 324.65883 -166.48011 C 328.5248 -166.48011 331.65883 -163.3461 331.65883 -159.48011 L 331.65883 -145.48011 C 331.65883 -141.61412 328.5248 -138.48011 324.65883 -138.48011 L 310.3255 -138.48011 C 306.4595 -138.48011 303.3255 -141.61412 303.3255 -145.48011 L 303.3255 -159.48011 C 303.3255 -163.3461 306.4595 -166.48011 310.3255 -166.48011 Z" fill="#3fbfa0"/>
          <path d="M 310.3255 -166.48011 L 324.65883 -166.48011 C 328.5248 -166.48011 331.65883 -163.3461 331.65883 -159.48011 L 331.65883 -145.48011 C 331.65883 -141.61412 328.5248 -138.48011 324.65883 -138.48011 L 310.3255 -138.48011 C 306.4595 -138.48011 303.3255 -141.61412 303.3255 -145.48011 L 303.3255 -159.48011 C 303.3255 -163.3461 306.4595 -166.48011 310.3255 -166.48011 Z" stroke="gray" stroke-linecap="round" stroke-linejoin="round" stroke-width="1"/>
          <text transform="translate(309.8524 -160.81071) rotate(1)" fill="white">
            <tspan font-family="Helvetica Neue" font-size="14" fill="white" x="0" y="13" xml:space="preserve">14</tspan>
          </text>
        </g>
        <g id="Graphic_223">
          <path d="M 423.65883 -166.48011 L 437.99216 -166.48011 C 441.85815 -166.48011 444.99216 -163.3461 444.99216 -159.48011 L 444.99216 -145.48011 C 444.99216 -141.61412 441.85815 -138.48011 437.99216 -138.48011 L 423.65883 -138.48011 C 419.79283 -138.48011 416.65883 -141.61412 416.65883 -145.48011 L 416.65883 -159.48011 C 416.65883 -163.3461 419.79283 -166.48011 423.65883 -166.48011 Z" fill="#f8bc51"/>
          <path d="M 423.65883 -166.48011 L 437.99216 -166.48011 C 441.85815 -166.48011 444.99216 -163.3461 444.99216 -159.48011 L 444.99216 -145.48011 C 444.99216 -141.61412 441.85815 -138.48011 437.99216 -138.48011 L 423.65883 -138.48011 C 419.79283 -138.48011 416.65883 -141.61412 416.65883 -145.48011 L 416.65883 -159.48011 C 416.65883 -163.3461 419.79283 -166.48011 423.65883 -166.48011 Z" stroke="gray" stroke-linecap="round" stroke-linejoin="round" stroke-width="1"/>
          <text transform="translate(423.1857 -160.81071) rotate(1)" fill="black">
            <tspan font-family="Helvetica Neue" font-size="14" fill="black" x="0" y="13" xml:space="preserve">18</tspan>
          </text>
        </g>
        <g id="Graphic_222">
          <path d="M 366.99216 -110.48011 L 381.3255 -110.48011 C 385.1915 -110.48011 388.3255 -107.34611 388.3255 -103.48011 L 388.3255 -89.48011 C 388.3255 -85.61412 385.1915 -82.48011 381.3255 -82.48011 L 366.99216 -82.48011 C 363.12617 -82.48011 359.99216 -85.61412 359.99216 -89.48011 L 359.99216 -103.48011 C 359.99216 -107.34611 363.12617 -110.48011 366.99216 -110.48011 Z" fill="#7bcdf4"/>
          <path d="M 366.99216 -110.48011 L 381.3255 -110.48011 C 385.1915 -110.48011 388.3255 -107.34611 388.3255 -103.48011 L 388.3255 -89.48011 C 388.3255 -85.61412 385.1915 -82.48011 381.3255 -82.48011 L 366.99216 -82.48011 C 363.12617 -82.48011 359.99216 -85.61412 359.99216 -89.48011 L 359.99216 -103.48011 C 359.99216 -107.34611 363.12617 -110.48011 366.99216 -110.48011 Z" stroke="gray" stroke-linecap="round" stroke-linejoin="round" stroke-width="1"/>
          <text transform="translate(366.51905 -104.81071) rotate(1)" fill="black">
            <tspan font-family="Helvetica Neue" font-size="14" fill="black" x="0" y="13" xml:space="preserve">28</tspan>
          </text>
        </g>
        <g id="Graphic_221">
          <path d="M 395.3255 -166.48011 L 409.65883 -166.48011 C 413.5248 -166.48011 416.65883 -163.3461 416.65883 -159.48011 L 416.65883 -145.48011 C 416.65883 -141.61412 413.5248 -138.48011 409.65883 -138.48011 L 395.3255 -138.48011 C 391.4595 -138.48011 388.3255 -141.61412 388.3255 -145.48011 L 388.3255 -159.48011 C 388.3255 -163.3461 391.4595 -166.48011 395.3255 -166.48011 Z" fill="#3fbfa0"/>
          <path d="M 395.3255 -166.48011 L 409.65883 -166.48011 C 413.5248 -166.48011 416.65883 -163.3461 416.65883 -159.48011 L 416.65883 -145.48011 C 416.65883 -141.61412 413.5248 -138.48011 409.65883 -138.48011 L 395.3255 -138.48011 C 391.4595 -138.48011 388.3255 -141.61412 388.3255 -145.48011 L 388.3255 -159.48011 C 388.3255 -163.3461 391.4595 -166.48011 395.3255 -166.48011 Z" stroke="gray" stroke-linecap="round" stroke-linejoin="round" stroke-width="1"/>
          <text transform="translate(394.8524 -160.81071) rotate(1)" fill="white">
            <tspan font-family="Helvetica Neue" font-size="14" fill="white" x="0" y="13" xml:space="preserve">17</tspan>
          </text>
        </g>
        <g id="Graphic_220">
          <path d="M 338.65883 -138.48011 L 352.99216 -138.48011 C 356.85815 -138.48011 359.99216 -135.3461 359.99216 -131.48011 L 359.99216 -117.48011 C 359.99216 -113.61412 356.85815 -110.48011 352.99216 -110.48011 L 338.65883 -110.48011 C 334.79283 -110.48011 331.65883 -113.61412 331.65883 -117.48011 L 331.65883 -131.48011 C 331.65883 -135.3461 334.79283 -138.48011 338.65883 -138.48011 Z" fill="#3fbfa0"/>
          <path d="M 338.65883 -138.48011 L 352.99216 -138.48011 C 356.85815 -138.48011 359.99216 -135.3461 359.99216 -131.48011 L 359.99216 -117.48011 C 359.99216 -113.61412 356.85815 -110.48011 352.99216 -110.48011 L 338.65883 -110.48011 C 334.79283 -110.48011 331.65883 -113.61412 331.65883 -117.48011 L 331.65883 -131.48011 C 331.65883 -135.3461 334.79283 -138.48011 338.65883 -138.48011 Z" stroke="gray" stroke-linecap="round" stroke-linejoin="round" stroke-width="1"/>
          <text transform="translate(338.1857 -132.81071) rotate(1)" fill="white">
            <tspan font-family="Helvetica Neue" font-size="14" fill="white" x="0" y="13" xml:space="preserve">21</tspan>
          </text>
        </g>
        <g id="Graphic_219">
          <path d="M 281.99216 -110.48011 L 296.3255 -110.48011 C 300.1915 -110.48011 303.3255 -107.34611 303.3255 -103.48011 L 303.3255 -89.48011 C 303.3255 -85.61412 300.1915 -82.48011 296.3255 -82.48011 L 281.99216 -82.48011 C 278.12617 -82.48011 274.99216 -85.61412 274.99216 -89.48011 L 274.99216 -103.48011 C 274.99216 -107.34611 278.12617 -110.48011 281.99216 -110.48011 Z" fill="#f8bc51"/>
          <path d="M 281.99216 -110.48011 L 296.3255 -110.48011 C 300.1915 -110.48011 303.3255 -107.34611 303.3255 -103.48011 L 303.3255 -89.48011 C 303.3255 -85.61412 300.1915 -82.48011 296.3255 -82.48011 L 281.99216 -82.48011 C 278.12617 -82.48011 274.99216 -85.61412 274.99216 -89.48011 L 274.99216 -103.48011 C 274.99216 -107.34611 278.12617 -110.48011 281.99216 -110.48011 Z" stroke="gray" stroke-linecap="round" stroke-linejoin="round" stroke-width="1"/>
          <text transform="translate(281.51905 -104.81071) rotate(1)" fill="black">
            <tspan font-family="Helvetica Neue" font-size="14" fill="black" x="0" y="13" xml:space="preserve">25</tspan>
          </text>
        </g>
        <g id="Graphic_218">
          <path d="M 366.99216 -138.48011 L 381.3255 -138.48011 C 385.1915 -138.48011 388.3255 -135.3461 388.3255 -131.48011 L 388.3255 -117.48011 C 388.3255 -113.61412 385.1915 -110.48011 381.3255 -110.48011 L 366.99216 -110.48011 C 363.12617 -110.48011 359.99216 -113.61412 359.99216 -117.48011 L 359.99216 -131.48011 C 359.99216 -135.3461 363.12617 -138.48011 366.99216 -138.48011 Z" fill="#f8bc51"/>
          <path d="M 366.99216 -138.48011 L 381.3255 -138.48011 C 385.1915 -138.48011 388.3255 -135.3461 388.3255 -131.48011 L 388.3255 -117.48011 C 388.3255 -113.61412 385.1915 -110.48011 381.3255 -110.48011 L 366.99216 -110.48011 C 363.12617 -110.48011 359.99216 -113.61412 359.99216 -117.48011 L 359.99216 -131.48011 C 359.99216 -135.3461 363.12617 -138.48011 366.99216 -138.48011 Z" stroke="gray" stroke-linecap="round" stroke-linejoin="round" stroke-width="1"/>
          <text transform="translate(366.51905 -132.81071) rotate(1)" fill="black">
            <tspan font-family="Helvetica Neue" font-size="14" fill="black" x="0" y="13" xml:space="preserve">22</tspan>
          </text>
        </g>
        <g id="Graphic_217">
          <path d="M 310.3255 -194.48011 L 324.65883 -194.48011 C 328.5248 -194.48011 331.65883 -191.3461 331.65883 -187.48011 L 331.65883 -173.48011 C 331.65883 -169.61412 328.5248 -166.48011 324.65883 -166.48011 L 310.3255 -166.48011 C 306.4595 -166.48011 303.3255 -169.61412 303.3255 -173.48011 L 303.3255 -187.48011 C 303.3255 -191.3461 306.4595 -194.48011 310.3255 -194.48011 Z" fill="#7bcdf4"/>
          <path d="M 310.3255 -194.48011 L 324.65883 -194.48011 C 328.5248 -194.48011 331.65883 -191.3461 331.65883 -187.48011 L 331.65883 -173.48011 C 331.65883 -169.61412 328.5248 -166.48011 324.65883 -166.48011 L 310.3255 -166.48011 C 306.4595 -166.48011 303.3255 -169.61412 303.3255 -173.48011 L 303.3255 -187.48011 C 303.3255 -191.3461 306.4595 -194.48011 310.3255 -194.48011 Z" stroke="gray" stroke-linecap="round" stroke-linejoin="round" stroke-width="1"/>
          <text transform="translate(313.7438 -188.7428) rotate(1)" fill="black">
            <tspan font-family="Helvetica Neue" font-size="14" fill="black" x="0" y="13" xml:space="preserve">8</tspan>
          </text>
        </g>
        <g id="Graphic_216">
          <path d="M 423.65883 -222.48011 L 437.99216 -222.48011 C 441.85815 -222.48011 444.99216 -219.3461 444.99216 -215.48011 L 444.99216 -201.48011 C 444.99216 -197.61412 441.85815 -194.48011 437.99216 -194.48011 L 423.65883 -194.48011 C 419.79283 -194.48011 416.65883 -197.61412 416.65883 -201.48011 L 416.65883 -215.48011 C 416.65883 -219.3461 419.79283 -222.48011 423.65883 -222.48011 Z" fill="#7bcdf4"/>
          <path d="M 423.65883 -222.48011 L 437.99216 -222.48011 C 441.85815 -222.48011 444.99216 -219.3461 444.99216 -215.48011 L 444.99216 -201.48011 C 444.99216 -197.61412 441.85815 -194.48011 437.99216 -194.48011 L 423.65883 -194.48011 C 419.79283 -194.48011 416.65883 -197.61412 416.65883 -201.48011 L 416.65883 -215.48011 C 416.65883 -219.3461 419.79283 -222.48011 423.65883 -222.48011 Z" stroke="gray" stroke-linecap="round" stroke-linejoin="round" stroke-width="1"/>
          <text transform="translate(427.0771 -216.7428) rotate(1)" fill="black">
            <tspan font-family="Helvetica Neue" font-size="14" fill="black" x="0" y="13" xml:space="preserve">6</tspan>
          </text>
        </g>
        <g id="Graphic_215">
          <path d="M 423.65883 -110.48011 L 437.99216 -110.48011 C 441.85815 -110.48011 444.99216 -107.34611 444.99216 -103.48011 L 444.99216 -89.48011 C 444.99216 -85.61412 441.85815 -82.48011 437.99216 -82.48011 L 423.65883 -82.48011 C 419.79283 -82.48011 416.65883 -85.61412 416.65883 -89.48011 L 416.65883 -103.48011 C 416.65883 -107.34611 419.79283 -110.48011 423.65883 -110.48011 Z" fill="#3fbfa0"/>
          <path d="M 423.65883 -110.48011 L 437.99216 -110.48011 C 441.85815 -110.48011 444.99216 -107.34611 444.99216 -103.48011 L 444.99216 -89.48011 C 444.99216 -85.61412 441.85815 -82.48011 437.99216 -82.48011 L 423.65883 -82.48011 C 419.79283 -82.48011 416.65883 -85.61412 416.65883 -89.48011 L 416.65883 -103.48011 C 416.65883 -107.34611 419.79283 -110.48011 423.65883 -110.48011 Z" stroke="gray" stroke-linecap="round" stroke-linejoin="round" stroke-width="1"/>
          <text transform="translate(423.1857 -104.81071) rotate(1)" fill="white">
            <tspan font-family="Helvetica Neue" font-size="14" fill="white" x="0" y="13" xml:space="preserve">30</tspan>
          </text>
        </g>
        <g id="Graphic_214">
          <path d="M 281.99216 -222.48011 L 296.3255 -222.48011 C 300.1915 -222.48011 303.3255 -219.3461 303.3255 -215.48011 L 303.3255 -201.48011 C 303.3255 -197.61412 300.1915 -194.48011 296.3255 -194.48011 L 281.99216 -194.48011 C 278.12617 -194.48011 274.99216 -197.61412 274.99216 -201.48011 L 274.99216 -215.48011 C 274.99216 -219.3461 278.12617 -222.48011 281.99216 -222.48011 Z" fill="#3fbfa0"/>
          <path d="M 281.99216 -222.48011 L 296.3255 -222.48011 C 300.1915 -222.48011 303.3255 -219.3461 303.3255 -215.48011 L 303.3255 -201.48011 C 303.3255 -197.61412 300.1915 -194.48011 296.3255 -194.48011 L 281.99216 -194.48011 C 278.12617 -194.48011 274.99216 -197.61412 274.99216 -201.48011 L 274.99216 -215.48011 C 274.99216 -219.3461 278.12617 -222.48011 281.99216 -222.48011 Z" stroke="gray" stroke-linecap="round" stroke-linejoin="round" stroke-width="1"/>
          <text transform="translate(285.41046 -216.7428) rotate(1)" fill="white">
            <tspan font-family="Helvetica Neue" font-size="14" fill="white" x="0" y="13" xml:space="preserve">1</tspan>
          </text>
        </g>
        <g id="Graphic_213">
          <path d="M 395.3255 -138.48011 L 409.65883 -138.48011 C 413.5248 -138.48011 416.65883 -135.3461 416.65883 -131.48011 L 416.65883 -117.48011 C 416.65883 -113.61412 413.5248 -110.48011 409.65883 -110.48011 L 395.3255 -110.48011 C 391.4595 -110.48011 388.3255 -113.61412 388.3255 -117.48011 L 388.3255 -131.48011 C 388.3255 -135.3461 391.4595 -138.48011 395.3255 -138.48011 Z" fill="#f8bc51"/>
          <path d="M 395.3255 -138.48011 L 409.65883 -138.48011 C 413.5248 -138.48011 416.65883 -135.3461 416.65883 -131.48011 L 416.65883 -117.48011 C 416.65883 -113.61412 413.5248 -110.48011 409.65883 -110.48011 L 395.3255 -110.48011 C 391.4595 -110.48011 388.3255 -113.61412 388.3255 -117.48011 L 388.3255 -131.48011 C 388.3255 -135.3461 391.4595 -138.48011 395.3255 -138.48011 Z" stroke="gray" stroke-linecap="round" stroke-linejoin="round" stroke-width="1"/>
          <text transform="translate(394.8524 -132.81071) rotate(1)" fill="black">
            <tspan font-family="Helvetica Neue" font-size="14" fill="black" x="0" y="13" xml:space="preserve">23</tspan>
          </text>
        </g>
        <g id="Graphic_212">
          <path d="M 338.65883 -110.48011 L 352.99216 -110.48011 C 356.85815 -110.48011 359.99216 -107.34611 359.99216 -103.48011 L 359.99216 -89.48011 C 359.99216 -85.61412 356.85815 -82.48011 352.99216 -82.48011 L 338.65883 -82.48011 C 334.79283 -82.48011 331.65883 -85.61412 331.65883 -89.48011 L 331.65883 -103.48011 C 331.65883 -107.34611 334.79283 -110.48011 338.65883 -110.48011 Z" fill="#f8bc51"/>
          <path d="M 338.65883 -110.48011 L 352.99216 -110.48011 C 356.85815 -110.48011 359.99216 -107.34611 359.99216 -103.48011 L 359.99216 -89.48011 C 359.99216 -85.61412 356.85815 -82.48011 352.99216 -82.48011 L 338.65883 -82.48011 C 334.79283 -82.48011 331.65883 -85.61412 331.65883 -89.48011 L 331.65883 -103.48011 C 331.65883 -107.34611 334.79283 -110.48011 338.65883 -110.48011 Z" stroke="gray" stroke-linecap="round" stroke-linejoin="round" stroke-width="1"/>
          <text transform="translate(338.1857 -104.81071) rotate(1)" fill="black">
            <tspan font-family="Helvetica Neue" font-size="14" fill="black" x="0" y="13" xml:space="preserve">27</tspan>
          </text>
        </g>
        <g id="Graphic_211">
          <path d="M 338.65883 -222.48011 L 352.99216 -222.48011 C 356.85815 -222.48011 359.99216 -219.3461 359.99216 -215.48011 L 359.99216 -201.48011 C 359.99216 -197.61412 356.85815 -194.48011 352.99216 -194.48011 L 338.65883 -194.48011 C 334.79283 -194.48011 331.65883 -197.61412 331.65883 -201.48011 L 331.65883 -215.48011 C 331.65883 -219.3461 334.79283 -222.48011 338.65883 -222.48011 Z" fill="#3fbfa0"/>
          <path d="M 338.65883 -222.48011 L 352.99216 -222.48011 C 356.85815 -222.48011 359.99216 -219.3461 359.99216 -215.48011 L 359.99216 -201.48011 C 359.99216 -197.61412 356.85815 -194.48011 352.99216 -194.48011 L 338.65883 -194.48011 C 334.79283 -194.48011 331.65883 -197.61412 331.65883 -201.48011 L 331.65883 -215.48011 C 331.65883 -219.3461 334.79283 -222.48011 338.65883 -222.48011 Z" stroke="gray" stroke-linecap="round" stroke-linejoin="round" stroke-width="1"/>
          <text transform="translate(342.07713 -216.7428) rotate(1)" fill="white">
            <tspan font-family="Helvetica Neue" font-size="14" fill="white" x="0" y="13" xml:space="preserve">3</tspan>
          </text>
        </g>
        <g id="Graphic_210">
          <path d="M 310.3255 -222.48011 L 324.65883 -222.48011 C 328.5248 -222.48011 331.65883 -219.3461 331.65883 -215.48011 L 331.65883 -201.48011 C 331.65883 -197.61412 328.5248 -194.48011 324.65883 -194.48011 L 310.3255 -194.48011 C 306.4595 -194.48011 303.3255 -197.61412 303.3255 -201.48011 L 303.3255 -215.48011 C 303.3255 -219.3461 306.4595 -222.48011 310.3255 -222.48011 Z" fill="#f8bc51"/>
          <path d="M 310.3255 -222.48011 L 324.65883 -222.48011 C 328.5248 -222.48011 331.65883 -219.3461 331.65883 -215.48011 L 331.65883 -201.48011 C 331.65883 -197.61412 328.5248 -194.48011 324.65883 -194.48011 L 310.3255 -194.48011 C 306.4595 -194.48011 303.3255 -197.61412 303.3255 -201.48011 L 303.3255 -215.48011 C 303.3255 -219.3461 306.4595 -222.48011 310.3255 -222.48011 Z" stroke="gray" stroke-linecap="round" stroke-linejoin="round" stroke-width="1"/>
          <text transform="translate(313.7438 -216.7428) rotate(1)" fill="black">
            <tspan font-family="Helvetica Neue" font-size="14" fill="black" x="0" y="13" xml:space="preserve">2</tspan>
          </text>
        </g>
        <g id="Graphic_209">
          <path d="M 281.99216 -138.48011 L 296.3255 -138.48011 C 300.1915 -138.48011 303.3255 -135.3461 303.3255 -131.48011 L 303.3255 -117.48011 C 303.3255 -113.61412 300.1915 -110.48011 296.3255 -110.48011 L 281.99216 -110.48011 C 278.12617 -110.48011 274.99216 -113.61412 274.99216 -117.48011 L 274.99216 -131.48011 C 274.99216 -135.3461 278.12617 -138.48011 281.99216 -138.48011 Z" fill="#3fbfa0"/>
          <path d="M 281.99216 -138.48011 L 296.3255 -138.48011 C 300.1915 -138.48011 303.3255 -135.3461 303.3255 -131.48011 L 303.3255 -117.48011 C 303.3255 -113.61412 300.1915 -110.48011 296.3255 -110.48011 L 281.99216 -110.48011 C 278.12617 -110.48011 274.99216 -113.61412 274.99216 -117.48011 L 274.99216 -131.48011 C 274.99216 -135.3461 278.12617 -138.48011 281.99216 -138.48011 Z" stroke="gray" stroke-linecap="round" stroke-linejoin="round" stroke-width="1"/>
          <text transform="translate(281.51905 -132.81071) rotate(1)" fill="white">
            <tspan font-family="Helvetica Neue" font-size="14" fill="white" x="0" y="13" xml:space="preserve">19</tspan>
          </text>
        </g>
        <g id="Graphic_208">
          <path d="M 395.3255 -194.48011 L 409.65883 -194.48011 C 413.5248 -194.48011 416.65883 -191.3461 416.65883 -187.48011 L 416.65883 -173.48011 C 416.65883 -169.61412 413.5248 -166.48011 409.65883 -166.48011 L 395.3255 -166.48011 C 391.4595 -166.48011 388.3255 -169.61412 388.3255 -173.48011 L 388.3255 -187.48011 C 388.3255 -191.3461 391.4595 -194.48011 395.3255 -194.48011 Z" fill="#f8bc51"/>
          <path d="M 395.3255 -194.48011 L 409.65883 -194.48011 C 413.5248 -194.48011 416.65883 -191.3461 416.65883 -187.48011 L 416.65883 -173.48011 C 416.65883 -169.61412 413.5248 -166.48011 409.65883 -166.48011 L 395.3255 -166.48011 C 391.4595 -166.48011 388.3255 -169.61412 388.3255 -173.48011 L 388.3255 -187.48011 C 388.3255 -191.3461 391.4595 -194.48011 395.3255 -194.48011 Z" stroke="gray" stroke-linecap="round" stroke-linejoin="round" stroke-width="1"/>
          <text transform="translate(394.8524 -188.81071) rotate(1)" fill="black">
            <tspan font-family="Helvetica Neue" font-size="14" fill="black" x="0" y="13" xml:space="preserve">11</tspan>
          </text>
        </g>
        <g id="Graphic_207">
          <path d="M 281.99216 -194.48011 L 296.3255 -194.48011 C 300.1915 -194.48011 303.3255 -191.3461 303.3255 -187.48011 L 303.3255 -173.48011 C 303.3255 -169.61412 300.1915 -166.48011 296.3255 -166.48011 L 281.99216 -166.48011 C 278.12617 -166.48011 274.99216 -169.61412 274.99216 -173.48011 L 274.99216 -187.48011 C 274.99216 -191.3461 278.12617 -194.48011 281.99216 -194.48011 Z" fill="#f8bc51"/>
          <path d="M 281.99216 -194.48011 L 296.3255 -194.48011 C 300.1915 -194.48011 303.3255 -191.3461 303.3255 -187.48011 L 303.3255 -173.48011 C 303.3255 -169.61412 300.1915 -166.48011 296.3255 -166.48011 L 281.99216 -166.48011 C 278.12617 -166.48011 274.99216 -169.61412 274.99216 -173.48011 L 274.99216 -187.48011 C 274.99216 -191.3461 278.12617 -194.48011 281.99216 -194.48011 Z" stroke="gray" stroke-linecap="round" stroke-linejoin="round" stroke-width="1"/>
          <text transform="translate(285.41046 -188.7428) rotate(1)" fill="black">
            <tspan font-family="Helvetica Neue" font-size="14" fill="black" x="0" y="13" xml:space="preserve">7</tspan>
          </text>
        </g>
        <g id="Graphic_206">
          <path d="M 310.3255 -110.48011 L 324.65883 -110.48011 C 328.5248 -110.48011 331.65883 -107.34611 331.65883 -103.48011 L 331.65883 -89.48011 C 331.65883 -85.61412 328.5248 -82.48011 324.65883 -82.48011 L 310.3255 -82.48011 C 306.4595 -82.48011 303.3255 -85.61412 303.3255 -89.48011 L 303.3255 -103.48011 C 303.3255 -107.34611 306.4595 -110.48011 310.3255 -110.48011 Z" fill="#7bcdf4"/>
          <path d="M 310.3255 -110.48011 L 324.65883 -110.48011 C 328.5248 -110.48011 331.65883 -107.34611 331.65883 -103.48011 L 331.65883 -89.48011 C 331.65883 -85.61412 328.5248 -82.48011 324.65883 -82.48011 L 310.3255 -82.48011 C 306.4595 -82.48011 303.3255 -85.61412 303.3255 -89.48011 L 303.3255 -103.48011 C 303.3255 -107.34611 306.4595 -110.48011 310.3255 -110.48011 Z" stroke="gray" stroke-linecap="round" stroke-linejoin="round" stroke-width="1"/>
          <text transform="translate(309.8524 -104.81071) rotate(1)" fill="black">
            <tspan font-family="Helvetica Neue" font-size="14" fill="black" x="0" y="13" xml:space="preserve">26</tspan>
          </text>
        </g>
        <g id="Graphic_205">
          <path d="M 423.65883 -138.48011 L 437.99216 -138.48011 C 441.85815 -138.48011 444.99216 -135.3461 444.99216 -131.48011 L 444.99216 -117.48011 C 444.99216 -113.61412 441.85815 -110.48011 437.99216 -110.48011 L 423.65883 -110.48011 C 419.79283 -110.48011 416.65883 -113.61412 416.65883 -117.48011 L 416.65883 -131.48011 C 416.65883 -135.3461 419.79283 -138.48011 423.65883 -138.48011 Z" fill="#3fbfa0"/>
          <path d="M 423.65883 -138.48011 L 437.99216 -138.48011 C 441.85815 -138.48011 444.99216 -135.3461 444.99216 -131.48011 L 444.99216 -117.48011 C 444.99216 -113.61412 441.85815 -110.48011 437.99216 -110.48011 L 423.65883 -110.48011 C 419.79283 -110.48011 416.65883 -113.61412 416.65883 -117.48011 L 416.65883 -131.48011 C 416.65883 -135.3461 419.79283 -138.48011 423.65883 -138.48011 Z" stroke="gray" stroke-linecap="round" stroke-linejoin="round" stroke-width="1"/>
          <text transform="translate(423.1857 -132.81071) rotate(1)" fill="white">
            <tspan font-family="Helvetica Neue" font-size="14" fill="white" x="0" y="13" xml:space="preserve">24</tspan>
          </text>
        </g>
        <g id="Graphic_204">
          <path d="M 366.99216 -166.48011 L 381.3255 -166.48011 C 385.1915 -166.48011 388.3255 -163.3461 388.3255 -159.48011 L 388.3255 -145.48011 C 388.3255 -141.61412 385.1915 -138.48011 381.3255 -138.48011 L 366.99216 -138.48011 C 363.12617 -138.48011 359.99216 -141.61412 359.99216 -145.48011 L 359.99216 -159.48011 C 359.99216 -163.3461 363.12617 -166.48011 366.99216 -166.48011 Z" fill="#7bcdf4"/>
          <path d="M 366.99216 -166.48011 L 381.3255 -166.48011 C 385.1915 -166.48011 388.3255 -163.3461 388.3255 -159.48011 L 388.3255 -145.48011 C 388.3255 -141.61412 385.1915 -138.48011 381.3255 -138.48011 L 366.99216 -138.48011 C 363.12617 -138.48011 359.99216 -141.61412 359.99216 -145.48011 L 359.99216 -159.48011 C 359.99216 -163.3461 363.12617 -166.48011 366.99216 -166.48011 Z" stroke="gray" stroke-linecap="round" stroke-linejoin="round" stroke-width="1"/>
          <text transform="translate(366.51905 -160.81071) rotate(1)" fill="black">
            <tspan font-family="Helvetica Neue" font-size="14" fill="black" x="0" y="13" xml:space="preserve">16</tspan>
          </text>
        </g>
        <g id="Graphic_203">
          <path d="M 338.65883 -194.48011 L 352.99216 -194.48011 C 356.85815 -194.48011 359.99216 -191.3461 359.99216 -187.48011 L 359.99216 -173.48011 C 359.99216 -169.61412 356.85815 -166.48011 352.99216 -166.48011 L 338.65883 -166.48011 C 334.79283 -166.48011 331.65883 -169.61412 331.65883 -173.48011 L 331.65883 -187.48011 C 331.65883 -191.3461 334.79283 -194.48011 338.65883 -194.48011 Z" fill="#7bcdf4"/>
          <path d="M 338.65883 -194.48011 L 352.99216 -194.48011 C 356.85815 -194.48011 359.99216 -191.3461 359.99216 -187.48011 L 359.99216 -173.48011 C 359.99216 -169.61412 356.85815 -166.48011 352.99216 -166.48011 L 338.65883 -166.48011 C 334.79283 -166.48011 331.65883 -169.61412 331.65883 -173.48011 L 331.65883 -187.48011 C 331.65883 -191.3461 334.79283 -194.48011 338.65883 -194.48011 Z" stroke="gray" stroke-linecap="round" stroke-linejoin="round" stroke-width="1"/>
          <text transform="translate(342.07713 -188.7428) rotate(1)" fill="black">
            <tspan font-family="Helvetica Neue" font-size="14" fill="black" x="0" y="13" xml:space="preserve">9</tspan>
          </text>
        </g>
        <g id="Graphic_202">
          <path d="M 366.99216 -222.48011 L 381.3255 -222.48011 C 385.1915 -222.48011 388.3255 -219.3461 388.3255 -215.48011 L 388.3255 -201.48011 C 388.3255 -197.61412 385.1915 -194.48011 381.3255 -194.48011 L 366.99216 -194.48011 C 363.12617 -194.48011 359.99216 -197.61412 359.99216 -201.48011 L 359.99216 -215.48011 C 359.99216 -219.3461 363.12617 -222.48011 366.99216 -222.48011 Z" fill="#f8bc51"/>
          <path d="M 366.99216 -222.48011 L 381.3255 -222.48011 C 385.1915 -222.48011 388.3255 -219.3461 388.3255 -215.48011 L 388.3255 -201.48011 C 388.3255 -197.61412 385.1915 -194.48011 381.3255 -194.48011 L 366.99216 -194.48011 C 363.12617 -194.48011 359.99216 -197.61412 359.99216 -201.48011 L 359.99216 -215.48011 C 359.99216 -219.3461 363.12617 -222.48011 366.99216 -222.48011 Z" stroke="gray" stroke-linecap="round" stroke-linejoin="round" stroke-width="1"/>
          <text transform="translate(370.41046 -216.7428) rotate(1)" fill="black">
            <tspan font-family="Helvetica Neue" font-size="14" fill="black" x="0" y="13" xml:space="preserve">4</tspan>
          </text>
        </g>
        <g id="Graphic_201">
          <path d="M 395.3255 -110.48011 L 409.65883 -110.48011 C 413.5248 -110.48011 416.65883 -107.34611 416.65883 -103.48011 L 416.65883 -89.48011 C 416.65883 -85.61412 413.5248 -82.48011 409.65883 -82.48011 L 395.3255 -82.48011 C 391.4595 -82.48011 388.3255 -85.61412 388.3255 -89.48011 L 388.3255 -103.48011 C 388.3255 -107.34611 391.4595 -110.48011 395.3255 -110.48011 Z" fill="#7bcdf4"/>
          <path d="M 395.3255 -110.48011 L 409.65883 -110.48011 C 413.5248 -110.48011 416.65883 -107.34611 416.65883 -103.48011 L 416.65883 -89.48011 C 416.65883 -85.61412 413.5248 -82.48011 409.65883 -82.48011 L 395.3255 -82.48011 C 391.4595 -82.48011 388.3255 -85.61412 388.3255 -89.48011 L 388.3255 -103.48011 C 388.3255 -107.34611 391.4595 -110.48011 395.3255 -110.48011 Z" stroke="gray" stroke-linecap="round" stroke-linejoin="round" stroke-width="1"/>
          <text transform="translate(394.8524 -104.81071) rotate(1)" fill="black">
            <tspan font-family="Helvetica Neue" font-size="14" fill="black" x="0" y="13" xml:space="preserve">29</tspan>
          </text>
        </g>
        <g id="Graphic_200">
          <path d="M 310.3255 -138.48011 L 324.65883 -138.48011 C 328.5248 -138.48011 331.65883 -135.3461 331.65883 -131.48011 L 331.65883 -117.48011 C 331.65883 -113.61412 328.5248 -110.48011 324.65883 -110.48011 L 310.3255 -110.48011 C 306.4595 -110.48011 303.3255 -113.61412 303.3255 -117.48011 L 303.3255 -131.48011 C 303.3255 -135.3461 306.4595 -138.48011 310.3255 -138.48011 Z" fill="#7bcdf4"/>
          <path d="M 310.3255 -138.48011 L 324.65883 -138.48011 C 328.5248 -138.48011 331.65883 -135.3461 331.65883 -131.48011 L 331.65883 -117.48011 C 331.65883 -113.61412 328.5248 -110.48011 324.65883 -110.48011 L 310.3255 -110.48011 C 306.4595 -110.48011 303.3255 -113.61412 303.3255 -117.48011 L 303.3255 -131.48011 C 303.3255 -135.3461 306.4595 -138.48011 310.3255 -138.48011 Z" stroke="gray" stroke-linecap="round" stroke-linejoin="round" stroke-width="1"/>
          <text transform="translate(309.8524 -132.81071) rotate(1)" fill="black">
            <tspan font-family="Helvetica Neue" font-size="14" fill="black" x="0" y="13" xml:space="preserve">20</tspan>
          </text>
        </g>
        <g id="Graphic_199">
          <path d="M 423.65883 -194.48011 L 437.99216 -194.48011 C 441.85815 -194.48011 444.99216 -191.3461 444.99216 -187.48011 L 444.99216 -173.48011 C 444.99216 -169.61412 441.85815 -166.48011 437.99216 -166.48011 L 423.65883 -166.48011 C 419.79283 -166.48011 416.65883 -169.61412 416.65883 -173.48011 L 416.65883 -187.48011 C 416.65883 -191.3461 419.79283 -194.48011 423.65883 -194.48011 Z" fill="#3fbfa0"/>
          <path d="M 423.65883 -194.48011 L 437.99216 -194.48011 C 441.85815 -194.48011 444.99216 -191.3461 444.99216 -187.48011 L 444.99216 -173.48011 C 444.99216 -169.61412 441.85815 -166.48011 437.99216 -166.48011 L 423.65883 -166.48011 C 419.79283 -166.48011 416.65883 -169.61412 416.65883 -173.48011 L 416.65883 -187.48011 C 416.65883 -191.3461 419.79283 -194.48011 423.65883 -194.48011 Z" stroke="gray" stroke-linecap="round" stroke-linejoin="round" stroke-width="1"/>
          <text transform="translate(423.1857 -188.81071) rotate(1)" fill="white">
            <tspan font-family="Helvetica Neue" font-size="14" fill="white" x="0" y="13" xml:space="preserve">12</tspan>
          </text>
        </g>
        <g id="Graphic_198">
          <path d="M 281.99216 -166.48011 L 296.3255 -166.48011 C 300.1915 -166.48011 303.3255 -163.3461 303.3255 -159.48011 L 303.3255 -145.48011 C 303.3255 -141.61412 300.1915 -138.48011 296.3255 -138.48011 L 281.99216 -138.48011 C 278.12617 -138.48011 274.99216 -141.61412 274.99216 -145.48011 L 274.99216 -159.48011 C 274.99216 -163.3461 278.12617 -166.48011 281.99216 -166.48011 Z" fill="#7bcdf4"/>
          <path d="M 281.99216 -166.48011 L 296.3255 -166.48011 C 300.1915 -166.48011 303.3255 -163.3461 303.3255 -159.48011 L 303.3255 -145.48011 C 303.3255 -141.61412 300.1915 -138.48011 296.3255 -138.48011 L 281.99216 -138.48011 C 278.12617 -138.48011 274.99216 -141.61412 274.99216 -145.48011 L 274.99216 -159.48011 C 274.99216 -163.3461 278.12617 -166.48011 281.99216 -166.48011 Z" stroke="gray" stroke-linecap="round" stroke-linejoin="round" stroke-width="1"/>
          <text transform="translate(281.51905 -160.81071) rotate(1)" fill="black">
            <tspan font-family="Helvetica Neue" font-size="14" fill="black" x="0" y="13" xml:space="preserve">13</tspan>
          </text>
        </g>
        <g id="Graphic_197">
          <path d="M 338.65883 -166.48011 L 352.99216 -166.48011 C 356.85815 -166.48011 359.99216 -163.3461 359.99216 -159.48011 L 359.99216 -145.48011 C 359.99216 -141.61412 356.85815 -138.48011 352.99216 -138.48011 L 338.65883 -138.48011 C 334.79283 -138.48011 331.65883 -141.61412 331.65883 -145.48011 L 331.65883 -159.48011 C 331.65883 -163.3461 334.79283 -166.48011 338.65883 -166.48011 Z" fill="#3fbfa0"/>
          <path d="M 338.65883 -166.48011 L 352.99216 -166.48011 C 356.85815 -166.48011 359.99216 -163.3461 359.99216 -159.48011 L 359.99216 -145.48011 C 359.99216 -141.61412 356.85815 -138.48011 352.99216 -138.48011 L 338.65883 -138.48011 C 334.79283 -138.48011 331.65883 -141.61412 331.65883 -145.48011 L 331.65883 -159.48011 C 331.65883 -163.3461 334.79283 -166.48011 338.65883 -166.48011 Z" stroke="gray" stroke-linecap="round" stroke-linejoin="round" stroke-width="1"/>
          <text transform="translate(338.1857 -160.81071) rotate(1)" fill="white">
            <tspan font-family="Helvetica Neue" font-size="14" fill="white" x="0" y="13" xml:space="preserve">15</tspan>
          </text>
        </g>
        <g id="Graphic_196">
          <path d="M 395.3255 -222.48011 L 409.65883 -222.48011 C 413.5248 -222.48011 416.65883 -219.3461 416.65883 -215.48011 L 416.65883 -201.48011 C 416.65883 -197.61412 413.5248 -194.48011 409.65883 -194.48011 L 395.3255 -194.48011 C 391.4595 -194.48011 388.3255 -197.61412 388.3255 -201.48011 L 388.3255 -215.48011 C 388.3255 -219.3461 391.4595 -222.48011 395.3255 -222.48011 Z" fill="#7bcdf4"/>
          <path d="M 395.3255 -222.48011 L 409.65883 -222.48011 C 413.5248 -222.48011 416.65883 -219.3461 416.65883 -215.48011 L 416.65883 -201.48011 C 416.65883 -197.61412 413.5248 -194.48011 409.65883 -194.48011 L 395.3255 -194.48011 C 391.4595 -194.48011 388.3255 -197.61412 388.3255 -201.48011 L 388.3255 -215.48011 C 388.3255 -219.3461 391.4595 -222.48011 395.3255 -222.48011 Z" stroke="gray" stroke-linecap="round" stroke-linejoin="round" stroke-width="1"/>
          <text transform="translate(398.7438 -216.7428) rotate(1)" fill="black">
            <tspan font-family="Helvetica Neue" font-size="14" fill="black" x="0" y="13" xml:space="preserve">5</tspan>
          </text>
        </g>
        <g id="Graphic_195">
          <path d="M 366.99216 -194.48011 L 381.3255 -194.48011 C 385.1915 -194.48011 388.3255 -191.3461 388.3255 -187.48011 L 388.3255 -173.48011 C 388.3255 -169.61412 385.1915 -166.48011 381.3255 -166.48011 L 366.99216 -166.48011 C 363.12617 -166.48011 359.99216 -169.61412 359.99216 -173.48011 L 359.99216 -187.48011 C 359.99216 -191.3461 363.12617 -194.48011 366.99216 -194.48011 Z" fill="#f8bc51"/>
          <path d="M 366.99216 -194.48011 L 381.3255 -194.48011 C 385.1915 -194.48011 388.3255 -191.3461 388.3255 -187.48011 L 388.3255 -173.48011 C 388.3255 -169.61412 385.1915 -166.48011 381.3255 -166.48011 L 366.99216 -166.48011 C 363.12617 -166.48011 359.99216 -169.61412 359.99216 -173.48011 L 359.99216 -187.48011 C 359.99216 -191.3461 363.12617 -194.48011 366.99216 -194.48011 Z" stroke="gray" stroke-linecap="round" stroke-linejoin="round" stroke-width="1"/>
          <text transform="translate(366.51905 -188.81071) rotate(1)" fill="black">
            <tspan font-family="Helvetica Neue" font-size="14" fill="black" x="0" y="13" xml:space="preserve">10</tspan>
          </text>
        </g>
      </g>
      <g id="Group_101">
        <g id="Graphic_131">
          <path d="M 713.0206 -219.03212 L 727.3539 -219.03212 C 731.2199 -219.03212 734.3539 -215.8981 734.3539 -212.03212 L 734.3539 -198.03212 C 734.3539 -194.16612 731.2199 -191.03212 727.3539 -191.03212 L 713.0206 -191.03212 C 709.1546 -191.03212 706.0206 -194.16612 706.0206 -198.03212 L 706.0206 -212.03212 C 706.0206 -215.8981 709.1546 -219.03212 713.0206 -219.03212 Z" fill="#f8bc51"/>
          <path d="M 713.0206 -219.03212 L 727.3539 -219.03212 C 731.2199 -219.03212 734.3539 -215.8981 734.3539 -212.03212 L 734.3539 -198.03212 C 734.3539 -194.16612 731.2199 -191.03212 727.3539 -191.03212 L 713.0206 -191.03212 C 709.1546 -191.03212 706.0206 -194.16612 706.0206 -198.03212 L 706.0206 -212.03212 C 706.0206 -215.8981 709.1546 -219.03212 713.0206 -219.03212 Z" stroke="gray" stroke-linecap="round" stroke-linejoin="round" stroke-width="1"/>
          <text transform="translate(712.5475 -213.36272) rotate(1)" fill="black">
            <tspan font-family="Helvetica Neue" font-size="14" fill="black" x="0" y="13" xml:space="preserve">11</tspan>
          </text>
        </g>
        <g id="Graphic_130"/>
        <g id="Graphic_129">
          <path d="M 769.6872 -163.03212 L 784.0206 -163.03212 C 787.8866 -163.03212 791.0206 -159.8981 791.0206 -156.03212 L 791.0206 -142.03212 C 791.0206 -138.16612 787.8866 -135.03212 784.0206 -135.03212 L 769.6872 -135.03212 C 765.8212 -135.03212 762.6872 -138.16612 762.6872 -142.03212 L 762.6872 -156.03212 C 762.6872 -159.8981 765.8212 -163.03212 769.6872 -163.03212 Z" fill="#7bcdf4"/>
          <path d="M 769.6872 -163.03212 L 784.0206 -163.03212 C 787.8866 -163.03212 791.0206 -159.8981 791.0206 -156.03212 L 791.0206 -142.03212 C 791.0206 -138.16612 787.8866 -135.03212 784.0206 -135.03212 L 769.6872 -135.03212 C 765.8212 -135.03212 762.6872 -138.16612 762.6872 -142.03212 L 762.6872 -156.03212 C 762.6872 -159.8981 765.8212 -163.03212 769.6872 -163.03212 Z" stroke="gray" stroke-linecap="round" stroke-linejoin="round" stroke-width="1"/>
          <text transform="translate(769.2141 -157.36272) rotate(1)" fill="black">
            <tspan font-family="Helvetica Neue" font-size="14" fill="black" x="0" y="13" xml:space="preserve">28</tspan>
          </text>
        </g>
        <g id="Graphic_128">
          <path d="M 798.0206 -219.03212 L 812.3539 -219.03212 C 816.2199 -219.03212 819.3539 -215.8981 819.3539 -212.03212 L 819.3539 -198.03212 C 819.3539 -194.16612 816.2199 -191.03212 812.3539 -191.03212 L 798.0206 -191.03212 C 794.1546 -191.03212 791.0206 -194.16612 791.0206 -198.03212 L 791.0206 -212.03212 C 791.0206 -215.8981 794.1546 -219.03212 798.0206 -219.03212 Z" fill="#f8bc51"/>
          <path d="M 798.0206 -219.03212 L 812.3539 -219.03212 C 816.2199 -219.03212 819.3539 -215.8981 819.3539 -212.03212 L 819.3539 -198.03212 C 819.3539 -194.16612 816.2199 -191.03212 812.3539 -191.03212 L 798.0206 -191.03212 C 794.1546 -191.03212 791.0206 -194.16612 791.0206 -198.03212 L 791.0206 -212.03212 C 791.0206 -215.8981 794.1546 -219.03212 798.0206 -219.03212 Z" stroke="gray" stroke-linecap="round" stroke-linejoin="round" stroke-width="1"/>
          <text transform="translate(797.5475 -213.36272) rotate(1)" fill="black">
            <tspan font-family="Helvetica Neue" font-size="14" fill="black" x="0" y="13" xml:space="preserve">18</tspan>
          </text>
        </g>
        <g id="Graphic_127">
          <path d="M 741.3539 -191.03212 L 755.6872 -191.03212 C 759.5532 -191.03212 762.6872 -187.8981 762.6872 -184.03212 L 762.6872 -170.03212 C 762.6872 -166.16612 759.5532 -163.03212 755.6872 -163.03212 L 741.3539 -163.03212 C 737.4879 -163.03212 734.3539 -166.16612 734.3539 -170.03212 L 734.3539 -184.03212 C 734.3539 -187.8981 737.4879 -191.03212 741.3539 -191.03212 Z" fill="#f8bc51"/>
          <path d="M 741.3539 -191.03212 L 755.6872 -191.03212 C 759.5532 -191.03212 762.6872 -187.8981 762.6872 -184.03212 L 762.6872 -170.03212 C 762.6872 -166.16612 759.5532 -163.03212 755.6872 -163.03212 L 741.3539 -163.03212 C 737.4879 -163.03212 734.3539 -166.16612 734.3539 -170.03212 L 734.3539 -184.03212 C 734.3539 -187.8981 737.4879 -191.03212 741.3539 -191.03212 Z" stroke="gray" stroke-linecap="round" stroke-linejoin="round" stroke-width="1"/>
          <text transform="translate(740.8808 -185.36272) rotate(1)" fill="black">
            <tspan font-family="Helvetica Neue" font-size="14" fill="black" x="0" y="13" xml:space="preserve">22</tspan>
          </text>
        </g>
        <g id="Graphic_126"/>
        <g id="Graphic_125">
          <path d="M 769.6872 -191.03212 L 784.0206 -191.03212 C 787.8866 -191.03212 791.0206 -187.8981 791.0206 -184.03212 L 791.0206 -170.03212 C 791.0206 -166.16612 787.8866 -163.03212 784.0206 -163.03212 L 769.6872 -163.03212 C 765.8212 -163.03212 762.6872 -166.16612 762.6872 -170.03212 L 762.6872 -184.03212 C 762.6872 -187.8981 765.8212 -191.03212 769.6872 -191.03212 Z" fill="#f8bc51"/>
          <path d="M 769.6872 -191.03212 L 784.0206 -191.03212 C 787.8866 -191.03212 791.0206 -187.8981 791.0206 -184.03212 L 791.0206 -170.03212 C 791.0206 -166.16612 787.8866 -163.03212 784.0206 -163.03212 L 769.6872 -163.03212 C 765.8212 -163.03212 762.6872 -166.16612 762.6872 -170.03212 L 762.6872 -184.03212 C 762.6872 -187.8981 765.8212 -191.03212 769.6872 -191.03212 Z" stroke="gray" stroke-linecap="round" stroke-linejoin="round" stroke-width="1"/>
          <text transform="translate(769.2141 -185.36272) rotate(1)" fill="black">
            <tspan font-family="Helvetica Neue" font-size="14" fill="black" x="0" y="13" xml:space="preserve">23</tspan>
          </text>
        </g>
        <g id="Graphic_124">
          <path d="M 713.0206 -247.03212 L 727.3539 -247.03212 C 731.2199 -247.03212 734.3539 -243.8981 734.3539 -240.03212 L 734.3539 -226.03212 C 734.3539 -222.16612 731.2199 -219.03212 727.3539 -219.03212 L 713.0206 -219.03212 C 709.1546 -219.03212 706.0206 -222.16612 706.0206 -226.03212 L 706.0206 -240.03212 C 706.0206 -243.8981 709.1546 -247.03212 713.0206 -247.03212 Z" fill="#f8bc51"/>
          <path d="M 713.0206 -247.03212 L 727.3539 -247.03212 C 731.2199 -247.03212 734.3539 -243.8981 734.3539 -240.03212 L 734.3539 -226.03212 C 734.3539 -222.16612 731.2199 -219.03212 727.3539 -219.03212 L 713.0206 -219.03212 C 709.1546 -219.03212 706.0206 -222.16612 706.0206 -226.03212 L 706.0206 -240.03212 C 706.0206 -243.8981 709.1546 -247.03212 713.0206 -247.03212 Z" stroke="gray" stroke-linecap="round" stroke-linejoin="round" stroke-width="1"/>
          <text transform="translate(716.4389 -241.2948) rotate(1)" fill="black">
            <tspan font-family="Helvetica Neue" font-size="14" fill="black" x="0" y="13" xml:space="preserve">7</tspan>
          </text>
        </g>
        <g id="Graphic_123"/>
        <g id="Graphic_122"/>
        <g id="Graphic_121"/>
        <g id="Graphic_120">
          <path d="M 798.0206 -191.03212 L 812.3539 -191.03212 C 816.2199 -191.03212 819.3539 -187.8981 819.3539 -184.03212 L 819.3539 -170.03212 C 819.3539 -166.16612 816.2199 -163.03212 812.3539 -163.03212 L 798.0206 -163.03212 C 794.1546 -163.03212 791.0206 -166.16612 791.0206 -170.03212 L 791.0206 -184.03212 C 791.0206 -187.8981 794.1546 -191.03212 798.0206 -191.03212 Z" fill="#f8bc51"/>
          <path d="M 798.0206 -191.03212 L 812.3539 -191.03212 C 816.2199 -191.03212 819.3539 -187.8981 819.3539 -184.03212 L 819.3539 -170.03212 C 819.3539 -166.16612 816.2199 -163.03212 812.3539 -163.03212 L 798.0206 -163.03212 C 794.1546 -163.03212 791.0206 -166.16612 791.0206 -170.03212 L 791.0206 -184.03212 C 791.0206 -187.8981 794.1546 -191.03212 798.0206 -191.03212 Z" stroke="gray" stroke-linecap="round" stroke-linejoin="round" stroke-width="1"/>
          <text transform="translate(797.5475 -185.36272) rotate(1)" fill="black">
            <tspan font-family="Helvetica Neue" font-size="14" fill="black" x="0" y="13" xml:space="preserve">25</tspan>
          </text>
        </g>
        <g id="Graphic_119">
          <path d="M 741.3539 -163.03212 L 755.6872 -163.03212 C 759.5532 -163.03212 762.6872 -159.8981 762.6872 -156.03212 L 762.6872 -142.03212 C 762.6872 -138.16612 759.5532 -135.03212 755.6872 -135.03212 L 741.3539 -135.03212 C 737.4879 -135.03212 734.3539 -138.16612 734.3539 -142.03212 L 734.3539 -156.03212 C 734.3539 -159.8981 737.4879 -163.03212 741.3539 -163.03212 Z" fill="#f8bc51"/>
          <path d="M 741.3539 -163.03212 L 755.6872 -163.03212 C 759.5532 -163.03212 762.6872 -159.8981 762.6872 -156.03212 L 762.6872 -142.03212 C 762.6872 -138.16612 759.5532 -135.03212 755.6872 -135.03212 L 741.3539 -135.03212 C 737.4879 -135.03212 734.3539 -138.16612 734.3539 -142.03212 L 734.3539 -156.03212 C 734.3539 -159.8981 737.4879 -163.03212 741.3539 -163.03212 Z" stroke="gray" stroke-linecap="round" stroke-linejoin="round" stroke-width="1"/>
          <text transform="translate(740.8808 -157.36272) rotate(1)" fill="black">
            <tspan font-family="Helvetica Neue" font-size="14" fill="black" x="0" y="13" xml:space="preserve">27</tspan>
          </text>
        </g>
        <g id="Graphic_118">
          <path d="M 741.3539 -275.0321 L 755.6872 -275.0321 C 759.5532 -275.0321 762.6872 -271.8981 762.6872 -268.0321 L 762.6872 -254.03212 C 762.6872 -250.16612 759.5532 -247.03212 755.6872 -247.03212 L 741.3539 -247.03212 C 737.4879 -247.03212 734.3539 -250.16612 734.3539 -254.03212 L 734.3539 -268.0321 C 734.3539 -271.8981 737.4879 -275.0321 741.3539 -275.0321 Z" fill="#f8bc51"/>
          <path d="M 741.3539 -275.0321 L 755.6872 -275.0321 C 759.5532 -275.0321 762.6872 -271.8981 762.6872 -268.0321 L 762.6872 -254.03212 C 762.6872 -250.16612 759.5532 -247.03212 755.6872 -247.03212 L 741.3539 -247.03212 C 737.4879 -247.03212 734.3539 -250.16612 734.3539 -254.03212 L 734.3539 -268.0321 C 734.3539 -271.8981 737.4879 -275.0321 741.3539 -275.0321 Z" stroke="gray" stroke-linecap="round" stroke-linejoin="round" stroke-width="1"/>
          <text transform="translate(744.7722 -269.2948) rotate(1)" fill="black">
            <tspan font-family="Helvetica Neue" font-size="14" fill="black" x="0" y="13" xml:space="preserve">4</tspan>
          </text>
        </g>
        <g id="Graphic_117">
          <path d="M 713.0206 -275.0321 L 727.3539 -275.0321 C 731.2199 -275.0321 734.3539 -271.8981 734.3539 -268.0321 L 734.3539 -254.03212 C 734.3539 -250.16612 731.2199 -247.03212 727.3539 -247.03212 L 713.0206 -247.03212 C 709.1546 -247.03212 706.0206 -250.16612 706.0206 -254.03212 L 706.0206 -268.0321 C 706.0206 -271.8981 709.1546 -275.0321 713.0206 -275.0321 Z" fill="#f8bc51"/>
          <path d="M 713.0206 -275.0321 L 727.3539 -275.0321 C 731.2199 -275.0321 734.3539 -271.8981 734.3539 -268.0321 L 734.3539 -254.03212 C 734.3539 -250.16612 731.2199 -247.03212 727.3539 -247.03212 L 713.0206 -247.03212 C 709.1546 -247.03212 706.0206 -250.16612 706.0206 -254.03212 L 706.0206 -268.0321 C 706.0206 -271.8981 709.1546 -275.0321 713.0206 -275.0321 Z" stroke="gray" stroke-linecap="round" stroke-linejoin="round" stroke-width="1"/>
          <text transform="translate(716.4389 -269.2948) rotate(1)" fill="black">
            <tspan font-family="Helvetica Neue" font-size="14" fill="black" x="0" y="13" xml:space="preserve">2</tspan>
          </text>
        </g>
        <g id="Graphic_116"/>
        <g id="Graphic_115">
          <path d="M 798.0206 -247.03212 L 812.3539 -247.03212 C 816.2199 -247.03212 819.3539 -243.8981 819.3539 -240.03212 L 819.3539 -226.03212 C 819.3539 -222.16612 816.2199 -219.03212 812.3539 -219.03212 L 798.0206 -219.03212 C 794.1546 -219.03212 791.0206 -222.16612 791.0206 -226.03212 L 791.0206 -240.03212 C 791.0206 -243.8981 794.1546 -247.03212 798.0206 -247.03212 Z" fill="#f8bc51"/>
          <path d="M 798.0206 -247.03212 L 812.3539 -247.03212 C 816.2199 -247.03212 819.3539 -243.8981 819.3539 -240.03212 L 819.3539 -226.03212 C 819.3539 -222.16612 816.2199 -219.03212 812.3539 -219.03212 L 798.0206 -219.03212 C 794.1546 -219.03212 791.0206 -222.16612 791.0206 -226.03212 L 791.0206 -240.03212 C 791.0206 -243.8981 794.1546 -247.03212 798.0206 -247.03212 Z" stroke="gray" stroke-linecap="round" stroke-linejoin="round" stroke-width="1"/>
          <text transform="translate(797.5475 -241.36272) rotate(1)" fill="black">
            <tspan font-family="Helvetica Neue" font-size="14" fill="black" x="0" y="13" xml:space="preserve">10</tspan>
          </text>
        </g>
        <g id="Graphic_114"/>
        <g id="Graphic_113">
          <path d="M 713.0206 -163.03212 L 727.3539 -163.03212 C 731.2199 -163.03212 734.3539 -159.8981 734.3539 -156.03212 L 734.3539 -142.03212 C 734.3539 -138.16612 731.2199 -135.03212 727.3539 -135.03212 L 713.0206 -135.03212 C 709.1546 -135.03212 706.0206 -138.16612 706.0206 -142.03212 L 706.0206 -156.03212 C 706.0206 -159.8981 709.1546 -163.03212 713.0206 -163.03212 Z" fill="#7bcdf4"/>
          <path d="M 713.0206 -163.03212 L 727.3539 -163.03212 C 731.2199 -163.03212 734.3539 -159.8981 734.3539 -156.03212 L 734.3539 -142.03212 C 734.3539 -138.16612 731.2199 -135.03212 727.3539 -135.03212 L 713.0206 -135.03212 C 709.1546 -135.03212 706.0206 -138.16612 706.0206 -142.03212 L 706.0206 -156.03212 C 706.0206 -159.8981 709.1546 -163.03212 713.0206 -163.03212 Z" stroke="gray" stroke-linecap="round" stroke-linejoin="round" stroke-width="1"/>
          <text transform="translate(712.5475 -157.36272) rotate(1)" fill="black">
            <tspan font-family="Helvetica Neue" font-size="14" fill="black" x="0" y="13" xml:space="preserve">26</tspan>
          </text>
        </g>
        <g id="Graphic_112"/>
        <g id="Graphic_111">
          <path d="M 769.6872 -219.03212 L 784.0206 -219.03212 C 787.8866 -219.03212 791.0206 -215.8981 791.0206 -212.03212 L 791.0206 -198.03212 C 791.0206 -194.16612 787.8866 -191.03212 784.0206 -191.03212 L 769.6872 -191.03212 C 765.8212 -191.03212 762.6872 -194.16612 762.6872 -198.03212 L 762.6872 -212.03212 C 762.6872 -215.8981 765.8212 -219.03212 769.6872 -219.03212 Z" fill="#7bcdf4"/>
          <path d="M 769.6872 -219.03212 L 784.0206 -219.03212 C 787.8866 -219.03212 791.0206 -215.8981 791.0206 -212.03212 L 791.0206 -198.03212 C 791.0206 -194.16612 787.8866 -191.03212 784.0206 -191.03212 L 769.6872 -191.03212 C 765.8212 -191.03212 762.6872 -194.16612 762.6872 -198.03212 L 762.6872 -212.03212 C 762.6872 -215.8981 765.8212 -219.03212 769.6872 -219.03212 Z" stroke="gray" stroke-linecap="round" stroke-linejoin="round" stroke-width="1"/>
          <text transform="translate(769.2141 -213.36272) rotate(1)" fill="black">
            <tspan font-family="Helvetica Neue" font-size="14" fill="black" x="0" y="13" xml:space="preserve">16</tspan>
          </text>
        </g>
        <g id="Graphic_110">
          <path d="M 741.3539 -247.03212 L 755.6872 -247.03212 C 759.5532 -247.03212 762.6872 -243.8981 762.6872 -240.03212 L 762.6872 -226.03212 C 762.6872 -222.16612 759.5532 -219.03212 755.6872 -219.03212 L 741.3539 -219.03212 C 737.4879 -219.03212 734.3539 -222.16612 734.3539 -226.03212 L 734.3539 -240.03212 C 734.3539 -243.8981 737.4879 -247.03212 741.3539 -247.03212 Z" fill="#7bcdf4"/>
          <path d="M 741.3539 -247.03212 L 755.6872 -247.03212 C 759.5532 -247.03212 762.6872 -243.8981 762.6872 -240.03212 L 762.6872 -226.03212 C 762.6872 -222.16612 759.5532 -219.03212 755.6872 -219.03212 L 741.3539 -219.03212 C 737.4879 -219.03212 734.3539 -222.16612 734.3539 -226.03212 L 734.3539 -240.03212 C 734.3539 -243.8981 737.4879 -247.03212 741.3539 -247.03212 Z" stroke="gray" stroke-linecap="round" stroke-linejoin="round" stroke-width="1"/>
          <text transform="translate(744.7722 -241.2948) rotate(1)" fill="black">
            <tspan font-family="Helvetica Neue" font-size="14" fill="black" x="0" y="13" xml:space="preserve">8</tspan>
          </text>
        </g>
        <g id="Graphic_109">
          <path d="M 769.6872 -275.0321 L 784.0206 -275.0321 C 787.8866 -275.0321 791.0206 -271.8981 791.0206 -268.0321 L 791.0206 -254.03212 C 791.0206 -250.16612 787.8866 -247.03212 784.0206 -247.03212 L 769.6872 -247.03212 C 765.8212 -247.03212 762.6872 -250.16612 762.6872 -254.03212 L 762.6872 -268.0321 C 762.6872 -271.8981 765.8212 -275.0321 769.6872 -275.0321 Z" fill="#7bcdf4"/>
          <path d="M 769.6872 -275.0321 L 784.0206 -275.0321 C 787.8866 -275.0321 791.0206 -271.8981 791.0206 -268.0321 L 791.0206 -254.03212 C 791.0206 -250.16612 787.8866 -247.03212 784.0206 -247.03212 L 769.6872 -247.03212 C 765.8212 -247.03212 762.6872 -250.16612 762.6872 -254.03212 L 762.6872 -268.0321 C 762.6872 -271.8981 765.8212 -275.0321 769.6872 -275.0321 Z" stroke="gray" stroke-linecap="round" stroke-linejoin="round" stroke-width="1"/>
          <text transform="translate(773.1055 -269.2948) rotate(1)" fill="black">
            <tspan font-family="Helvetica Neue" font-size="14" fill="black" x="0" y="13" xml:space="preserve">5</tspan>
          </text>
        </g>
        <g id="Graphic_108">
          <path d="M 798.0206 -163.03212 L 812.3539 -163.03212 C 816.2199 -163.03212 819.3539 -159.8981 819.3539 -156.03212 L 819.3539 -142.03212 C 819.3539 -138.16612 816.2199 -135.03212 812.3539 -135.03212 L 798.0206 -135.03212 C 794.1546 -135.03212 791.0206 -138.16612 791.0206 -142.03212 L 791.0206 -156.03212 C 791.0206 -159.8981 794.1546 -163.03212 798.0206 -163.03212 Z" fill="#7bcdf4"/>
          <path d="M 798.0206 -163.03212 L 812.3539 -163.03212 C 816.2199 -163.03212 819.3539 -159.8981 819.3539 -156.03212 L 819.3539 -142.03212 C 819.3539 -138.16612 816.2199 -135.03212 812.3539 -135.03212 L 798.0206 -135.03212 C 794.1546 -135.03212 791.0206 -138.16612 791.0206 -142.03212 L 791.0206 -156.03212 C 791.0206 -159.8981 794.1546 -163.03212 798.0206 -163.03212 Z" stroke="gray" stroke-linecap="round" stroke-linejoin="round" stroke-width="1"/>
          <text transform="translate(797.5475 -157.36272) rotate(1)" fill="black">
            <tspan font-family="Helvetica Neue" font-size="14" fill="black" x="0" y="13" xml:space="preserve">29</tspan>
          </text>
        </g>
        <g id="Graphic_107">
          <path d="M 713.0206 -191.03212 L 727.3539 -191.03212 C 731.2199 -191.03212 734.3539 -187.8981 734.3539 -184.03212 L 734.3539 -170.03212 C 734.3539 -166.16612 731.2199 -163.03212 727.3539 -163.03212 L 713.0206 -163.03212 C 709.1546 -163.03212 706.0206 -166.16612 706.0206 -170.03212 L 706.0206 -184.03212 C 706.0206 -187.8981 709.1546 -191.03212 713.0206 -191.03212 Z" fill="#7bcdf4"/>
          <path d="M 713.0206 -191.03212 L 727.3539 -191.03212 C 731.2199 -191.03212 734.3539 -187.8981 734.3539 -184.03212 L 734.3539 -170.03212 C 734.3539 -166.16612 731.2199 -163.03212 727.3539 -163.03212 L 713.0206 -163.03212 C 709.1546 -163.03212 706.0206 -166.16612 706.0206 -170.03212 L 706.0206 -184.03212 C 706.0206 -187.8981 709.1546 -191.03212 713.0206 -191.03212 Z" stroke="gray" stroke-linecap="round" stroke-linejoin="round" stroke-width="1"/>
          <text transform="translate(712.5475 -185.36272) rotate(1)" fill="black">
            <tspan font-family="Helvetica Neue" font-size="14" fill="black" x="0" y="13" xml:space="preserve">20</tspan>
          </text>
        </g>
        <g id="Graphic_106"/>
        <g id="Graphic_105"/>
        <g id="Graphic_104">
          <path d="M 741.3539 -219.03212 L 755.6872 -219.03212 C 759.5532 -219.03212 762.6872 -215.8981 762.6872 -212.03212 L 762.6872 -198.03212 C 762.6872 -194.16612 759.5532 -191.03212 755.6872 -191.03212 L 741.3539 -191.03212 C 737.4879 -191.03212 734.3539 -194.16612 734.3539 -198.03212 L 734.3539 -212.03212 C 734.3539 -215.8981 737.4879 -219.03212 741.3539 -219.03212 Z" fill="#7bcdf4"/>
          <path d="M 741.3539 -219.03212 L 755.6872 -219.03212 C 759.5532 -219.03212 762.6872 -215.8981 762.6872 -212.03212 L 762.6872 -198.03212 C 762.6872 -194.16612 759.5532 -191.03212 755.6872 -191.03212 L 741.3539 -191.03212 C 737.4879 -191.03212 734.3539 -194.16612 734.3539 -198.03212 L 734.3539 -212.03212 C 734.3539 -215.8981 737.4879 -219.03212 741.3539 -219.03212 Z" stroke="gray" stroke-linecap="round" stroke-linejoin="round" stroke-width="1"/>
          <text transform="translate(740.8808 -213.36272) rotate(1)" fill="black">
            <tspan font-family="Helvetica Neue" font-size="14" fill="black" x="0" y="13" xml:space="preserve">13</tspan>
          </text>
        </g>
        <g id="Graphic_103">
          <path d="M 798.0206 -275.0321 L 812.3539 -275.0321 C 816.2199 -275.0321 819.3539 -271.8981 819.3539 -268.0321 L 819.3539 -254.03212 C 819.3539 -250.16612 816.2199 -247.03212 812.3539 -247.03212 L 798.0206 -247.03212 C 794.1546 -247.03212 791.0206 -250.16612 791.0206 -254.03212 L 791.0206 -268.0321 C 791.0206 -271.8981 794.1546 -275.0321 798.0206 -275.0321 Z" fill="#7bcdf4"/>
          <path d="M 798.0206 -275.0321 L 812.3539 -275.0321 C 816.2199 -275.0321 819.3539 -271.8981 819.3539 -268.0321 L 819.3539 -254.03212 C 819.3539 -250.16612 816.2199 -247.03212 812.3539 -247.03212 L 798.0206 -247.03212 C 794.1546 -247.03212 791.0206 -250.16612 791.0206 -254.03212 L 791.0206 -268.0321 C 791.0206 -271.8981 794.1546 -275.0321 798.0206 -275.0321 Z" stroke="gray" stroke-linecap="round" stroke-linejoin="round" stroke-width="1"/>
          <text transform="translate(801.4389 -269.2948) rotate(1)" fill="black">
            <tspan font-family="Helvetica Neue" font-size="14" fill="black" x="0" y="13" xml:space="preserve">6</tspan>
          </text>
        </g>
        <g id="Graphic_102">
          <path d="M 769.6872 -247.03212 L 784.0206 -247.03212 C 787.8866 -247.03212 791.0206 -243.8981 791.0206 -240.03212 L 791.0206 -226.03212 C 791.0206 -222.16612 787.8866 -219.03212 784.0206 -219.03212 L 769.6872 -219.03212 C 765.8212 -219.03212 762.6872 -222.16612 762.6872 -226.03212 L 762.6872 -240.03212 C 762.6872 -243.8981 765.8212 -247.03212 769.6872 -247.03212 Z" fill="#7bcdf4"/>
          <path d="M 769.6872 -247.03212 L 784.0206 -247.03212 C 787.8866 -247.03212 791.0206 -243.8981 791.0206 -240.03212 L 791.0206 -226.03212 C 791.0206 -222.16612 787.8866 -219.03212 784.0206 -219.03212 L 769.6872 -219.03212 C 765.8212 -219.03212 762.6872 -222.16612 762.6872 -226.03212 L 762.6872 -240.03212 C 762.6872 -243.8981 765.8212 -247.03212 769.6872 -247.03212 Z" stroke="gray" stroke-linecap="round" stroke-linejoin="round" stroke-width="1"/>
          <text transform="translate(773.1055 -241.2948) rotate(1)" fill="black">
            <tspan font-family="Helvetica Neue" font-size="14" fill="black" x="0" y="13" xml:space="preserve">9</tspan>
          </text>
        </g>
      </g>
      <g id="Group_70">
        <g id="Graphic_100"/>
        <g id="Graphic_99"/>
        <g id="Graphic_98">
          <path d="M 769.6872 1.9678844 L 784.0206 1.9678844 C 787.8866 1.9678844 791.0206 5.101891 791.0206 8.967884 L 791.0206 22.967884 C 791.0206 26.833878 787.8866 29.967884 784.0206 29.967884 L 769.6872 29.967884 C 765.8212 29.967884 762.6872 26.833878 762.6872 22.967884 L 762.6872 8.967884 C 762.6872 5.101891 765.8212 1.9678844 769.6872 1.9678844 Z" fill="#3fbfa0"/>
          <path d="M 769.6872 1.9678844 L 784.0206 1.9678844 C 787.8866 1.9678844 791.0206 5.101891 791.0206 8.967884 L 791.0206 22.967884 C 791.0206 26.833878 787.8866 29.967884 784.0206 29.967884 L 769.6872 29.967884 C 765.8212 29.967884 762.6872 26.833878 762.6872 22.967884 L 762.6872 8.967884 C 762.6872 5.101891 765.8212 1.9678844 769.6872 1.9678844 Z" stroke="gray" stroke-linecap="round" stroke-linejoin="round" stroke-width="1"/>
          <text transform="translate(769.2141 7.637284) rotate(1)" fill="white">
            <tspan font-family="Helvetica Neue" font-size="14" fill="white" x="0" y="13" xml:space="preserve">30</tspan>
          </text>
        </g>
        <g id="Graphic_97"/>
        <g id="Graphic_96">
          <path d="M 741.3539 -26.032116 L 755.6872 -26.032116 C 759.5532 -26.032116 762.6872 -22.89811 762.6872 -19.032116 L 762.6872 -5.0321156 C 762.6872 -1.1661223 759.5532 1.9678844 755.6872 1.9678844 L 741.3539 1.9678844 C 737.4879 1.9678844 734.3539 -1.1661223 734.3539 -5.0321156 L 734.3539 -19.032116 C 734.3539 -22.89811 737.4879 -26.032116 741.3539 -26.032116 Z" fill="#3fbfa0"/>
          <path d="M 741.3539 -26.032116 L 755.6872 -26.032116 C 759.5532 -26.032116 762.6872 -22.89811 762.6872 -19.032116 L 762.6872 -5.0321156 C 762.6872 -1.1661223 759.5532 1.9678844 755.6872 1.9678844 L 741.3539 1.9678844 C 737.4879 1.9678844 734.3539 -1.1661223 734.3539 -5.0321156 L 734.3539 -19.032116 C 734.3539 -22.89811 737.4879 -26.032116 741.3539 -26.032116 Z" stroke="gray" stroke-linecap="round" stroke-linejoin="round" stroke-width="1"/>
          <text transform="translate(740.8808 -20.362716) rotate(1)" fill="white">
            <tspan font-family="Helvetica Neue" font-size="14" fill="white" x="0" y="13" xml:space="preserve">19</tspan>
          </text>
        </g>
        <g id="Graphic_95"/>
        <g id="Graphic_94">
          <path d="M 769.6872 -26.032116 L 784.0206 -26.032116 C 787.8866 -26.032116 791.0206 -22.89811 791.0206 -19.032116 L 791.0206 -5.0321156 C 791.0206 -1.1661223 787.8866 1.9678844 784.0206 1.9678844 L 769.6872 1.9678844 C 765.8212 1.9678844 762.6872 -1.1661223 762.6872 -5.0321156 L 762.6872 -19.032116 C 762.6872 -22.89811 765.8212 -26.032116 769.6872 -26.032116 Z" fill="#3fbfa0"/>
          <path d="M 769.6872 -26.032116 L 784.0206 -26.032116 C 787.8866 -26.032116 791.0206 -22.89811 791.0206 -19.032116 L 791.0206 -5.0321156 C 791.0206 -1.1661223 787.8866 1.9678844 784.0206 1.9678844 L 769.6872 1.9678844 C 765.8212 1.9678844 762.6872 -1.1661223 762.6872 -5.0321156 L 762.6872 -19.032116 C 762.6872 -22.89811 765.8212 -26.032116 769.6872 -26.032116 Z" stroke="gray" stroke-linecap="round" stroke-linejoin="round" stroke-width="1"/>
          <text transform="translate(769.2141 -20.362716) rotate(1)" fill="white">
            <tspan font-family="Helvetica Neue" font-size="14" fill="white" x="0" y="13" xml:space="preserve">21</tspan>
          </text>
        </g>
        <g id="Graphic_93"/>
        <g id="Graphic_92"/>
        <g id="Graphic_91"/>
        <g id="Graphic_90"/>
        <g id="Graphic_89"/>
        <g id="Graphic_88">
          <path d="M 741.3539 1.9678844 L 755.6872 1.9678844 C 759.5532 1.9678844 762.6872 5.101891 762.6872 8.967884 L 762.6872 22.967884 C 762.6872 26.833878 759.5532 29.967884 755.6872 29.967884 L 741.3539 29.967884 C 737.4879 29.967884 734.3539 26.833878 734.3539 22.967884 L 734.3539 8.967884 C 734.3539 5.101891 737.4879 1.9678844 741.3539 1.9678844 Z" fill="#3fbfa0"/>
          <path d="M 741.3539 1.9678844 L 755.6872 1.9678844 C 759.5532 1.9678844 762.6872 5.101891 762.6872 8.967884 L 762.6872 22.967884 C 762.6872 26.833878 759.5532 29.967884 755.6872 29.967884 L 741.3539 29.967884 C 737.4879 29.967884 734.3539 26.833878 734.3539 22.967884 L 734.3539 8.967884 C 734.3539 5.101891 737.4879 1.9678844 741.3539 1.9678844 Z" stroke="gray" stroke-linecap="round" stroke-linejoin="round" stroke-width="1"/>
          <text transform="translate(740.8808 7.637284) rotate(1)" fill="white">
            <tspan font-family="Helvetica Neue" font-size="14" fill="white" x="0" y="13" xml:space="preserve">24</tspan>
          </text>
        </g>
        <g id="Graphic_87">
          <path d="M 741.3539 -110.03212 L 755.6872 -110.03212 C 759.5532 -110.03212 762.6872 -106.89811 762.6872 -103.03212 L 762.6872 -89.03212 C 762.6872 -85.16612 759.5532 -82.03212 755.6872 -82.03212 L 741.3539 -82.03212 C 737.4879 -82.03212 734.3539 -85.16612 734.3539 -89.03212 L 734.3539 -103.03212 C 734.3539 -106.89811 737.4879 -110.03212 741.3539 -110.03212 Z" fill="#3fbfa0"/>
          <path d="M 741.3539 -110.03212 L 755.6872 -110.03212 C 759.5532 -110.03212 762.6872 -106.89811 762.6872 -103.03212 L 762.6872 -89.03212 C 762.6872 -85.16612 759.5532 -82.03212 755.6872 -82.03212 L 741.3539 -82.03212 C 737.4879 -82.03212 734.3539 -85.16612 734.3539 -89.03212 L 734.3539 -103.03212 C 734.3539 -106.89811 737.4879 -110.03212 741.3539 -110.03212 Z" stroke="gray" stroke-linecap="round" stroke-linejoin="round" stroke-width="1"/>
          <text transform="translate(744.7722 -104.29479) rotate(1)" fill="white">
            <tspan font-family="Helvetica Neue" font-size="14" fill="white" x="0" y="13" xml:space="preserve">1</tspan>
          </text>
        </g>
        <g id="Graphic_86"/>
        <g id="Graphic_85"/>
        <g id="Graphic_84"/>
        <g id="Graphic_83"/>
        <g id="Graphic_82"/>
        <g id="Graphic_81"/>
        <g id="Graphic_80">
          <path d="M 769.6872 -54.032116 L 784.0206 -54.032116 C 787.8866 -54.032116 791.0206 -50.89811 791.0206 -47.032116 L 791.0206 -33.032116 C 791.0206 -29.166122 787.8866 -26.032116 784.0206 -26.032116 L 769.6872 -26.032116 C 765.8212 -26.032116 762.6872 -29.166122 762.6872 -33.032116 L 762.6872 -47.032116 C 762.6872 -50.89811 765.8212 -54.032116 769.6872 -54.032116 Z" fill="#3fbfa0"/>
          <path d="M 769.6872 -54.032116 L 784.0206 -54.032116 C 787.8866 -54.032116 791.0206 -50.89811 791.0206 -47.032116 L 791.0206 -33.032116 C 791.0206 -29.166122 787.8866 -26.032116 784.0206 -26.032116 L 769.6872 -26.032116 C 765.8212 -26.032116 762.6872 -29.166122 762.6872 -33.032116 L 762.6872 -47.032116 C 762.6872 -50.89811 765.8212 -54.032116 769.6872 -54.032116 Z" stroke="gray" stroke-linecap="round" stroke-linejoin="round" stroke-width="1"/>
          <text transform="translate(769.2141 -48.362716) rotate(1)" fill="white">
            <tspan font-family="Helvetica Neue" font-size="14" fill="white" x="0" y="13" xml:space="preserve">17</tspan>
          </text>
        </g>
        <g id="Graphic_79">
          <path d="M 741.3539 -82.03212 L 755.6872 -82.03212 C 759.5532 -82.03212 762.6872 -78.89811 762.6872 -75.03212 L 762.6872 -61.032116 C 762.6872 -57.16612 759.5532 -54.032116 755.6872 -54.032116 L 741.3539 -54.032116 C 737.4879 -54.032116 734.3539 -57.16612 734.3539 -61.032116 L 734.3539 -75.03212 C 734.3539 -78.89811 737.4879 -82.03212 741.3539 -82.03212 Z" fill="#3fbfa0"/>
          <path d="M 741.3539 -82.03212 L 755.6872 -82.03212 C 759.5532 -82.03212 762.6872 -78.89811 762.6872 -75.03212 L 762.6872 -61.032116 C 762.6872 -57.16612 759.5532 -54.032116 755.6872 -54.032116 L 741.3539 -54.032116 C 737.4879 -54.032116 734.3539 -57.16612 734.3539 -61.032116 L 734.3539 -75.03212 C 734.3539 -78.89811 737.4879 -82.03212 741.3539 -82.03212 Z" stroke="gray" stroke-linecap="round" stroke-linejoin="round" stroke-width="1"/>
          <text transform="translate(740.8808 -76.36272) rotate(1)" fill="white">
            <tspan font-family="Helvetica Neue" font-size="14" fill="white" x="0" y="13" xml:space="preserve">12</tspan>
          </text>
        </g>
        <g id="Graphic_78">
          <path d="M 769.6872 -110.03212 L 784.0206 -110.03212 C 787.8866 -110.03212 791.0206 -106.89811 791.0206 -103.03212 L 791.0206 -89.03212 C 791.0206 -85.16612 787.8866 -82.03212 784.0206 -82.03212 L 769.6872 -82.03212 C 765.8212 -82.03212 762.6872 -85.16612 762.6872 -89.03212 L 762.6872 -103.03212 C 762.6872 -106.89811 765.8212 -110.03212 769.6872 -110.03212 Z" fill="#3fbfa0"/>
          <path d="M 769.6872 -110.03212 L 784.0206 -110.03212 C 787.8866 -110.03212 791.0206 -106.89811 791.0206 -103.03212 L 791.0206 -89.03212 C 791.0206 -85.16612 787.8866 -82.03212 784.0206 -82.03212 L 769.6872 -82.03212 C 765.8212 -82.03212 762.6872 -85.16612 762.6872 -89.03212 L 762.6872 -103.03212 C 762.6872 -106.89811 765.8212 -110.03212 769.6872 -110.03212 Z" stroke="gray" stroke-linecap="round" stroke-linejoin="round" stroke-width="1"/>
          <text transform="translate(773.1055 -104.29479) rotate(1)" fill="white">
            <tspan font-family="Helvetica Neue" font-size="14" fill="white" x="0" y="13" xml:space="preserve">3</tspan>
          </text>
        </g>
        <g id="Graphic_77"/>
        <g id="Graphic_76"/>
        <g id="Graphic_75"/>
        <g id="Graphic_74"/>
        <g id="Graphic_73">
          <path d="M 741.3539 -54.032116 L 755.6872 -54.032116 C 759.5532 -54.032116 762.6872 -50.89811 762.6872 -47.032116 L 762.6872 -33.032116 C 762.6872 -29.166122 759.5532 -26.032116 755.6872 -26.032116 L 741.3539 -26.032116 C 737.4879 -26.032116 734.3539 -29.166122 734.3539 -33.032116 L 734.3539 -47.032116 C 734.3539 -50.89811 737.4879 -54.032116 741.3539 -54.032116 Z" fill="#3fbfa0"/>
          <path d="M 741.3539 -54.032116 L 755.6872 -54.032116 C 759.5532 -54.032116 762.6872 -50.89811 762.6872 -47.032116 L 762.6872 -33.032116 C 762.6872 -29.166122 759.5532 -26.032116 755.6872 -26.032116 L 741.3539 -26.032116 C 737.4879 -26.032116 734.3539 -29.166122 734.3539 -33.032116 L 734.3539 -47.032116 C 734.3539 -50.89811 737.4879 -54.032116 741.3539 -54.032116 Z" stroke="gray" stroke-linecap="round" stroke-linejoin="round" stroke-width="1"/>
          <text transform="translate(740.8808 -48.362716) rotate(1)" fill="white">
            <tspan font-family="Helvetica Neue" font-size="14" fill="white" x="0" y="13" xml:space="preserve">15</tspan>
          </text>
        </g>
        <g id="Graphic_72"/>
        <g id="Graphic_71">
          <path d="M 769.6872 -82.03212 L 784.0206 -82.03212 C 787.8866 -82.03212 791.0206 -78.89811 791.0206 -75.03212 L 791.0206 -61.032116 C 791.0206 -57.16612 787.8866 -54.032116 784.0206 -54.032116 L 769.6872 -54.032116 C 765.8212 -54.032116 762.6872 -57.16612 762.6872 -61.032116 L 762.6872 -75.03212 C 762.6872 -78.89811 765.8212 -82.03212 769.6872 -82.03212 Z" fill="#3fbfa0"/>
          <path d="M 769.6872 -82.03212 L 784.0206 -82.03212 C 787.8866 -82.03212 791.0206 -78.89811 791.0206 -75.03212 L 791.0206 -61.032116 C 791.0206 -57.16612 787.8866 -54.032116 784.0206 -54.032116 L 769.6872 -54.032116 C 765.8212 -54.032116 762.6872 -57.16612 762.6872 -61.032116 L 762.6872 -75.03212 C 762.6872 -78.89811 765.8212 -82.03212 769.6872 -82.03212 Z" stroke="gray" stroke-linecap="round" stroke-linejoin="round" stroke-width="1"/>
          <text transform="translate(769.2141 -76.36272) rotate(1)" fill="white">
            <tspan font-family="Helvetica Neue" font-size="14" fill="white" x="0" y="13" xml:space="preserve">14</tspan>
          </text>
        </g>
      </g>
      <g id="Line_7">
        <line x1="707.6872" y1="-290.0321" x2="817.6872" y2="-290.0321" stroke="black" stroke-linecap="round" stroke-linejoin="round" stroke-width="1.3"/>
      </g>
      <g id="Line_4">
        <line x1="686.6872" y1="-133.03212" x2="686.6872" y2="-273.0321" stroke="black" stroke-linecap="round" stroke-linejoin="round" stroke-width="1.3"/>
      </g>
      <g id="Line_3">
        <line x1="686.6872" y1="25.967884" x2="686.6872" y2="-114.03212" stroke="black" stroke-linecap="round" stroke-linejoin="round" stroke-width="1.3"/>
      </g>
      <g id="Line_2">
        <line x1="502.56744" y1="-152.98011" x2="552.76744" y2="-152.98011" marker-end="url(#FilledArrow_Marker)" stroke="black" stroke-linecap="round" stroke-linejoin="round" stroke-width="1.3"/>
      </g>
      <g id="Line_455">
        <line x1="198.66216" y1="-152.81011" x2="248.86216" y2="-152.81011" marker-end="url(#FilledArrow_Marker)" stroke="black" stroke-linecap="round" stroke-linejoin="round" stroke-width="1.3"/>
      </g>
      <g id="Graphic_617"/>
    </g>
  </g>
</svg>
